  0
SECTION
  2
HEADER
  9
$ACADVER
  1
AC1015
  9
$ACADMAINTVER
 70
     6
  9
$DWGCODEPAGE
  3
ANSI_1252
  9
$INSBASE
 10
0.0
 20
0.0
 30
0.0
  9
$EXTMIN
 10
-3.0159736445
 20
-3.0181493314
 30
0.0
  9
$EXTMAX
 10
3.0159736445
 20
3.0181493314
 30
0.0
  9
$LIMMIN
 10
0.0
 20
0.0
  9
$LIMMAX
 10
12.0
 20
9.0
  9
$ORTHOMODE
 70
     0
  9
$REGENMODE
 70
     1
  9
$FILLMODE
 70
     1
  9
$QTEXTMODE
 70
     0
  9
$MIRRTEXT
 70
     1
  9
$LTSCALE
 40
1.0
  9
$ATTMODE
 70
     1
  9
$TEXTSIZE
 40
0.1377952756
  9
$TRACEWID
 40
0.05
  9
$TEXTSTYLE
  7
Standard
  9
$CLAYER
  8
0
  9
$CELTYPE
  6
ByLayer
  9
$CECOLOR
 62
   256
  9
$CELTSCALE
 40
1.0
  9
$DISPSILH
 70
     0
  9
$DIMSCALE
 40
1.0
  9
$DIMASZ
 40
0.13
  9
$DIMEXO
 40
0.0
  9
$DIMDLI
 40
0.38
  9
$DIMRND
 40
0.0
  9
$DIMDLE
 40
0.0
  9
$DIMEXE
 40
0.0393700787
  9
$DIMTP
 40
0.0
  9
$DIMTM
 40
0.0
  9
$DIMTXT
 40
0.1377952756
  9
$DIMCEN
 40
0.09
  9
$DIMTSZ
 40
0.0
  9
$DIMTOL
 70
     0
  9
$DIMLIM
 70
     0
  9
$DIMTIH
 70
     1
  9
$DIMTOH
 70
     1
  9
$DIMSE1
 70
     0
  9
$DIMSE2
 70
     0
  9
$DIMTAD
 70
     1
  9
$DIMZIN
 70
     1
  9
$DIMBLK
  1

  9
$DIMASO
 70
     1
  9
$DIMSHO
 70
     1
  9
$DIMPOST
  1

  9
$DIMAPOST
  1

  9
$DIMALT
 70
     0
  9
$DIMALTD
 70
     2
  9
$DIMALTF
 40
25.4
  9
$DIMLFAC
 40
1.0
  9
$DIMTOFL
 70
     0
  9
$DIMTVP
 40
0.0
  9
$DIMTIX
 70
     0
  9
$DIMSOXD
 70
     0
  9
$DIMSAH
 70
     0
  9
$DIMBLK1
  1

  9
$DIMBLK2
  1

  9
$DIMSTYLE
  2
Standard
  9
$DIMCLRD
 70
     0
  9
$DIMCLRE
 70
     0
  9
$DIMCLRT
 70
     0
  9
$DIMTFAC
 40
1.0
  9
$DIMGAP
 40
0.06
  9
$DIMJUST
 70
     0
  9
$DIMSD1
 70
     0
  9
$DIMSD2
 70
     0
  9
$DIMTOLJ
 70
     1
  9
$DIMTZIN
 70
     1
  9
$DIMALTZ
 70
     0
  9
$DIMALTTZ
 70
     0
  9
$DIMUPT
 70
     0
  9
$DIMDEC
 70
     4
  9
$DIMTDEC
 70
     4
  9
$DIMALTU
 70
     2
  9
$DIMALTTD
 70
     2
  9
$DIMTXSTY
  7
Standard
  9
$DIMAUNIT
 70
     0
  9
$DIMADEC
 70
     2
  9
$DIMALTRND
 40
0.0
  9
$DIMAZIN
 70
     0
  9
$DIMDSEP
 70
    46
  9
$DIMATFIT
 70
     3
  9
$DIMFRAC
 70
     0
  9
$DIMLDRBLK
  1

  9
$DIMLUNIT
 70
     2
  9
$DIMLWD
 70
    -2
  9
$DIMLWE
 70
    -2
  9
$DIMTMOVE
 70
     0
  9
$LUNITS
 70
     2
  9
$LUPREC
 70
     4
  9
$SKETCHINC
 40
0.1
  9
$FILLETRAD
 40
0.0
  9
$AUNITS
 70
     0
  9
$AUPREC
 70
     2
  9
$MENU
  1
.
  9
$ELEVATION
 40
0.0
  9
$PELEVATION
 40
0.0
  9
$THICKNESS
 40
0.0
  9
$LIMCHECK
 70
     0
  9
$CHAMFERA
 40
0.0
  9
$CHAMFERB
 40
0.0
  9
$CHAMFERC
 40
0.0
  9
$CHAMFERD
 40
0.0
  9
$SKPOLY
 70
     0
  9
$TDCREATE
 40
2460005.506429479
  9
$TDUCREATE
 40
2460005.756429479
  9
$TDUPDATE
 40
2460005.506445047
  9
$TDUUPDATE
 40
2460005.756445047
  9
$TDINDWG
 40
0.0000000116
  9
$TDUSRTIMER
 40
0.0000000116
  9
$USRTIMER
 70
     1
  9
$ANGBASE
 50
0.0
  9
$ANGDIR
 70
     0
  9
$PDMODE
 70
     0
  9
$PDSIZE
 40
-1.0
  9
$PLINEWID
 40
0.0
  9
$SPLFRAME
 70
     0
  9
$SPLINETYPE
 70
     6
  9
$SPLINESEGS
 70
     8
  9
$HANDSEED
  5
2CA
  9
$SURFTAB1
 70
     6
  9
$SURFTAB2
 70
     6
  9
$SURFTYPE
 70
     6
  9
$SURFU
 70
     6
  9
$SURFV
 70
     6
  9
$UCSBASE
  2

  9
$UCSNAME
  2

  9
$UCSORG
 10
0.0
 20
0.0
 30
0.0
  9
$UCSXDIR
 10
1.0
 20
0.0
 30
0.0
  9
$UCSYDIR
 10
0.0
 20
1.0
 30
0.0
  9
$UCSORTHOREF
  2

  9
$UCSORTHOVIEW
 70
     0
  9
$UCSORGTOP
 10
0.0
 20
0.0
 30
0.0
  9
$UCSORGBOTTOM
 10
0.0
 20
0.0
 30
0.0
  9
$UCSORGLEFT
 10
0.0
 20
0.0
 30
0.0
  9
$UCSORGRIGHT
 10
0.0
 20
0.0
 30
0.0
  9
$UCSORGFRONT
 10
0.0
 20
0.0
 30
0.0
  9
$UCSORGBACK
 10
0.0
 20
0.0
 30
0.0
  9
$PUCSBASE
  2

  9
$PUCSNAME
  2

  9
$PUCSORG
 10
0.0
 20
0.0
 30
0.0
  9
$PUCSXDIR
 10
1.0
 20
0.0
 30
0.0
  9
$PUCSYDIR
 10
0.0
 20
1.0
 30
0.0
  9
$PUCSORTHOREF
  2

  9
$PUCSORTHOVIEW
 70
     0
  9
$PUCSORGTOP
 10
0.0
 20
0.0
 30
0.0
  9
$PUCSORGBOTTOM
 10
0.0
 20
0.0
 30
0.0
  9
$PUCSORGLEFT
 10
0.0
 20
0.0
 30
0.0
  9
$PUCSORGRIGHT
 10
0.0
 20
0.0
 30
0.0
  9
$PUCSORGFRONT
 10
0.0
 20
0.0
 30
0.0
  9
$PUCSORGBACK
 10
0.0
 20
0.0
 30
0.0
  9
$USERI1
 70
     0
  9
$USERI2
 70
     0
  9
$USERI3
 70
     0
  9
$USERI4
 70
     0
  9
$USERI5
 70
     0
  9
$USERR1
 40
0.0
  9
$USERR2
 40
0.0
  9
$USERR3
 40
0.0
  9
$USERR4
 40
0.0
  9
$USERR5
 40
0.0
  9
$WORLDVIEW
 70
     1
  9
$SHADEDGE
 70
     3
  9
$SHADEDIF
 70
    70
  9
$TILEMODE
 70
     1
  9
$MAXACTVP
 70
    64
  9
$PINSBASE
 10
0.0
 20
0.0
 30
0.0
  9
$PLIMCHECK
 70
     0
  9
$PEXTMIN
 10
1.0000000000E+20
 20
1.0000000000E+20
 30
1.0000000000E+20
  9
$PEXTMAX
 10
-1.0000000000E+20
 20
-1.0000000000E+20
 30
-1.0000000000E+20
  9
$PLIMMIN
 10
0.0
 20
0.0
  9
$PLIMMAX
 10
12.0
 20
9.0
  9
$UNITMODE
 70
     0
  9
$VISRETAIN
 70
     1
  9
$PLINEGEN
 70
     0
  9
$PSLTSCALE
 70
     1
  9
$TREEDEPTH
 70
  3020
  9
$CMLSTYLE
  2
Standard
  9
$CMLJUST
 70
     0
  9
$CMLSCALE
 40
1.0
  9
$PROXYGRAPHICS
 70
     1
  9
$MEASUREMENT
 70
     0
  9
$CELWEIGHT
370
    -1
  9
$ENDCAPS
280
     0
  9
$JOINSTYLE
280
     0
  9
$LWDISPLAY
290
     1
  9
$INSUNITS
 70
     1
  9
$HYPERLINKBASE
  1

  9
$STYLESHEET
  1

  9
$XEDIT
290
     1
  9
$CEPSNTYPE
380
     0
  9
$PSTYLEMODE
290
     1
  9
$FINGERPRINTGUID
  2
{69c98e1a-8e0e-461e-aaa8-590549dd3873}
  9
$VERSIONGUID
  2
{FAEB1C32-E019-11D5-929B-00C0DF256EC4}
  9
$EXTNAMES
290
     1
  9
$PSVPSCALE
 40
0.0
  9
$OLESTARTUP
290
     0
  0
ENDSEC
  0
SECTION
  2
CLASSES
  0
CLASS
  1
ACDBDICTIONARYWDFLT
  2
AcDbDictionaryWithDefault
  3
ObjectDBX Classes
 90
        0
280
     0
281
     0
  0
CLASS
  1
VISUALSTYLE
  2
AcDbVisualStyle
  3
ObjectDBX Classes
 90
     4095
280
     0
281
     0
  0
CLASS
  1
MATERIAL
  2
AcDbMaterial
  3
ObjectDBX Classes
 90
     1153
280
     0
281
     0
  0
CLASS
  1
SCALE
  2
AcDbScale
  3
ObjectDBX Classes
 90
     1153
280
     0
281
     0
  0
CLASS
  1
TABLESTYLE
  2
AcDbTableStyle
  3
ObjectDBX Classes
 90
     4095
280
     0
281
     0
  0
CLASS
  1
MLEADERSTYLE
  2
AcDbMLeaderStyle
  3
ACDB_MLEADERSTYLE_CLASS
 90
     4095
280
     0
281
     0
  0
CLASS
  1
SUN
  2
AcDbSun
  3
SCENEOE
 90
     1153
280
     0
281
     0
  0
CLASS
  1
ACDBPLACEHOLDER
  2
AcDbPlaceHolder
  3
ObjectDBX Classes
 90
        0
280
     0
281
     0
  0
CLASS
  1
LAYOUT
  2
AcDbLayout
  3
ObjectDBX Classes
 90
        0
280
     0
281
     0
  0
ENDSEC
  0
SECTION
  2
TABLES
  0
TABLE
  2
VPORT
  5
8
330
0
100
AcDbSymbolTable
 70
     1
  0
VPORT
  5
29
330
8
100
AcDbSymbolTableRecord
100
AcDbViewportTableRecord
  2
*Active
 70
     0
 10
0.0
 20
0.0
 11
1.0
 21
1.0
 12
0.0
 22
0.0
 13
0.0
 23
0.0
 14
0.5
 24
0.5
 15
0.5
 25
0.5
 16
0.0
 26
0.0
 36
1.0
 17
0.0
 27
0.0
 37
0.0
 40
6.157024636
 41
0.9992791321
 42
50.0
 43
0.0
 44
0.0
 50
0.0
 51
0.0
 71
     0
 72
   100
 73
     1
 74
     3
 75
     0
 76
     0
 77
     0
 78
     0
281
     0
 65
     1
110
0.0
120
0.0
130
0.0
111
1.0
121
0.0
131
0.0
112
0.0
122
1.0
132
0.0
 79
     0
146
0.0
  0
ENDTAB
  0
TABLE
  2
LTYPE
  5
5
330
0
100
AcDbSymbolTable
 70
     6
  0
LTYPE
  5
14
330
5
100
AcDbSymbolTableRecord
100
AcDbLinetypeTableRecord
  2
ByBlock
 70
     0
  3

 72
    65
 73
     0
 40
0.0
  0
LTYPE
  5
15
330
5
100
AcDbSymbolTableRecord
100
AcDbLinetypeTableRecord
  2
ByLayer
 70
     0
  3

 72
    65
 73
     0
 40
0.0
  0
LTYPE
  5
16
330
5
100
AcDbSymbolTableRecord
100
AcDbLinetypeTableRecord
  2
Continuous
 70
     0
  3
Solid line
 72
    65
 73
     0
 40
0.0
  0
LTYPE
  5
5E
330
5
100
AcDbSymbolTableRecord
100
AcDbLinetypeTableRecord
  2
HIDDEN
 70
     0
  3
Hidden __ __ __ __ __ __ __ __ __ __ __ __ __ __
 72
    65
 73
     2
 40
0.075
 49
0.05
 74
     0
 49
-0.025
 74
     0
  0
LTYPE
  5
5F
330
5
100
AcDbSymbolTableRecord
100
AcDbLinetypeTableRecord
  2
PHANTOM
 70
     0
  3
Phantom ______  __  __  ______  __  __  ______
 72
    65
 73
     6
 40
0.5
 49
0.25
 74
     0
 49
-0.05
 74
     0
 49
0.05
 74
     0
 49
-0.05
 74
     0
 49
0.05
 74
     0
 49
-0.05
 74
     0
  0
LTYPE
  5
60
330
5
100
AcDbSymbolTableRecord
100
AcDbLinetypeTableRecord
  2
CENTER
 70
     0
  3
Center ____ _ ____ _ ____ _ ____ _ ____ _ ____
 72
    65
 73
     4
 40
0.4
 49
0.25
 74
     0
 49
-0.05
 74
     0
 49
0.05
 74
     0
 49
-0.05
 74
     0
  0
LTYPE
  5
61
330
5
100
AcDbSymbolTableRecord
100
AcDbLinetypeTableRecord
  2
CENTERX2
 70
     0
  3
Center (2x) ________  __  ________  __  _____
 72
    65
 73
     4
 40
0.8
 49
0.5
 74
     0
 49
-0.1
 74
     0
 49
0.1
 74
     0
 49
-0.1
 74
     0
  0
LTYPE
  5
62
330
5
100
AcDbSymbolTableRecord
100
AcDbLinetypeTableRecord
  2
DOT2
 70
     0
  3
Dot (.5x) ........................................
 72
    65
 73
     2
 40
0.025
 49
0.0
 74
     0
 49
-0.025
 74
     0
  0
ENDTAB
  0
TABLE
  2
LAYER
  5
2
330
0
100
AcDbSymbolTable
 70
     1
  0
LAYER
  5
10
330
2
100
AcDbSymbolTableRecord
100
AcDbLayerTableRecord
  2
0
 70
     0
 62
     7
  6
Continuous
370
    -3
390
F
  0
ENDTAB
  0
TABLE
  2
STYLE
  5
3
330
0
100
AcDbSymbolTable
 70
     2
  0
STYLE
  5
11
330
3
100
AcDbSymbolTableRecord
100
AcDbTextStyleTableRecord
  2
Standard
 70
     0
 40
0.0
 41
1.0
 50
0.0
 71
     0
 42
0.1377952756
  3
txt
  4

  0
STYLE
  5
2C6
330
3
100
AcDbSymbolTableRecord
100
AcDbTextStyleTableRecord
  2
SLDTEXTSTYLE0
 70
     0
 40
0.0
 41
0.7
 50
0.0
 71
     0
 42
0.1377952756
  3
TXT
  4

  0
ENDTAB
  0
TABLE
  2
VIEW
  5
6
330
0
100
AcDbSymbolTable
 70
     0
  0
ENDTAB
  0
TABLE
  2
UCS
  5
7
330
0
100
AcDbSymbolTable
 70
     0
  0
ENDTAB
  0
TABLE
  2
APPID
  5
9
330
0
100
AcDbSymbolTable
 70
     1
  0
APPID
  5
12
330
9
100
AcDbSymbolTableRecord
100
AcDbRegAppTableRecord
  2
ACAD
 70
     0
  0
ENDTAB
  0
TABLE
  2
DIMSTYLE
  5
A
330
0
100
AcDbSymbolTable
 70
     1
100
AcDbDimStyleTable
  0
DIMSTYLE
105
27
330
A
100
AcDbSymbolTableRecord
100
AcDbDimStyleTableRecord
  2
Standard
 70
     0
178
     0
340
11
  0
ENDTAB
  0
TABLE
  2
BLOCK_RECORD
  5
1
330
0
100
AcDbSymbolTable
 70
     1
  0
BLOCK_RECORD
  5
1F
330
1
100
AcDbSymbolTableRecord
100
AcDbBlockTableRecord
  2
*Model_Space
340
22
  0
BLOCK_RECORD
  5
1B
330
1
100
AcDbSymbolTableRecord
100
AcDbBlockTableRecord
  2
*Paper_Space
340
1E
  0
BLOCK_RECORD
  5
23
330
1
100
AcDbSymbolTableRecord
100
AcDbBlockTableRecord
  2
*Paper_Space0
340
26
  0
ENDTAB
  0
ENDSEC
  0
SECTION
  2
BLOCKS
  0
BLOCK
  5
20
330
1F
100
AcDbEntity
  8
0
100
AcDbBlockBegin
  2
*Model_Space
 70
     0
 10
0.0
 20
0.0
 30
0.0
  3
*Model_Space
  1

  0
ENDBLK
  5
21
330
1F
100
AcDbEntity
  8
0
100
AcDbBlockEnd
  0
BLOCK
  5
1C
330
1B
100
AcDbEntity
 67
     1
  8
0
100
AcDbBlockBegin
  2
*Paper_Space
 70
     0
 10
0.0
 20
0.0
 30
0.0
  3
*Paper_Space
  1

  0
ENDBLK
  5
1D
330
1B
100
AcDbEntity
 67
     1
  8
0
100
AcDbBlockEnd
  0
BLOCK
  5
24
330
23
100
AcDbEntity
  8
0
100
AcDbBlockBegin
  2
*Paper_Space0
 70
     0
 10
0.0
 20
0.0
 30
0.0
  3
*Paper_Space0
  1

  0
ENDBLK
  5
25
330
23
100
AcDbEntity
  8
0
100
AcDbBlockEnd
  0
ENDSEC
  0
SECTION
  2
ENTITIES
  0
ARC
  5
63
330
1F
100
AcDbEntity
  8
0
  6
Continuous
 62
     7
370
    25
100
AcDbCircle
 10
0.0
 20
0.0
 30
0.0
 40
3.018149331363401
100
AcDbArc
 50
89.7432301936
 51
90.2567698064
  0
ARC
  5
64
330
1F
100
AcDbEntity
  8
0
  6
Continuous
 62
     7
370
    25
100
AcDbCircle
 10
-0.057
 20
2.9425973198
 30
0.0
 40
0.103331533459044
100
AcDbArc
 50
16.1351351351
 51
46.9592050245
  0
LINE
  5
65
330
1F
100
AcDbEntity
  8
0
  6
Continuous
 62
     7
370
    25
100
AcDbLine
 10
0.0477497576
 20
2.9523416359
 30
0.0
 11
0.0422611925
 21
2.9713135429
 31
0.0
  0
ARC
  5
66
330
1F
100
AcDbEntity
  8
0
  6
Continuous
 62
     7
370
    25
100
AcDbCircle
 10
0.2118457759
 20
2.999814548
 30
0.0
 40
0.170825000000006
100
AcDbArc
 50
196.1351351351
 51
213.3783783784
  0
ARC
  5
67
330
1F
100
AcDbEntity
  8
0
  6
Continuous
 62
     7
370
    25
100
AcDbCircle
 10
0.125
 20
2.9425973198
 30
0.0
 40
0.0668250000000047
100
AcDbArc
 50
213.3783783784
 51
321.7567567567
  0
ARC
  5
68
330
1F
100
AcDbEntity
  8
0
  6
Continuous
 62
     7
370
    25
100
AcDbCircle
 10
0.0433194469
 20
3.0069734586
 30
0.0
 40
0.1708250000000092
100
AcDbArc
 50
321.7567567568
 51
339.0
  0
LINE
  5
69
330
1F
100
AcDbEntity
  8
0
  6
Continuous
 62
     7
370
    25
100
AcDbLine
 10
0.2098760458
 20
2.9641933514
 30
0.0
 11
0.2027983232
 21
2.9457552536
 31
0.0
  0
ARC
  5
6A
330
1F
100
AcDbEntity
  8
0
  6
Continuous
 62
     7
370
    25
100
AcDbCircle
 10
0.3063443429
 20
2.9271626416
 30
0.0
 40
0.103331533459044
100
AcDbArc
 50
128.1759301107
 51
159.0
  0
ARC
  5
6B
330
1F
100
AcDbEntity
  8
0
  6
Continuous
 62
     7
370
    25
100
AcDbCircle
 10
0.0
 20
0.0
 30
0.0
 40
3.018149331363401
100
AcDbArc
 50
84.8783653287
 51
85.3919049415
  0
ARC
  5
6C
330
1F
100
AcDbEntity
  8
0
  6
Continuous
 62
     7
370
    25
100
AcDbCircle
 10
0.1927550292
 20
2.936830517
 30
0.0
 40
0.1033315334590441
100
AcDbArc
 50
11.2702702703
 51
42.0943401596
  0
LINE
  5
6D
330
1F
100
AcDbEntity
  8
0
  6
Continuous
 62
     7
370
    25
100
AcDbLine
 10
0.2979538003
 20
2.937656329
 30
0.0
 11
0.294093938
 21
2.9570253524
 31
0.0
  0
ARC
  5
6E
330
1F
100
AcDbEntity
  8
0
  6
Continuous
 62
     7
370
    25
100
AcDbCircle
 10
0.4654846451
 20
2.9710419049
 30
0.0
 40
0.1708250000000072
100
AcDbArc
 50
191.2702702703
 51
208.5135135135
  0
ARC
  5
6F
330
1F
100
AcDbEntity
  8
0
  6
Continuous
 62
     7
370
    25
100
AcDbCircle
 10
0.3740993721
 20
2.9213958387
 30
0.0
 40
0.0668250000000044
100
AcDbArc
 50
208.5135135135
 51
316.8918918919
  0
ARC
  5
70
330
1F
100
AcDbEntity
  8
0
  6
Continuous
 62
     7
370
    25
100
AcDbCircle
 10
0.2981725521
 20
2.9924670565
 30
0.0
 40
0.1708250000000089
100
AcDbArc
 50
316.8918918919
 51
334.1351351351
  0
LINE
  5
71
330
1F
100
AcDbEntity
  8
0
  6
Continuous
 62
     7
370
    25
100
AcDbLine
 10
0.4605011225
 20
2.9357160787
 30
0.0
 11
0.4518852375
 21
2.9179446373
 31
0.0
  0
ARC
  5
72
330
1F
100
AcDbEntity
  8
0
  6
Continuous
 62
     7
370
    25
100
AcDbCircle
 10
0.5534814678
 20
2.8906376894
 30
0.0
 40
0.1033315334590435
100
AcDbArc
 50
123.3110652458
 51
154.1351351351
  0
ARC
  5
73
330
1F
100
AcDbEntity
  8
0
  6
Continuous
 62
     7
370
    25
100
AcDbCircle
 10
0.0
 20
0.0
 30
0.0
 40
3.018149331363402
100
AcDbArc
 50
80.0135004639
 51
80.5270400767
  0
ARC
  5
74
330
1F
100
AcDbEntity
  8
0
  6
Continuous
 62
     7
370
    25
100
AcDbCircle
 10
0.441121254
 20
2.9099037829
 30
0.0
 40
0.103331533459044
100
AcDbArc
 50
6.4054054054
 51
37.2294752947
  0
LINE
  5
75
330
1F
100
AcDbEntity
  8
0
  6
Continuous
 62
     7
370
    25
100
AcDbLine
 10
0.5460110791
 20
2.9018051409
 30
0.0
 11
0.5438077299
 21
2.9214317263
 31
0.0
  0
ARC
  5
76
330
1F
100
AcDbEntity
  8
0
  6
Continuous
 62
     7
370
    25
100
AcDbCircle
 10
0.7157696867
 20
2.9208628367
 30
0.0
 40
0.1708250000000073
100
AcDbArc
 50
186.4054054054
 51
203.6486486486
  0
ARC
  5
77
330
1F
100
AcDbEntity
  8
0
  6
Continuous
 62
     7
370
    25
100
AcDbCircle
 10
0.6205033497
 20
2.8791456336
 30
0.0
 40
0.0668250000000044
100
AcDbArc
 50
203.6486486486
 51
312.027027027
  0
ARC
  5
78
330
1F
100
AcDbEntity
  8
0
  6
Continuous
 62
     7
370
    25
100
AcDbCircle
 10
0.5508773173
 20
2.9563998607
 30
0.0
 40
0.1708250000000088
100
AcDbArc
 50
312.027027027
 51
329.2702702703
  0
LINE
  5
79
330
1F
100
AcDbEntity
  8
0
  6
Continuous
 62
     7
370
    25
100
AcDbLine
 10
0.7078082779
 20
2.8860869045
 30
0.0
 11
0.6977163083
 21
2.869110163
 31
0.0
  0
ARC
  5
7A
330
1F
100
AcDbEntity
  8
0
  6
Continuous
 62
     7
370
    25
100
AcDbCircle
 10
0.7966307461
 20
2.8332856265
 30
0.0
 40
0.103331533459044
100
AcDbArc
 50
118.446200381
 51
149.2702702703
  0
ARC
  5
7B
330
1F
100
AcDbEntity
  8
0
  6
Continuous
 62
     7
370
    25
100
AcDbCircle
 10
0.0
 20
0.0
 30
0.0
 40
3.018149331363402
100
AcDbArc
 50
75.148635599
 51
75.6621752118
  0
ARC
  5
7C
330
1F
100
AcDbEntity
  8
0
  6
Continuous
 62
     7
370
    25
100
AcDbCircle
 10
0.6863091901
 20
2.8620111255
 30
0.0
 40
0.1033315334590441
100
AcDbArc
 50
1.5405405405
 51
32.3646104299
  0
LINE
  5
7D
330
1F
100
AcDbEntity
  8
0
  6
Continuous
 62
     7
370
    25
100
AcDbLine
 10
0.7901343356
 20
2.8450463803
 30
0.0
 11
0.7896033747
 21
2.8647891178
 31
0.0
  0
ARC
  5
7E
330
1F
100
AcDbEntity
  8
0
  6
Continuous
 62
     7
370
    25
100
AcDbCircle
 10
0.9608975914
 20
2.8496388849
 30
0.0
 40
0.170825000000007
100
AcDbArc
 50
181.5405405405
 51
198.7837837838
  0
ARC
  5
7F
330
1F
100
AcDbEntity
  8
0
  6
Continuous
 62
     7
370
    25
100
AcDbCircle
 10
0.8624365865
 20
2.8161511183
 30
0.0
 40
0.0668250000000042
100
AcDbArc
 50
198.7837837838
 51
307.1621621621
  0
ARC
  5
80
330
1F
100
AcDbEntity
  8
0
  6
Continuous
 62
     7
370
    25
100
AcDbCircle
 10
0.7996129987
 20
2.8990317362
 30
0.0
 40
0.1708250000000092
100
AcDbArc
 50
307.1621621622
 51
324.4054054054
  0
LINE
  5
81
330
1F
100
AcDbEntity
  8
0
  6
Continuous
 62
     7
370
    25
100
AcDbLine
 10
0.9500156586
 20
2.815663408
 30
0.0
 11
0.9385203171
 21
2.7996036842
 31
0.0
  0
ARC
  5
82
330
1F
100
AcDbEntity
  8
0
  6
Continuous
 62
     7
370
    25
100
AcDbCircle
 10
1.0340402815
 20
2.7555196756
 30
0.0
 40
0.103331533459045
100
AcDbArc
 50
113.5813355161
 51
144.4054054054
  0
ARC
  5
83
330
1F
100
AcDbEntity
  8
0
  6
Continuous
 62
     7
370
    25
100
AcDbCircle
 10
0.0
 20
0.0
 30
0.0
 40
3.018149331363403
100
AcDbArc
 50
70.2837707341
 51
70.7973103469
  0
ARC
  5
84
330
1F
100
AcDbEntity
  8
0
  6
Continuous
 62
     7
370
    25
100
AcDbCircle
 10
0.9265522527
 20
2.7934976122
 30
0.0
 40
0.1033315334590444
100
AcDbArc
 50
356.6756756757
 51
27.499745565
  0
LINE
  5
85
330
1F
100
AcDbEntity
  8
0
  6
Continuous
 62
     7
370
    25
100
AcDbLine
 10
1.028564656
 20
2.7677889953
 30
0.0
 11
1.029709909
 21
2.787505638
 31
0.0
  0
ARC
  5
86
330
1F
100
AcDbEntity
  8
0
  6
Continuous
 62
     7
370
    25
100
AcDbCircle
 10
1.1991022068
 20
2.7578832196
 30
0.0
 40
0.1708250000000069
100
AcDbArc
 50
176.6756756757
 51
193.9189189189
  0
ARC
  5
87
330
1F
100
AcDbEntity
  8
0
  6
Continuous
 62
     7
370
    25
100
AcDbCircle
 10
1.0981559478
 20
2.7328661696
 30
0.0
 40
0.0668250000000039
100
AcDbArc
 50
193.9189189189
 51
302.2972972973
  0
ARC
  5
88
330
1F
100
AcDbEntity
  8
0
  6
Continuous
 62
     7
370
    25
100
AcDbCircle
 10
1.0425874502
 20
2.8207760216
 30
0.0
 40
0.170825000000009
100
AcDbArc
 50
302.2972972973
 51
319.5405405405
  0
LINE
  5
89
330
1F
100
AcDbEntity
  8
0
  6
Continuous
 62
     7
370
    25
100
AcDbLine
 10
1.1853781546
 20
2.7249529921
 30
0.0
 11
1.1725622655
 21
2.7099259967
 31
0.0
  0
ARC
  5
8A
330
1F
100
AcDbEntity
  8
0
  6
Continuous
 62
     7
370
    25
100
AcDbCircle
 10
1.2639995331
 20
2.6579001424
 30
0.0
 40
0.1033315334590437
100
AcDbArc
 50
108.7164706512
 51
139.5405405405
  0
ARC
  5
8B
330
1F
100
AcDbEntity
  8
0
  6
Continuous
 62
     7
370
    25
100
AcDbCircle
 10
0.0
 20
0.0
 30
0.0
 40
3.018149331363402
100
AcDbArc
 50
65.4189058693
 51
65.9324454821
  0
ARC
  5
8C
330
1F
100
AcDbEntity
  8
0
  6
Continuous
 62
     7
370
    25
100
AcDbCircle
 10
1.1601194852
 20
2.7048568847
 30
0.0
 40
0.1033315334590443
100
AcDbArc
 50
351.8108108108
 51
22.6348807001
  0
LINE
  5
8D
330
1F
100
AcDbEntity
  8
0
  6
Continuous
 62
     7
370
    25
100
AcDbLine
 10
1.2595841446
 20
2.6705896272
 30
0.0
 11
1.2623973599
 21
2.6901381162
 31
0.0
  0
ARC
  5
8E
330
1F
100
AcDbEntity
  8
0
  6
Continuous
 62
     7
370
    25
100
AcDbCircle
 10
1.4286672634
 20
2.6462569425
 30
0.0
 40
0.1708250000000069
100
AcDbArc
 50
171.8108108108
 51
189.0540540541
  0
ARC
  5
8F
330
1F
100
AcDbEntity
  8
0
  6
Continuous
 62
     7
370
    25
100
AcDbCircle
 10
1.3259630704
 20
2.6298908575
 30
0.0
 40
0.0668250000000038
100
AcDbArc
 50
189.0540540541
 51
297.4324324324
  0
ARC
  5
90
330
1F
100
AcDbEntity
  8
0
  6
Continuous
 62
     7
370
    25
100
AcDbCircle
 10
1.2780500352
 20
2.7221965511
 30
0.0
 40
0.1708250000000086
100
AcDbArc
 50
297.4324324324
 51
314.6756756757
  0
LINE
  5
91
330
1F
100
AcDbEntity
  8
0
  6
Continuous
 62
     7
370
    25
100
AcDbLine
 10
1.4121999739
 20
2.6146092275
 30
0.0
 11
1.3981558759
 21
2.6007232303
 31
0.0
  0
ARC
  5
92
330
1F
100
AcDbEntity
  8
0
  6
Continuous
 62
     7
370
    25
100
AcDbCircle
 10
1.484851639
 20
2.5411303778
 30
0.0
 40
0.1033315334590445
100
AcDbArc
 50
103.8516057864
 51
134.6756756757
  0
ARC
  5
93
330
1F
100
AcDbEntity
  8
0
  6
Continuous
 62
     7
370
    25
100
AcDbCircle
 10
0.0
 20
0.0
 30
0.0
 40
3.018149331363401
100
AcDbArc
 50
60.5540410044
 51
61.0675806172
  0
ARC
  5
94
330
1F
100
AcDbEntity
  8
0
  6
Continuous
 62
     7
370
    25
100
AcDbCircle
 10
1.3853280301
 20
2.5967276014
 30
0.0
 40
0.1033315334590443
100
AcDbArc
 50
346.9459459459
 51
17.7700158353
  0
LINE
  5
95
330
1F
100
AcDbEntity
  8
0
  6
Continuous
 62
     7
370
    25
100
AcDbLine
 10
1.4815283005
 20
2.5541485996
 30
0.0
 11
1.4859892089
 21
2.5733880877
 31
0.0
  0
ARC
  5
96
330
1F
100
AcDbEntity
  8
0
  6
Continuous
 62
     7
370
    25
100
AcDbCircle
 10
1.6479387397
 20
2.5155643235
 30
0.0
 40
0.170825000000007
100
AcDbArc
 50
166.9459459459
 51
184.1891891892
  0
ARC
  5
97
330
1F
100
AcDbEntity
  8
0
  6
Continuous
 62
     7
370
    25
100
AcDbCircle
 10
1.5442165987
 20
2.5079671216
 30
0.0
 40
0.0668250000000037
100
AcDbArc
 50
184.1891891892
 51
292.5675675676
  0
ARC
  5
98
330
1F
100
AcDbEntity
  8
0
  6
Continuous
 62
     7
370
    25
100
AcDbCircle
 10
1.5043042405
 20
2.6040035921
 30
0.0
 40
0.1708250000000091
100
AcDbArc
 50
292.5675675676
 51
309.8108108108
  0
LINE
  5
99
330
1F
100
AcDbEntity
  8
0
  6
Continuous
 62
     7
370
    25
100
AcDbLine
 10
1.62884686
 20
2.4854271435
 30
0.0
 11
1.6136757412
 21
2.4727821935
 31
0.0
  0
ARC
  5
9A
330
1F
100
AcDbEntity
  8
0
  6
Continuous
 62
     7
370
    25
100
AcDbCircle
 10
1.6950053549
 20
2.4060517105
 30
0.0
 40
0.1033315334590436
100
AcDbArc
 50
98.9867409215
 51
129.8108108108
  0
ARC
  5
9B
330
1F
100
AcDbEntity
  8
0
  6
Continuous
 62
     7
370
    25
100
AcDbCircle
 10
0.0
 20
0.0
 30
0.0
 40
3.018149331363402
100
AcDbArc
 50
55.6891761395
 51
56.2027157523
  0
ARC
  5
9C
330
1F
100
AcDbEntity
  8
0
  6
Continuous
 62
     7
370
    25
100
AcDbCircle
 10
1.6005552549
 20
2.4698888361
 30
0.0
 40
0.103331533459044
100
AcDbArc
 50
342.0810810811
 51
12.9051509704
  0
LINE
  5
9D
330
1F
100
AcDbEntity
  8
0
  6
Continuous
 62
     7
370
    25
100
AcDbLine
 10
1.6927980111
 20
2.4193048729
 30
0.0
 11
1.6988744715
 21
2.438096739
 31
0.0
  0
ARC
  5
9E
330
1F
100
AcDbEntity
  8
0
  6
Continuous
 62
     7
370
    25
100
AcDbCircle
 10
1.8553367795
 20
2.3667470059
 30
0.0
 40
0.170825000000007
100
AcDbArc
 50
162.0810810811
 51
179.3243243243
  0
ARC
  5
9F
330
1F
100
AcDbEntity
  8
0
  6
Continuous
 62
     7
370
    25
100
AcDbCircle
 10
1.751344011
 20
2.3679734251
 30
0.0
 40
0.0668250000000042
100
AcDbArc
 50
179.3243243243
 51
287.7027027027
  0
ARC
  5
A0
330
1F
100
AcDbEntity
  8
0
  6
Continuous
 62
     7
370
    25
100
AcDbCircle
 10
1.7197198992
 20
2.4670487275
 30
0.0
 40
0.170825000000009
100
AcDbArc
 50
287.7027027027
 51
304.9459459459
  0
LINE
  5
A1
330
1F
100
AcDbEntity
  8
0
  6
Continuous
 62
     7
370
    25
100
AcDbLine
 10
1.8337578671
 20
2.3383374999
 30
0.0
 11
1.8175690358
 21
2.3270247043
 31
0.0
  0
ARC
  5
A2
330
1F
100
AcDbEntity
  8
0
  6
Continuous
 62
     7
370
    25
100
AcDbCircle
 10
1.8929465183
 20
2.2536373855
 30
0.0
 40
0.1033315334590441
100
AcDbArc
 50
94.1218760566
 51
124.9459459459
  0
ARC
  5
A3
330
1F
100
AcDbEntity
  8
0
  6
Continuous
 62
     7
370
    25
100
AcDbCircle
 10
0.0
 20
0.0
 30
0.0
 40
3.018149331363403
100
AcDbArc
 50
50.8243112747
 51
51.3378508875
  0
ARC
  5
A4
330
1F
100
AcDbEntity
  8
0
  6
Continuous
 62
     7
370
    25
100
AcDbCircle
 10
1.8042504423
 20
2.3252544652
 30
0.0
 40
0.103331533459044
100
AcDbArc
 50
337.2162162162
 51
8.0402861055
  0
LINE
  5
A5
330
1F
100
AcDbEntity
  8
0
  6
Continuous
 62
     7
370
    25
100
AcDbLine
 10
1.8918710732
 20
2.2670299991
 30
0.0
 11
1.8995193047
 21
2.2852388474
 31
0.0
  0
ARC
  5
A6
330
1F
100
AcDbEntity
  8
0
  6
Continuous
 62
     7
370
    25
100
AcDbCircle
 10
2.0493670753
 20
2.2008772219
 30
0.0
 40
0.1708250000000071
100
AcDbArc
 50
157.2162162162
 51
174.4594594595
  0
ARC
  5
A7
330
1F
100
AcDbEntity
  8
0
  6
Continuous
 62
     7
370
    25
100
AcDbCircle
 10
1.9458529496
 20
2.2109184257
 30
0.0
 40
0.0668250000000044
100
AcDbArc
 50
174.4594594595
 51
282.8378378378
  0
ARC
  5
A8
330
1F
100
AcDbEntity
  8
0
  6
Continuous
 62
     7
370
    25
100
AcDbCircle
 10
1.9227449366
 20
2.3123187203
 30
0.0
 40
0.1708250000000093
100
AcDbArc
 50
282.8378378378
 51
300.0810810811
  0
LINE
  5
A9
330
1F
100
AcDbEntity
  8
0
  6
Continuous
 62
     7
370
    25
100
AcDbLine
 10
2.0254566068
 20
2.1744000811
 30
0.0
 11
2.0083667039
 21
2.1645009487
 31
0.0
  0
ARC
  5
AA
330
1F
100
AcDbEntity
  8
0
  6
Continuous
 62
     7
370
    25
100
AcDbCircle
 10
2.0772489587
 20
2.0849855516
 30
0.0
 40
0.1033315334590444
100
AcDbArc
 50
89.2570111918
 51
120.0810810811
  0
ARC
  5
AB
330
1F
100
AcDbEntity
  8
0
  6
Continuous
 62
     7
370
    25
100
AcDbCircle
 10
0.0
 20
0.0
 30
0.0
 40
3.018149331363402
100
AcDbArc
 50
45.9594464098
 51
46.4729860226
  0
ARC
  5
AC
330
1F
100
AcDbEntity
  8
0
  6
Continuous
 62
     7
370
    25
100
AcDbCircle
 10
1.994945964
 20
2.1638665826
 30
0.0
 40
0.1033315334590438
100
AcDbArc
 50
332.3513513514
 51
3.1754212407
  0
LINE
  5
AD
330
1F
100
AcDbEntity
  8
0
  6
Continuous
 62
     7
370
    25
100
AcDbLine
 10
2.0773131608
 20
2.0984211222
 30
0.0
 11
2.0864780577
 21
2.1159157576
 31
0.0
  0
ARC
  5
AE
330
1F
100
AcDbEntity
  8
0
  6
Continuous
 62
     7
370
    25
100
AcDbCircle
 10
2.2286316344
 20
2.0191500671
 30
0.0
 40
0.170825000000007
100
AcDbArc
 50
152.3513513514
 51
169.5945945946
  0
ARC
  5
AF
330
1F
100
AcDbEntity
  8
0
  6
Continuous
 62
     7
370
    25
100
AcDbCircle
 10
2.1263419731
 20
2.0379337085
 30
0.0
 40
0.0668250000000041
100
AcDbArc
 50
169.5945945946
 51
277.972972973
  0
ARC
  5
B0
330
1F
100
AcDbEntity
  8
0
  6
Continuous
 62
     7
370
    25
100
AcDbCircle
 10
2.1119165527
 20
2.1409284037
 30
0.0
 40
0.1708250000000094
100
AcDbArc
 50
277.972972973
 51
295.2162162162
  0
LINE
  5
B1
330
1F
100
AcDbEntity
  8
0
  6
Continuous
 62
     7
370
    25
100
AcDbLine
 10
2.2025618852
 20
1.9947960599
 30
0.0
 11
2.1846940438
 21
1.9863819142
 31
0.0
  0
ARC
  5
B2
330
1F
100
AcDbEntity
  8
0
  6
Continuous
 62
     7
370
    25
100
AcDbCircle
 10
2.2465847727
 20
1.9013113489
 30
0.0
 40
0.1033315334590435
100
AcDbArc
 50
84.3921463269
 51
115.2162162162
  0
ARC
  5
B3
330
1F
100
AcDbEntity
  8
0
  6
Continuous
 62
     7
370
    25
100
AcDbCircle
 10
0.0
 20
0.0
 30
0.0
 40
3.018149331363402
100
AcDbArc
 50
41.094581545
 51
41.6081211577
  0
ARC
  5
B4
330
1F
100
AcDbEntity
  8
0
  6
Continuous
 62
     7
370
    25
100
AcDbCircle
 10
2.1712678543
 20
1.9868879917
 30
0.0
 40
0.1033315334590441
100
AcDbArc
 50
327.4864864865
 51
358.3105563758
  0
LINE
  5
B5
330
1F
100
AcDbEntity
  8
0
  6
Continuous
 62
     7
370
    25
100
AcDbLine
 10
2.2477881596
 20
1.914693073
 30
0.0
 11
2.2584036886
 21
1.9313474463
 31
0.0
  0
ARC
  5
B6
330
1F
100
AcDbEntity
  8
0
  6
Continuous
 62
     7
370
    25
100
AcDbCircle
 10
2.3918388515
 20
1.8228748898
 30
0.0
 40
0.1708250000000068
100
AcDbArc
 50
147.4864864865
 51
164.7297297297
  0
ARC
  5
B7
330
1F
100
AcDbEntity
  8
0
  6
Continuous
 62
     7
370
    25
100
AcDbCircle
 10
2.2915106539
 20
1.8502656322
 30
0.0
 40
0.0668250000000044
100
AcDbArc
 50
164.7297297297
 51
273.1081081081
  0
ARC
  5
B8
330
1F
100
AcDbEntity
  8
0
  6
Continuous
 62
     7
370
    25
100
AcDbCircle
 10
2.2858717616
 20
1.954112649
 30
0.0
 40
0.1708250000000086
100
AcDbArc
 50
273.1081081081
 51
290.3513513514
  0
LINE
  5
B9
330
1F
100
AcDbEntity
  8
0
  6
Continuous
 62
     7
370
    25
100
AcDbLine
 10
2.3637976548
 20
1.8008194873
 30
0.0
 11
2.3452806131
 21
1.7939509526
 31
0.0
  0
ARC
  5
BA
330
1F
100
AcDbEntity
  8
0
  6
Continuous
 62
     7
370
    25
100
AcDbCircle
 10
2.399733892
 20
1.7039381544
 30
0.0
 40
0.103331533459044
100
AcDbArc
 50
79.527281462
 51
110.3513513514
  0
ARC
  5
BB
330
1F
100
AcDbEntity
  8
0
  6
Continuous
 62
     7
370
    25
100
AcDbCircle
 10
0.0
 20
0.0
 30
0.0
 40
3.018149331363402
100
AcDbArc
 50
36.2297166801
 51
36.7432562929
  0
ARC
  5
BC
330
1F
100
AcDbEntity
  8
0
  6
Continuous
 62
     7
370
    25
100
AcDbCircle
 10
2.3319457099
 20
1.7955938273
 30
0.0
 40
0.1033315334590439
100
AcDbArc
 50
322.6216216216
 51
353.4456915109
  0
LINE
  5
BD
330
1F
100
AcDbEntity
  8
0
  6
Continuous
 62
     7
370
    25
100
AcDbLine
 10
2.4020677931
 20
1.7171696164
 30
0.0
 11
2.4140574691
 21
1.7328637323
 31
0.0
  0
ARC
  5
BE
330
1F
100
AcDbEntity
  8
0
  6
Continuous
 62
     7
370
    25
100
AcDbCircle
 10
2.5378128149
 20
1.6134658571
 30
0.0
 40
0.1708250000000068
100
AcDbArc
 50
142.6216216216
 51
159.8648648649
  0
ARC
  5
BF
330
1F
100
AcDbEntity
  8
0
  6
Continuous
 62
     7
370
    25
100
AcDbCircle
 10
2.440168948
 20
1.6492663496
 30
0.0
 40
0.0668250000000044
100
AcDbArc
 50
159.8648648649
 51
268.2432432432
  0
ARC
  5
C0
330
1F
100
AcDbEntity
  8
0
  6
Continuous
 62
     7
370
    25
100
AcDbCircle
 10
2.4433572121
 20
1.7532174678
 30
0.0
 40
0.1708250000000089
100
AcDbArc
 50
268.2432432432
 51
285.4864864865
  0
LINE
  5
C1
330
1F
100
AcDbEntity
  8
0
  6
Continuous
 62
     7
370
    25
100
AcDbLine
 10
2.5080022081
 20
1.5938679691
 30
0.0
 11
2.4889693818
 21
1.5885945331
 31
0.0
  0
ARC
  5
C2
330
1F
100
AcDbEntity
  8
0
  6
Continuous
 62
     7
370
    25
100
AcDbCircle
 10
2.5355928736
 20
1.4942880465
 30
0.0
 40
0.1033315334590438
100
AcDbArc
 50
74.6624165972
 51
105.4864864865
  0
ARC
  5
C3
330
1F
100
AcDbEntity
  8
0
  6
Continuous
 62
     7
370
    25
100
AcDbCircle
 10
0.0
 20
0.0
 30
0.0
 40
3.018149331363401
100
AcDbArc
 50
31.3648518152
 51
31.878391428
  0
ARC
  5
C4
330
1F
100
AcDbEntity
  8
0
  6
Continuous
 62
     7
370
    25
100
AcDbCircle
 10
2.4758218433
 20
1.5913623682
 30
0.0
 40
0.1033315334590439
100
AcDbArc
 50
317.7567567568
 51
348.5808266461
  0
LINE
  5
C5
330
1F
100
AcDbEntity
  8
0
  6
Continuous
 62
     7
370
    25
100
AcDbLine
 10
2.5390404732
 20
1.5072739133
 30
0.0
 11
2.5523179102
 21
1.5218946955
 31
0.0
  0
ARC
  5
C6
330
1F
100
AcDbEntity
  8
0
  6
Continuous
 62
     7
370
    25
100
AcDbCircle
 10
2.6655017788
 20
1.3924317659
 30
0.0
 40
0.1708250000000068
100
AcDbArc
 50
137.7567567568
 51
155.0
  0
ARC
  5
C7
330
1F
100
AcDbEntity
  8
0
  6
Continuous
 62
     7
370
    25
100
AcDbCircle
 10
2.5712457689
 20
1.4363840651
 30
0.0
 40
0.0668250000000048
100
AcDbArc
 50
155.0
 51
263.3783783784
  0
ARC
  5
C8
330
1F
100
AcDbEntity
  8
0
  6
Continuous
 62
     7
370
    25
100
AcDbCircle
 10
2.5832382179
 20
1.5396903146
 30
0.0
 40
0.1708250000000089
100
AcDbArc
 50
263.3783783784
 51
280.6216216216
  0
LINE
  5
C9
330
1F
100
AcDbEntity
  8
0
  6
Continuous
 62
     7
370
    25
100
AcDbLine
 10
2.634136548
 20
1.3754325956
 30
0.0
 11
2.6147250691
 21
1.3717922537
 31
0.0
  0
ARC
  5
CA
330
1F
100
AcDbEntity
  8
0
  6
Continuous
 62
     7
370
    25
100
AcDbCircle
 10
2.6531828505
 20
1.273871559
 30
0.0
 40
0.1033315334590439
100
AcDbArc
 50
69.7975517323
 51
100.6216216216
  0
ARC
  5
CB
330
1F
100
AcDbEntity
  8
0
  6
Continuous
 62
     7
370
    25
100
AcDbCircle
 10
0.0
 20
0.0
 30
0.0
 40
3.018149331363401
100
AcDbArc
 50
26.4999869504
 51
27.0135265632
  0
ARC
  5
CC
330
1F
100
AcDbEntity
  8
0
  6
Continuous
 62
     7
370
    25
100
AcDbCircle
 10
2.6018596235
 20
1.3756651068
 30
0.0
 40
0.1033315334590437
100
AcDbArc
 50
312.8918918919
 51
343.7159617812
  0
LINE
  5
CD
330
1F
100
AcDbEntity
  8
0
  6
Continuous
 62
     7
370
    25
100
AcDbLine
 10
2.6577193084
 20
1.2865182672
 30
0.0
 11
2.6721888423
 21
1.2999603725
 31
0.0
  0
ARC
  5
CE
330
1F
100
AcDbEntity
  8
0
  6
Continuous
 62
     7
370
    25
100
AcDbCircle
 10
2.7739857412
 20
1.161365172
 30
0.0
 40
0.1708250000000064
100
AcDbArc
 50
132.8918918919
 51
150.1351351351
  0
ARC
  5
CF
330
1F
100
AcDbEntity
  8
0
  6
Continuous
 62
     7
370
    25
100
AcDbCircle
 10
2.6837967051
 20
1.2131526006
 30
0.0
 40
0.0668250000000035
100
AcDbArc
 50
150.1351351351
 51
258.5135135135
  0
ARC
  5
D0
330
1F
100
AcDbEntity
  8
0
  6
Continuous
 62
     7
370
    25
100
AcDbCircle
 10
2.7045069332
 20
1.3150696573
 30
0.0
 40
0.1708250000000091
100
AcDbArc
 50
258.5135135135
 51
275.7567567568
  0
LINE
  5
D1
330
1F
100
AcDbEntity
  8
0
  6
Continuous
 62
     7
370
    25
100
AcDbLine
 10
2.7412918738
 20
1.1470871988
 30
0.0
 11
2.7216416023
 21
1.1451061797
 31
0.0
  0
ARC
  5
D2
330
1F
100
AcDbEntity
  8
0
  6
Continuous
 62
     7
370
    25
100
AcDbCircle
 10
2.7516565841
 20
1.0442767976
 30
0.0
 40
0.1033315334590439
100
AcDbArc
 50
64.9326868674
 51
95.7567567568
  0
ARC
  5
D3
330
1F
100
AcDbEntity
  8
0
  6
Continuous
 62
     7
370
    25
100
AcDbCircle
 10
0.0
 20
0.0
 30
0.0
 40
3.018149331363402
100
AcDbArc
 50
21.6351220855
 51
22.1486616983
  0
ARC
  5
D4
330
1F
100
AcDbEntity
  8
0
  6
Continuous
 62
     7
370
    25
100
AcDbCircle
 10
2.7091509456
 20
1.1500561468
 30
0.0
 40
0.1033315334590444
100
AcDbArc
 50
308.027027027
 51
338.8510969163
  0
LINE
  5
D5
330
1F
100
AcDbEntity
  8
0
  6
Continuous
 62
     7
370
    25
100
AcDbLine
 10
2.7572492152
 20
1.0564932274
 30
0.0
 11
2.7728065925
 21
1.0686598052
 31
0.0
  0
ARC
  5
D6
330
1F
100
AcDbEntity
  8
0
  6
Continuous
 62
     7
370
    25
100
AcDbCircle
 10
2.8624830729
 20
0.9219309154
 30
0.0
 40
0.1708250000000069
100
AcDbArc
 50
128.027027027
 51
145.2702702703
  0
ARC
  5
D7
330
1F
100
AcDbEntity
  8
0
  6
Continuous
 62
     7
370
    25
100
AcDbCircle
 10
2.7770108246
 20
0.9811803438
 30
0.0
 40
0.0668250000000042
100
AcDbArc
 50
145.2702702703
 51
253.6486486486
  0
ARC
  5
D8
330
1F
100
AcDbEntity
  8
0
  6
Continuous
 62
     7
370
    25
100
AcDbCircle
 10
2.806289614
 20
1.0809738931
 30
0.0
 40
0.1708250000000094
100
AcDbArc
 50
253.6486486486
 51
270.8918918919
  0
LINE
  5
D9
330
1F
100
AcDbEntity
  8
0
  6
Continuous
 62
     7
370
    25
100
AcDbLine
 10
2.8286961287
 20
0.9104770124
 30
0.0
 11
2.8089486455
 21
0.9101695894
 31
0.0
  0
ARC
  5
DA
330
1F
100
AcDbEntity
  8
0
  6
Continuous
 62
     7
370
    25
100
AcDbCircle
 10
2.8303045689
 20
0.8071579981
 30
0.0
 40
0.1033315334590444
100
AcDbArc
 50
60.0678220026
 51
90.8918918919
  0
ARC
  5
DB
330
1F
100
AcDbEntity
  8
0
  6
Continuous
 62
     7
370
    25
100
AcDbCircle
 10
0.0
 20
0.0
 30
0.0
 40
3.018149331363402
100
AcDbArc
 50
16.7702572206
 51
17.2837968334
  0
ARC
  5
DC
330
1F
100
AcDbEntity
  8
0
  6
Continuous
 62
     7
370
    25
100
AcDbCircle
 10
2.796922773
 20
0.9161610058
 30
0.0
 40
0.1033315334590449
100
AcDbArc
 50
303.1621621622
 51
333.9862320515
  0
LINE
  5
DD
330
1F
100
AcDbEntity
  8
0
  6
Continuous
 62
     7
370
    25
100
AcDbLine
 10
2.8369130781
 20
0.8188561298
 30
0.0
 11
2.8534462077
 21
0.8296595195
 31
0.0
  0
ARC
  5
DE
330
1F
100
AcDbEntity
  8
0
  6
Continuous
 62
     7
370
    25
100
AcDbCircle
 10
2.9303561484
 20
0.6758541254
 30
0.0
 40
0.1708250000000071
100
AcDbArc
 50
123.1621621622
 51
140.4054054054
  0
ARC
  5
DF
330
1F
100
AcDbEntity
  8
0
  6
Continuous
 62
     7
370
    25
100
AcDbCircle
 10
2.8502165174
 20
0.7421386601
 30
0.0
 40
0.0668250000000043
100
AcDbArc
 50
140.4054054054
 51
248.7837837838
  0
ARC
  5
E0
330
1F
100
AcDbEntity
  8
0
  6
Continuous
 62
     7
370
    25
100
AcDbCircle
 10
2.8878529139
 20
0.8390896872
 30
0.0
 40
0.1708250000000092
100
AcDbArc
 50
248.7837837838
 51
266.027027027
  0
LINE
  5
E1
330
1F
100
AcDbEntity
  8
0
  6
Continuous
 62
     7
370
    25
100
AcDbLine
 10
2.8957195633
 20
0.6673068183
 30
0.0
 11
2.8760171492
 21
0.6686752063
 31
0.0
  0
ARC
  5
E2
330
1F
100
AcDbEntity
  8
0
  6
Continuous
 62
     7
370
    25
100
AcDbCircle
 10
2.8885601445
 20
0.5642236066
 30
0.0
 40
0.1033315334590441
100
AcDbArc
 50
55.2029571377
 51
86.027027027
  0
ARC
  5
E3
330
1F
100
AcDbEntity
  8
0
  6
Continuous
 62
     7
370
    25
100
AcDbCircle
 10
0.0
 20
0.0
 30
0.0
 40
3.018149331363403
100
AcDbArc
 50
11.9053923558
 51
12.4189319686
  0
ARC
  5
E4
330
1F
100
AcDbEntity
  8
0
  6
Continuous
 62
     7
370
    25
100
AcDbCircle
 10
2.8645427077
 20
0.6756649039
 30
0.0
 40
0.1033315334590448
100
AcDbArc
 50
298.2972972973
 51
329.1213671866
  0
LINE
  5
E5
330
1F
100
AcDbEntity
  8
0
  6
Continuous
 62
     7
370
    25
100
AcDbLine
 10
2.8961369174
 20
0.5753191549
 30
0.0
 11
2.9135266776
 21
0.584681518
 31
0.0
  0
ARC
  5
E6
330
1F
100
AcDbEntity
  8
0
  6
Continuous
 62
     7
370
    25
100
AcDbCircle
 10
2.9771159407
 20
0.424907791
 30
0.0
 40
0.1708250000000071
100
AcDbArc
 50
118.2972972973
 51
135.5405405405
  0
ARC
  5
E7
330
1F
100
AcDbEntity
  8
0
  6
Continuous
 62
     7
370
    25
100
AcDbCircle
 10
2.9028863349
 20
0.4977498504
 30
0.0
 40
0.0668250000000044
100
AcDbArc
 50
135.5405405405
 51
243.9189189189
  0
ARC
  5
E8
330
1F
100
AcDbEntity
  8
0
  6
Continuous
 62
     7
370
    25
100
AcDbCircle
 10
2.9486091673
 20
0.5911598209
 30
0.0
 40
0.1708250000000092
100
AcDbArc
 50
243.9189189189
 51
261.1621621622
  0
LINE
  5
E9
330
1F
100
AcDbEntity
  8
0
  6
Continuous
 62
     7
370
    25
100
AcDbLine
 10
2.941879272
 20
0.4193286633
 30
0.0
 11
2.9223638835
 21
0.4223630031
 31
0.0
  0
ARC
  5
EA
330
1F
100
AcDbEntity
  8
0
  6
Continuous
 62
     7
370
    25
100
AcDbCircle
 10
2.9260035781
 20
0.3172239711
 30
0.0
 40
0.1033315334590438
100
AcDbArc
 50
50.3380922728
 51
81.1621621622
  0
ARC
  5
EB
330
1F
100
AcDbEntity
  8
0
  6
Continuous
 62
     7
370
    25
100
AcDbCircle
 10
0.0
 20
0.0
 30
0.0
 40
3.018149331363403
100
AcDbArc
 50
7.0405274909
 51
7.5540671037
  0
ARC
  5
EC
330
1F
100
AcDbEntity
  8
0
  6
Continuous
 62
     7
370
    25
100
AcDbCircle
 10
2.9115235466
 20
0.4303006208
 30
0.0
 40
0.1033315334590442
100
AcDbArc
 50
293.4324324324
 51
324.2565023218
  0
LINE
  5
ED
330
1F
100
AcDbEntity
  8
0
  6
Continuous
 62
     7
370
    25
100
AcDbLine
 10
2.9344940238
 20
0.3276369924
 30
0.0
 11
2.9526151211
 21
0.3354908728
 31
0.0
  0
ARC
  5
EE
330
1F
100
AcDbEntity
  8
0
  6
Continuous
 62
     7
370
    25
100
AcDbCircle
 10
3.0024255445
 20
0.1708999862
 30
0.0
 40
0.1708250000000076
100
AcDbArc
 50
113.4324324324
 51
130.6756756757
  0
ARC
  5
EF
330
1F
100
AcDbEntity
  8
0
  6
Continuous
 62
     7
370
    25
100
AcDbCircle
 10
2.9346407898
 20
0.2497747416
 30
0.0
 40
0.0668250000000045
100
AcDbArc
 50
130.6756756757
 51
239.054054054
  0
ARC
  5
F0
330
1F
100
AcDbEntity
  8
0
  6
Continuous
 62
     7
370
    25
100
AcDbCircle
 10
2.9881206241
 20
0.3389706345
 30
0.0
 40
0.170825000000009
100
AcDbArc
 50
239.0540540541
 51
256.2972972973
  0
LINE
  5
F1
330
1F
100
AcDbEntity
  8
0
  6
Continuous
 62
     7
370
    25
100
AcDbLine
 10
2.9668426732
 20
0.1683292356
 30
0.0
 11
2.9476549191
 21
0.1730076647
 31
0.0
  0
ARC
  5
F2
330
1F
100
AcDbEntity
  8
0
  6
Continuous
 62
     7
370
    25
100
AcDbCircle
 10
2.9423650888
 20
0.0679387297
 30
0.0
 40
0.1033315334590437
100
AcDbArc
 50
45.473227408
 51
76.2972972973
  0
ARC
  5
F3
330
1F
100
AcDbEntity
  8
0
  6
Continuous
 62
     7
370
    25
100
AcDbCircle
 10
0.0
 20
0.0
 30
0.0
 40
3.018149331363402
100
AcDbArc
 50
2.175662626
 51
2.6892022388
  0
ARC
  5
F4
330
1F
100
AcDbEntity
  8
0
  6
Continuous
 62
     7
370
    25
100
AcDbCircle
 10
2.9375267916
 20
0.1818360118
 30
0.0
 40
0.1033315334590441
100
AcDbArc
 50
288.5675675676
 51
319.3916374569
  0
LINE
  5
F5
330
1F
100
AcDbEntity
  8
0
  6
Continuous
 62
     7
370
    25
100
AcDbLine
 10
2.9517080334
 20
0.0775941978
 30
0.0
 11
2.9704299049
 21
0.0838830081
 31
0.0
  0
ARC
  5
F6
330
1F
100
AcDbEntity
  8
0
  6
Continuous
 62
     7
370
    25
100
AcDbCircle
 10
3.0061026034
 20
-0.084339157
 30
0.0
 40
0.170825000000007
100
AcDbArc
 50
108.5675675676
 51
125.8108108108
  0
ARC
  5
F7
330
1F
100
AcDbEntity
  8
0
  6
Continuous
 62
     7
370
    25
100
AcDbCircle
 10
2.9452510906
 20
0.0
 30
0.0
 40
0.0668250000000043
100
AcDbArc
 50
125.8108108108
 51
234.1891891892
  0
ARC
  5
F8
330
1F
100
AcDbEntity
  8
0
  6
Continuous
 62
     7
370
    25
100
AcDbCircle
 10
3.0061026034
 20
0.084339157
 30
0.0
 40
0.1708250000000092
100
AcDbArc
 50
234.1891891892
 51
251.4324324324
  0
LINE
  5
F9
330
1F
100
AcDbEntity
  8
0
  6
Continuous
 62
     7
370
    25
100
AcDbLine
 10
2.9704299049
 20
-0.0838830081
 30
0.0
 11
2.9517080334
 21
-0.0775941978
 31
0.0
  0
ARC
  5
FA
330
1F
100
AcDbEntity
  8
0
  6
Continuous
 62
     7
370
    25
100
AcDbCircle
 10
2.9375267916
 20
-0.1818360118
 30
0.0
 40
0.1033315334590437
100
AcDbArc
 50
40.6083625431
 51
71.4324324324
  0
ARC
  5
FB
330
1F
100
AcDbEntity
  8
0
  6
Continuous
 62
     7
370
    25
100
AcDbCircle
 10
0.0
 20
0.0
 30
0.0
 40
3.018149331363403
100
AcDbArc
 50
357.3107977612
 51
357.824337374
  0
ARC
  5
FC
330
1F
100
AcDbEntity
  8
0
  6
Continuous
 62
     7
370
    25
100
AcDbCircle
 10
2.9423650888
 20
-0.0679387297
 30
0.0
 40
0.1033315334590442
100
AcDbArc
 50
283.7027027027
 51
314.526772592
  0
LINE
  5
FD
330
1F
100
AcDbEntity
  8
0
  6
Continuous
 62
     7
370
    25
100
AcDbLine
 10
2.9476549191
 20
-0.1730076647
 30
0.0
 11
2.9668426732
 21
-0.1683292356
 31
0.0
  0
ARC
  5
FE
330
1F
100
AcDbEntity
  8
0
  6
Continuous
 62
     7
370
    25
100
AcDbCircle
 10
2.9881206241
 20
-0.3389706345
 30
0.0
 40
0.1708250000000071
100
AcDbArc
 50
103.7027027027
 51
120.9459459459
  0
ARC
  5
FF
330
1F
100
AcDbEntity
  8
0
  6
Continuous
 62
     7
370
    25
100
AcDbCircle
 10
2.9346407898
 20
-0.2497747416
 30
0.0
 40
0.0668250000000042
100
AcDbArc
 50
120.9459459459
 51
229.3243243243
  0
ARC
  5
100
330
1F
100
AcDbEntity
  8
0
  6
Continuous
 62
     7
370
    25
100
AcDbCircle
 10
3.0024255445
 20
-0.1708999862
 30
0.0
 40
0.1708250000000092
100
AcDbArc
 50
229.3243243243
 51
246.5675675676
  0
LINE
  5
101
330
1F
100
AcDbEntity
  8
0
  6
Continuous
 62
     7
370
    25
100
AcDbLine
 10
2.9526151211
 20
-0.3354908728
 30
0.0
 11
2.9344940238
 21
-0.3276369924
 31
0.0
  0
ARC
  5
102
330
1F
100
AcDbEntity
  8
0
  6
Continuous
 62
     7
370
    25
100
AcDbCircle
 10
2.9115235466
 20
-0.4303006208
 30
0.0
 40
0.103331533459044
100
AcDbArc
 50
35.7434976782
 51
66.5675675676
  0
ARC
  5
103
330
1F
100
AcDbEntity
  8
0
  6
Continuous
 62
     7
370
    25
100
AcDbCircle
 10
0.0
 20
0.0
 30
0.0
 40
3.018149331363403
100
AcDbArc
 50
352.4459328963
 51
352.9594725091
  0
ARC
  5
104
330
1F
100
AcDbEntity
  8
0
  6
Continuous
 62
     7
370
    25
100
AcDbCircle
 10
2.9260035781
 20
-0.3172239711
 30
0.0
 40
0.1033315334590442
100
AcDbArc
 50
278.8378378378
 51
309.6619077272
  0
LINE
  5
105
330
1F
100
AcDbEntity
  8
0
  6
Continuous
 62
     7
370
    25
100
AcDbLine
 10
2.9223638835
 20
-0.4223630031
 30
0.0
 11
2.941879272
 21
-0.4193286633
 31
0.0
  0
ARC
  5
106
330
1F
100
AcDbEntity
  8
0
  6
Continuous
 62
     7
370
    25
100
AcDbCircle
 10
2.9486091673
 20
-0.5911598209
 30
0.0
 40
0.1708250000000071
100
AcDbArc
 50
98.8378378378
 51
116.0810810811
  0
ARC
  5
107
330
1F
100
AcDbEntity
  8
0
  6
Continuous
 62
     7
370
    25
100
AcDbCircle
 10
2.9028863349
 20
-0.4977498504
 30
0.0
 40
0.0668250000000041
100
AcDbArc
 50
116.0810810811
 51
224.4594594594
  0
ARC
  5
108
330
1F
100
AcDbEntity
  8
0
  6
Continuous
 62
     7
370
    25
100
AcDbCircle
 10
2.9771159407
 20
-0.424907791
 30
0.0
 40
0.1708250000000089
100
AcDbArc
 50
224.4594594595
 51
241.7027027027
  0
LINE
  5
109
330
1F
100
AcDbEntity
  8
0
  6
Continuous
 62
     7
370
    25
100
AcDbLine
 10
2.9135266776
 20
-0.584681518
 30
0.0
 11
2.8961369174
 21
-0.5753191549
 31
0.0
  0
ARC
  5
10A
330
1F
100
AcDbEntity
  8
0
  6
Continuous
 62
     7
370
    25
100
AcDbCircle
 10
2.8645427077
 20
-0.6756649039
 30
0.0
 40
0.103331533459044
100
AcDbArc
 50
30.8786328134
 51
61.7027027027
  0
ARC
  5
10B
330
1F
100
AcDbEntity
  8
0
  6
Continuous
 62
     7
370
    25
100
AcDbCircle
 10
0.0
 20
0.0
 30
0.0
 40
3.018149331363402
100
AcDbArc
 50
347.5810680314
 51
348.0946076442
  0
ARC
  5
10C
330
1F
100
AcDbEntity
  8
0
  6
Continuous
 62
     7
370
    25
100
AcDbCircle
 10
2.8885601445
 20
-0.5642236066
 30
0.0
 40
0.1033315334590443
100
AcDbArc
 50
273.972972973
 51
304.7970428623
  0
LINE
  5
10D
330
1F
100
AcDbEntity
  8
0
  6
Continuous
 62
     7
370
    25
100
AcDbLine
 10
2.8760171492
 20
-0.6686752063
 30
0.0
 11
2.8957195633
 21
-0.6673068183
 31
0.0
  0
ARC
  5
10E
330
1F
100
AcDbEntity
  8
0
  6
Continuous
 62
     7
370
    25
100
AcDbCircle
 10
2.8878529139
 20
-0.8390896872
 30
0.0
 40
0.170825000000007
100
AcDbArc
 50
93.972972973
 51
111.2162162162
  0
ARC
  5
10F
330
1F
100
AcDbEntity
  8
0
  6
Continuous
 62
     7
370
    25
100
AcDbCircle
 10
2.8502165174
 20
-0.7421386601
 30
0.0
 40
0.0668250000000042
100
AcDbArc
 50
111.2162162162
 51
219.5945945946
  0
ARC
  5
110
330
1F
100
AcDbEntity
  8
0
  6
Continuous
 62
     7
370
    25
100
AcDbCircle
 10
2.9303561484
 20
-0.6758541254
 30
0.0
 40
0.1708250000000092
100
AcDbArc
 50
219.5945945946
 51
236.8378378378
  0
LINE
  5
111
330
1F
100
AcDbEntity
  8
0
  6
Continuous
 62
     7
370
    25
100
AcDbLine
 10
2.8534462077
 20
-0.8296595195
 30
0.0
 11
2.8369130781
 21
-0.8188561298
 31
0.0
  0
ARC
  5
112
330
1F
100
AcDbEntity
  8
0
  6
Continuous
 62
     7
370
    25
100
AcDbCircle
 10
2.796922773
 20
-0.9161610058
 30
0.0
 40
0.1033315334590442
100
AcDbArc
 50
26.0137679485
 51
56.8378378378
  0
ARC
  5
113
330
1F
100
AcDbEntity
  8
0
  6
Continuous
 62
     7
370
    25
100
AcDbCircle
 10
0.0
 20
0.0
 30
0.0
 40
3.018149331363402
100
AcDbArc
 50
342.7162031666
 51
343.2297427794
  0
ARC
  5
114
330
1F
100
AcDbEntity
  8
0
  6
Continuous
 62
     7
370
    25
100
AcDbCircle
 10
2.8303045689
 20
-0.8071579981
 30
0.0
 40
0.1033315334590443
100
AcDbArc
 50
269.1081081081
 51
299.9321779974
  0
LINE
  5
115
330
1F
100
AcDbEntity
  8
0
  6
Continuous
 62
     7
370
    25
100
AcDbLine
 10
2.8089486455
 20
-0.9101695894
 30
0.0
 11
2.8286961287
 21
-0.9104770124
 31
0.0
  0
ARC
  5
116
330
1F
100
AcDbEntity
  8
0
  6
Continuous
 62
     7
370
    25
100
AcDbCircle
 10
2.806289614
 20
-1.0809738931
 30
0.0
 40
0.1708250000000072
100
AcDbArc
 50
89.1081081081
 51
106.3513513514
  0
ARC
  5
117
330
1F
100
AcDbEntity
  8
0
  6
Continuous
 62
     7
370
    25
100
AcDbCircle
 10
2.7770108246
 20
-0.9811803438
 30
0.0
 40
0.0668250000000042
100
AcDbArc
 50
106.3513513513
 51
214.7297297297
  0
ARC
  5
118
330
1F
100
AcDbEntity
  8
0
  6
Continuous
 62
     7
370
    25
100
AcDbCircle
 10
2.8624830729
 20
-0.9219309154
 30
0.0
 40
0.1708250000000094
100
AcDbArc
 50
214.7297297297
 51
231.972972973
  0
LINE
  5
119
330
1F
100
AcDbEntity
  8
0
  6
Continuous
 62
     7
370
    25
100
AcDbLine
 10
2.7728065925
 20
-1.0686598052
 30
0.0
 11
2.7572492152
 21
-1.0564932274
 31
0.0
  0
ARC
  5
11A
330
1F
100
AcDbEntity
  8
0
  6
Continuous
 62
     7
370
    25
100
AcDbCircle
 10
2.7091509456
 20
-1.1500561468
 30
0.0
 40
0.1033315334590433
100
AcDbArc
 50
21.1489030837
 51
51.972972973
  0
ARC
  5
11B
330
1F
100
AcDbEntity
  8
0
  6
Continuous
 62
     7
370
    25
100
AcDbCircle
 10
0.0
 20
0.0
 30
0.0
 40
3.018149331363402
100
AcDbArc
 50
337.8513383017
 51
338.3648779145
  0
ARC
  5
11C
330
1F
100
AcDbEntity
  8
0
  6
Continuous
 62
     7
370
    25
100
AcDbCircle
 10
2.7516565841
 20
-1.0442767976
 30
0.0
 40
0.1033315334590441
100
AcDbArc
 50
264.2432432432
 51
295.0673131326
  0
LINE
  5
11D
330
1F
100
AcDbEntity
  8
0
  6
Continuous
 62
     7
370
    25
100
AcDbLine
 10
2.7216416023
 20
-1.1451061797
 30
0.0
 11
2.7412918738
 21
-1.1470871988
 31
0.0
  0
ARC
  5
11E
330
1F
100
AcDbEntity
  8
0
  6
Continuous
 62
     7
370
    25
100
AcDbCircle
 10
2.7045069332
 20
-1.3150696573
 30
0.0
 40
0.1708250000000068
100
AcDbArc
 50
84.2432432432
 51
101.4864864865
  0
ARC
  5
11F
330
1F
100
AcDbEntity
  8
0
  6
Continuous
 62
     7
370
    25
100
AcDbCircle
 10
2.6837967051
 20
-1.2131526006
 30
0.0
 40
0.0668250000000044
100
AcDbArc
 50
101.4864864865
 51
209.8648648648
  0
ARC
  5
120
330
1F
100
AcDbEntity
  8
0
  6
Continuous
 62
     7
370
    25
100
AcDbCircle
 10
2.7739857412
 20
-1.161365172
 30
0.0
 40
0.1708250000000089
100
AcDbArc
 50
209.8648648649
 51
227.1081081081
  0
LINE
  5
121
330
1F
100
AcDbEntity
  8
0
  6
Continuous
 62
     7
370
    25
100
AcDbLine
 10
2.6721888423
 20
-1.2999603725
 30
0.0
 11
2.6577193084
 21
-1.2865182672
 31
0.0
  0
ARC
  5
122
330
1F
100
AcDbEntity
  8
0
  6
Continuous
 62
     7
370
    25
100
AcDbCircle
 10
2.6018596235
 20
-1.3756651068
 30
0.0
 40
0.1033315334590439
100
AcDbArc
 50
16.2840382188
 51
47.1081081081
  0
ARC
  5
123
330
1F
100
AcDbEntity
  8
0
  6
Continuous
 62
     7
370
    25
100
AcDbCircle
 10
0.0
 20
0.0
 30
0.0
 40
3.0181493313634
100
AcDbArc
 50
332.9864734368
 51
333.5000130496
  0
ARC
  5
124
330
1F
100
AcDbEntity
  8
0
  6
Continuous
 62
     7
370
    25
100
AcDbCircle
 10
2.6531828505
 20
-1.273871559
 30
0.0
 40
0.1033315334590441
100
AcDbArc
 50
259.3783783784
 51
290.2024482677
  0
LINE
  5
125
330
1F
100
AcDbEntity
  8
0
  6
Continuous
 62
     7
370
    25
100
AcDbLine
 10
2.6147250691
 20
-1.3717922537
 30
0.0
 11
2.634136548
 21
-1.3754325956
 31
0.0
  0
ARC
  5
126
330
1F
100
AcDbEntity
  8
0
  6
Continuous
 62
     7
370
    25
100
AcDbCircle
 10
2.5832382179
 20
-1.5396903146
 30
0.0
 40
0.1708250000000069
100
AcDbArc
 50
79.3783783784
 51
96.6216216216
  0
ARC
  5
127
330
1F
100
AcDbEntity
  8
0
  6
Continuous
 62
     7
370
    25
100
AcDbCircle
 10
2.5712457689
 20
-1.4363840651
 30
0.0
 40
0.0668250000000044
100
AcDbArc
 50
96.6216216216
 51
205.0
  0
ARC
  5
128
330
1F
100
AcDbEntity
  8
0
  6
Continuous
 62
     7
370
    25
100
AcDbCircle
 10
2.6655017788
 20
-1.3924317659
 30
0.0
 40
0.1708250000000094
100
AcDbArc
 50
205.0
 51
222.2432432432
  0
LINE
  5
129
330
1F
100
AcDbEntity
  8
0
  6
Continuous
 62
     7
370
    25
100
AcDbLine
 10
2.5523179102
 20
-1.5218946955
 30
0.0
 11
2.5390404732
 21
-1.5072739133
 31
0.0
  0
ARC
  5
12A
330
1F
100
AcDbEntity
  8
0
  6
Continuous
 62
     7
370
    25
100
AcDbCircle
 10
2.4758218433
 20
-1.5913623682
 30
0.0
 40
0.1033315334590437
100
AcDbArc
 50
11.4191733539
 51
42.2432432432
  0
ARC
  5
12B
330
1F
100
AcDbEntity
  8
0
  6
Continuous
 62
     7
370
    25
100
AcDbCircle
 10
0.0
 20
0.0
 30
0.0
 40
3.018149331363402
100
AcDbArc
 50
328.121608572
 51
328.6351481848
  0
ARC
  5
12C
330
1F
100
AcDbEntity
  8
0
  6
Continuous
 62
     7
370
    25
100
AcDbCircle
 10
2.5355928736
 20
-1.4942880465
 30
0.0
 40
0.1033315334590441
100
AcDbArc
 50
254.5135135135
 51
285.3375834028
  0
LINE
  5
12D
330
1F
100
AcDbEntity
  8
0
  6
Continuous
 62
     7
370
    25
100
AcDbLine
 10
2.4889693818
 20
-1.5885945331
 30
0.0
 11
2.5080022081
 21
-1.5938679691
 31
0.0
  0
ARC
  5
12E
330
1F
100
AcDbEntity
  8
0
  6
Continuous
 62
     7
370
    25
100
AcDbCircle
 10
2.4433572121
 20
-1.7532174678
 30
0.0
 40
0.170825000000007
100
AcDbArc
 50
74.5135135135
 51
91.7567567568
  0
ARC
  5
12F
330
1F
100
AcDbEntity
  8
0
  6
Continuous
 62
     7
370
    25
100
AcDbCircle
 10
2.440168948
 20
-1.6492663496
 30
0.0
 40
0.0668250000000043
100
AcDbArc
 50
91.7567567568
 51
200.1351351351
  0
ARC
  5
130
330
1F
100
AcDbEntity
  8
0
  6
Continuous
 62
     7
370
    25
100
AcDbCircle
 10
2.5378128149
 20
-1.6134658571
 30
0.0
 40
0.1708250000000092
100
AcDbArc
 50
200.1351351351
 51
217.3783783784
  0
LINE
  5
131
330
1F
100
AcDbEntity
  8
0
  6
Continuous
 62
     7
370
    25
100
AcDbLine
 10
2.4140574691
 20
-1.7328637323
 30
0.0
 11
2.4020677931
 21
-1.7171696164
 31
0.0
  0
ARC
  5
132
330
1F
100
AcDbEntity
  8
0
  6
Continuous
 62
     7
370
    25
100
AcDbCircle
 10
2.3319457099
 20
-1.7955938273
 30
0.0
 40
0.1033315334590438
100
AcDbArc
 50
6.5543084891
 51
37.3783783784
  0
ARC
  5
133
330
1F
100
AcDbEntity
  8
0
  6
Continuous
 62
     7
370
    25
100
AcDbCircle
 10
0.0
 20
0.0
 30
0.0
 40
3.018149331363403
100
AcDbArc
 50
323.2567437071
 51
323.7702833199
  0
ARC
  5
134
330
1F
100
AcDbEntity
  8
0
  6
Continuous
 62
     7
370
    25
100
AcDbCircle
 10
2.399733892
 20
-1.7039381544
 30
0.0
 40
0.103331533459044
100
AcDbArc
 50
249.6486486486
 51
280.472718538
  0
LINE
  5
135
330
1F
100
AcDbEntity
  8
0
  6
Continuous
 62
     7
370
    25
100
AcDbLine
 10
2.3452806131
 20
-1.7939509526
 30
0.0
 11
2.3637976548
 21
-1.8008194873
 31
0.0
  0
ARC
  5
136
330
1F
100
AcDbEntity
  8
0
  6
Continuous
 62
     7
370
    25
100
AcDbCircle
 10
2.2858717616
 20
-1.954112649
 30
0.0
 40
0.1708250000000069
100
AcDbArc
 50
69.6486486486
 51
86.8918918919
  0
ARC
  5
137
330
1F
100
AcDbEntity
  8
0
  6
Continuous
 62
     7
370
    25
100
AcDbCircle
 10
2.2915106539
 20
-1.8502656322
 30
0.0
 40
0.0668250000000041
100
AcDbArc
 50
86.8918918919
 51
195.2702702703
  0
ARC
  5
138
330
1F
100
AcDbEntity
  8
0
  6
Continuous
 62
     7
370
    25
100
AcDbCircle
 10
2.3918388515
 20
-1.8228748898
 30
0.0
 40
0.1708250000000092
100
AcDbArc
 50
195.2702702703
 51
212.5135135135
  0
LINE
  5
139
330
1F
100
AcDbEntity
  8
0
  6
Continuous
 62
     7
370
    25
100
AcDbLine
 10
2.2584036886
 20
-1.9313474463
 30
0.0
 11
2.2477881596
 21
-1.914693073
 31
0.0
  0
ARC
  5
13A
330
1F
100
AcDbEntity
  8
0
  6
Continuous
 62
     7
370
    25
100
AcDbCircle
 10
2.1712678543
 20
-1.9868879917
 30
0.0
 40
0.1033315334590438
100
AcDbArc
 50
1.6894436242
 51
32.5135135135
  0
ARC
  5
13B
330
1F
100
AcDbEntity
  8
0
  6
Continuous
 62
     7
370
    25
100
AcDbCircle
 10
0.0
 20
0.0
 30
0.0
 40
3.018149331363402
100
AcDbArc
 50
318.3918788423
 51
318.905418455
  0
ARC
  5
13C
330
1F
100
AcDbEntity
  8
0
  6
Continuous
 62
     7
370
    25
100
AcDbCircle
 10
2.2465847727
 20
-1.9013113489
 30
0.0
 40
0.1033315334590444
100
AcDbArc
 50
244.7837837838
 51
275.6078536731
  0
LINE
  5
13D
330
1F
100
AcDbEntity
  8
0
  6
Continuous
 62
     7
370
    25
100
AcDbLine
 10
2.1846940438
 20
-1.9863819142
 30
0.0
 11
2.2025618852
 21
-1.9947960599
 31
0.0
  0
ARC
  5
13E
330
1F
100
AcDbEntity
  8
0
  6
Continuous
 62
     7
370
    25
100
AcDbCircle
 10
2.1119165527
 20
-2.1409284037
 30
0.0
 40
0.170825000000007
100
AcDbArc
 50
64.7837837838
 51
82.027027027
  0
ARC
  5
13F
330
1F
100
AcDbEntity
  8
0
  6
Continuous
 62
     7
370
    25
100
AcDbCircle
 10
2.1263419731
 20
-2.0379337085
 30
0.0
 40
0.0668250000000043
100
AcDbArc
 50
82.027027027
 51
190.4054054054
  0
ARC
  5
140
330
1F
100
AcDbEntity
  8
0
  6
Continuous
 62
     7
370
    25
100
AcDbCircle
 10
2.2286316344
 20
-2.0191500671
 30
0.0
 40
0.1708250000000091
100
AcDbArc
 50
190.4054054054
 51
207.6486486486
  0
LINE
  5
141
330
1F
100
AcDbEntity
  8
0
  6
Continuous
 62
     7
370
    25
100
AcDbLine
 10
2.0864780577
 20
-2.1159157576
 30
0.0
 11
2.0773131608
 21
-2.0984211222
 31
0.0
  0
ARC
  5
142
330
1F
100
AcDbEntity
  8
0
  6
Continuous
 62
     7
370
    25
100
AcDbCircle
 10
1.994945964
 20
-2.1638665826
 30
0.0
 40
0.1033315334590438
100
AcDbArc
 50
356.8245787593
 51
27.6486486486
  0
ARC
  5
143
330
1F
100
AcDbEntity
  8
0
  6
Continuous
 62
     7
370
    25
100
AcDbCircle
 10
0.0
 20
0.0
 30
0.0
 40
3.018149331363401
100
AcDbArc
 50
313.5270139774
 51
314.0405535902
  0
ARC
  5
144
330
1F
100
AcDbEntity
  8
0
  6
Continuous
 62
     7
370
    25
100
AcDbCircle
 10
2.0772489587
 20
-2.0849855516
 30
0.0
 40
0.1033315334590443
100
AcDbArc
 50
239.9189189189
 51
270.7429888082
  0
LINE
  5
145
330
1F
100
AcDbEntity
  8
0
  6
Continuous
 62
     7
370
    25
100
AcDbLine
 10
2.0083667039
 20
-2.1645009487
 30
0.0
 11
2.0254566068
 21
-2.1744000811
 31
0.0
  0
ARC
  5
146
330
1F
100
AcDbEntity
  8
0
  6
Continuous
 62
     7
370
    25
100
AcDbCircle
 10
1.9227449366
 20
-2.3123187203
 30
0.0
 40
0.170825000000007
100
AcDbArc
 50
59.9189189189
 51
77.1621621622
  0
ARC
  5
147
330
1F
100
AcDbEntity
  8
0
  6
Continuous
 62
     7
370
    25
100
AcDbCircle
 10
1.9458529496
 20
-2.2109184257
 30
0.0
 40
0.0668250000000043
100
AcDbArc
 50
77.1621621622
 51
185.5405405405
  0
ARC
  5
148
330
1F
100
AcDbEntity
  8
0
  6
Continuous
 62
     7
370
    25
100
AcDbCircle
 10
2.0493670753
 20
-2.2008772219
 30
0.0
 40
0.1708250000000094
100
AcDbArc
 50
185.5405405405
 51
202.7837837838
  0
LINE
  5
149
330
1F
100
AcDbEntity
  8
0
  6
Continuous
 62
     7
370
    25
100
AcDbLine
 10
1.8995193047
 20
-2.2852388474
 30
0.0
 11
1.8918710732
 21
-2.2670299991
 31
0.0
  0
ARC
  5
14A
330
1F
100
AcDbEntity
  8
0
  6
Continuous
 62
     7
370
    25
100
AcDbCircle
 10
1.8042504423
 20
-2.3252544652
 30
0.0
 40
0.1033315334590437
100
AcDbArc
 50
351.9597138945
 51
22.7837837838
  0
ARC
  5
14B
330
1F
100
AcDbEntity
  8
0
  6
Continuous
 62
     7
370
    25
100
AcDbCircle
 10
0.0
 20
0.0
 30
0.0
 40
3.018149331363401
100
AcDbArc
 50
308.6621491125
 51
309.1756887253
  0
ARC
  5
14C
330
1F
100
AcDbEntity
  8
0
  6
Continuous
 62
     7
370
    25
100
AcDbCircle
 10
1.8929465183
 20
-2.2536373855
 30
0.0
 40
0.1033315334590444
100
AcDbArc
 50
235.0540540541
 51
265.8781239434
  0
LINE
  5
14D
330
1F
100
AcDbEntity
  8
0
  6
Continuous
 62
     7
370
    25
100
AcDbLine
 10
1.8175690358
 20
-2.3270247043
 30
0.0
 11
1.8337578671
 21
-2.3383374999
 31
0.0
  0
ARC
  5
14E
330
1F
100
AcDbEntity
  8
0
  6
Continuous
 62
     7
370
    25
100
AcDbCircle
 10
1.7197198992
 20
-2.4670487275
 30
0.0
 40
0.1708250000000071
100
AcDbArc
 50
55.0540540541
 51
72.2972972973
  0
ARC
  5
14F
330
1F
100
AcDbEntity
  8
0
  6
Continuous
 62
     7
370
    25
100
AcDbCircle
 10
1.751344011
 20
-2.3679734251
 30
0.0
 40
0.0668250000000042
100
AcDbArc
 50
72.2972972973
 51
180.6756756757
  0
ARC
  5
150
330
1F
100
AcDbEntity
  8
0
  6
Continuous
 62
     7
370
    25
100
AcDbCircle
 10
1.8553367795
 20
-2.3667470059
 30
0.0
 40
0.1708250000000092
100
AcDbArc
 50
180.6756756757
 51
197.9189189189
  0
LINE
  5
151
330
1F
100
AcDbEntity
  8
0
  6
Continuous
 62
     7
370
    25
100
AcDbLine
 10
1.6988744715
 20
-2.438096739
 30
0.0
 11
1.6927980111
 21
-2.4193048729
 31
0.0
  0
ARC
  5
152
330
1F
100
AcDbEntity
  8
0
  6
Continuous
 62
     7
370
    25
100
AcDbCircle
 10
1.6005552549
 20
-2.4698888361
 30
0.0
 40
0.103331533459044
100
AcDbArc
 50
347.0948490296
 51
17.9189189189
  0
ARC
  5
153
330
1F
100
AcDbEntity
  8
0
  6
Continuous
 62
     7
370
    25
100
AcDbCircle
 10
0.0
 20
0.0
 30
0.0
 40
3.018149331363402
100
AcDbArc
 50
303.7972842477
 51
304.3108238605
  0
ARC
  5
154
330
1F
100
AcDbEntity
  8
0
  6
Continuous
 62
     7
370
    25
100
AcDbCircle
 10
1.6950053549
 20
-2.4060517105
 30
0.0
 40
0.1033315334590441
100
AcDbArc
 50
230.1891891892
 51
261.0132590785
  0
LINE
  5
155
330
1F
100
AcDbEntity
  8
0
  6
Continuous
 62
     7
370
    25
100
AcDbLine
 10
1.6136757412
 20
-2.4727821935
 30
0.0
 11
1.62884686
 21
-2.4854271435
 31
0.0
  0
ARC
  5
156
330
1F
100
AcDbEntity
  8
0
  6
Continuous
 62
     7
370
    25
100
AcDbCircle
 10
1.5043042405
 20
-2.6040035921
 30
0.0
 40
0.170825000000007
100
AcDbArc
 50
50.1891891892
 51
67.4324324324
  0
ARC
  5
157
330
1F
100
AcDbEntity
  8
0
  6
Continuous
 62
     7
370
    25
100
AcDbCircle
 10
1.5442165987
 20
-2.5079671216
 30
0.0
 40
0.0668250000000039
100
AcDbArc
 50
67.4324324324
 51
175.8108108108
  0
ARC
  5
158
330
1F
100
AcDbEntity
  8
0
  6
Continuous
 62
     7
370
    25
100
AcDbCircle
 10
1.6479387397
 20
-2.5155643235
 30
0.0
 40
0.1708250000000092
100
AcDbArc
 50
175.8108108108
 51
193.0540540541
  0
LINE
  5
159
330
1F
100
AcDbEntity
  8
0
  6
Continuous
 62
     7
370
    25
100
AcDbLine
 10
1.4859892089
 20
-2.5733880877
 30
0.0
 11
1.4815283005
 21
-2.5541485996
 31
0.0
  0
ARC
  5
15A
330
1F
100
AcDbEntity
  8
0
  6
Continuous
 62
     7
370
    25
100
AcDbCircle
 10
1.3853280301
 20
-2.5967276014
 30
0.0
 40
0.1033315334590437
100
AcDbArc
 50
342.2299841647
 51
13.0540540541
  0
ARC
  5
15B
330
1F
100
AcDbEntity
  8
0
  6
Continuous
 62
     7
370
    25
100
AcDbCircle
 10
0.0
 20
0.0
 30
0.0
 40
3.018149331363403
100
AcDbArc
 50
298.9324193828
 51
299.4459589956
  0
ARC
  5
15C
330
1F
100
AcDbEntity
  8
0
  6
Continuous
 62
     7
370
    25
100
AcDbCircle
 10
1.484851639
 20
-2.5411303778
 30
0.0
 40
0.1033315334590447
100
AcDbArc
 50
225.3243243243
 51
256.1483942136
  0
LINE
  5
15D
330
1F
100
AcDbEntity
  8
0
  6
Continuous
 62
     7
370
    25
100
AcDbLine
 10
1.3981558759
 20
-2.6007232303
 30
0.0
 11
1.4121999739
 21
-2.6146092275
 31
0.0
  0
ARC
  5
15E
330
1F
100
AcDbEntity
  8
0
  6
Continuous
 62
     7
370
    25
100
AcDbCircle
 10
1.2780500352
 20
-2.7221965511
 30
0.0
 40
0.1708250000000076
100
AcDbArc
 50
45.3243243243
 51
62.5675675676
  0
ARC
  5
15F
330
1F
100
AcDbEntity
  8
0
  6
Continuous
 62
     7
370
    25
100
AcDbCircle
 10
1.3259630704
 20
-2.6298908575
 30
0.0
 40
0.0668250000000046
100
AcDbArc
 50
62.5675675676
 51
170.9459459459
  0
ARC
  5
160
330
1F
100
AcDbEntity
  8
0
  6
Continuous
 62
     7
370
    25
100
AcDbCircle
 10
1.4286672634
 20
-2.6462569425
 30
0.0
 40
0.1708250000000091
100
AcDbArc
 50
170.9459459459
 51
188.1891891892
  0
LINE
  5
161
330
1F
100
AcDbEntity
  8
0
  6
Continuous
 62
     7
370
    25
100
AcDbLine
 10
1.2623973599
 20
-2.6901381162
 30
0.0
 11
1.2595841446
 21
-2.6705896272
 31
0.0
  0
ARC
  5
162
330
1F
100
AcDbEntity
  8
0
  6
Continuous
 62
     7
370
    25
100
AcDbCircle
 10
1.1601194852
 20
-2.7048568847
 30
0.0
 40
0.1033315334590438
100
AcDbArc
 50
337.3651192999
 51
8.1891891892
  0
ARC
  5
163
330
1F
100
AcDbEntity
  8
0
  6
Continuous
 62
     7
370
    25
100
AcDbCircle
 10
0.0
 20
0.0
 30
0.0
 40
3.018149331363403
100
AcDbArc
 50
294.0675545179
 51
294.5810941307
  0
ARC
  5
164
330
1F
100
AcDbEntity
  8
0
  6
Continuous
 62
     7
370
    25
100
AcDbCircle
 10
1.2639995331
 20
-2.6579001424
 30
0.0
 40
0.103331533459044
100
AcDbArc
 50
220.4594594595
 51
251.2835293488
  0
LINE
  5
165
330
1F
100
AcDbEntity
  8
0
  6
Continuous
 62
     7
370
    25
100
AcDbLine
 10
1.1725622655
 20
-2.7099259967
 30
0.0
 11
1.1853781546
 21
-2.7249529921
 31
0.0
  0
ARC
  5
166
330
1F
100
AcDbEntity
  8
0
  6
Continuous
 62
     7
370
    25
100
AcDbCircle
 10
1.0425874502
 20
-2.8207760216
 30
0.0
 40
0.1708250000000071
100
AcDbArc
 50
40.4594594595
 51
57.7027027027
  0
ARC
  5
167
330
1F
100
AcDbEntity
  8
0
  6
Continuous
 62
     7
370
    25
100
AcDbCircle
 10
1.0981559478
 20
-2.7328661696
 30
0.0
 40
0.0668250000000046
100
AcDbArc
 50
57.7027027027
 51
166.0810810811
  0
ARC
  5
168
330
1F
100
AcDbEntity
  8
0
  6
Continuous
 62
     7
370
    25
100
AcDbCircle
 10
1.1991022068
 20
-2.7578832196
 30
0.0
 40
0.170825000000009
100
AcDbArc
 50
166.0810810811
 51
183.3243243243
  0
LINE
  5
169
330
1F
100
AcDbEntity
  8
0
  6
Continuous
 62
     7
370
    25
100
AcDbLine
 10
1.029709909
 20
-2.787505638
 30
0.0
 11
1.028564656
 21
-2.7677889953
 31
0.0
  0
ARC
  5
16A
330
1F
100
AcDbEntity
  8
0
  6
Continuous
 62
     7
370
    25
100
AcDbCircle
 10
0.9265522527
 20
-2.7934976122
 30
0.0
 40
0.1033315334590438
100
AcDbArc
 50
332.500254435
 51
3.3243243243
  0
ARC
  5
16B
330
1F
100
AcDbEntity
  8
0
  6
Continuous
 62
     7
370
    25
100
AcDbCircle
 10
0.0
 20
0.0
 30
0.0
 40
3.018149331363403
100
AcDbArc
 50
289.2026896531
 51
289.7162292659
  0
ARC
  5
16C
330
1F
100
AcDbEntity
  8
0
  6
Continuous
 62
     7
370
    25
100
AcDbCircle
 10
1.0340402815
 20
-2.7555196756
 30
0.0
 40
0.1033315334590439
100
AcDbArc
 50
215.5945945946
 51
246.4186644839
  0
LINE
  5
16D
330
1F
100
AcDbEntity
  8
0
  6
Continuous
 62
     7
370
    25
100
AcDbLine
 10
0.9385203171
 20
-2.7996036842
 30
0.0
 11
0.9500156586
 21
-2.815663408
 31
0.0
  0
ARC
  5
16E
330
1F
100
AcDbEntity
  8
0
  6
Continuous
 62
     7
370
    25
100
AcDbCircle
 10
0.7996129987
 20
-2.8990317362
 30
0.0
 40
0.170825000000007
100
AcDbArc
 50
35.5945945946
 51
52.8378378378
  0
ARC
  5
16F
330
1F
100
AcDbEntity
  8
0
  6
Continuous
 62
     7
370
    25
100
AcDbCircle
 10
0.8624365865
 20
-2.8161511183
 30
0.0
 40
0.066825000000004
100
AcDbArc
 50
52.8378378378
 51
161.2162162162
  0
ARC
  5
170
330
1F
100
AcDbEntity
  8
0
  6
Continuous
 62
     7
370
    25
100
AcDbCircle
 10
0.9608975914
 20
-2.8496388849
 30
0.0
 40
0.1708250000000091
100
AcDbArc
 50
161.2162162162
 51
178.4594594595
  0
LINE
  5
171
330
1F
100
AcDbEntity
  8
0
  6
Continuous
 62
     7
370
    25
100
AcDbLine
 10
0.7896033747
 20
-2.8647891178
 30
0.0
 11
0.7901343356
 21
-2.8450463803
 31
0.0
  0
ARC
  5
172
330
1F
100
AcDbEntity
  8
0
  6
Continuous
 62
     7
370
    25
100
AcDbCircle
 10
0.6863091901
 20
-2.8620111255
 30
0.0
 40
0.1033315334590439
100
AcDbArc
 50
327.6353895701
 51
358.4594594595
  0
ARC
  5
173
330
1F
100
AcDbEntity
  8
0
  6
Continuous
 62
     7
370
    25
100
AcDbCircle
 10
0.0
 20
0.0
 30
0.0
 40
3.0181493313634
100
AcDbArc
 50
284.3378247882
 51
284.851364401
  0
ARC
  5
174
330
1F
100
AcDbEntity
  8
0
  6
Continuous
 62
     7
370
    25
100
AcDbCircle
 10
0.7966307461
 20
-2.8332856265
 30
0.0
 40
0.103331533459044
100
AcDbArc
 50
210.7297297297
 51
241.553799619
  0
LINE
  5
175
330
1F
100
AcDbEntity
  8
0
  6
Continuous
 62
     7
370
    25
100
AcDbLine
 10
0.6977163083
 20
-2.869110163
 30
0.0
 11
0.7078082779
 21
-2.8860869045
 31
0.0
  0
ARC
  5
176
330
1F
100
AcDbEntity
  8
0
  6
Continuous
 62
     7
370
    25
100
AcDbCircle
 10
0.5508773173
 20
-2.9563998607
 30
0.0
 40
0.1708250000000069
100
AcDbArc
 50
30.7297297297
 51
47.972972973
  0
ARC
  5
177
330
1F
100
AcDbEntity
  8
0
  6
Continuous
 62
     7
370
    25
100
AcDbCircle
 10
0.6205033497
 20
-2.8791456336
 30
0.0
 40
0.0668250000000044
100
AcDbArc
 50
47.972972973
 51
156.3513513513
  0
ARC
  5
178
330
1F
100
AcDbEntity
  8
0
  6
Continuous
 62
     7
370
    25
100
AcDbCircle
 10
0.7157696867
 20
-2.9208628367
 30
0.0
 40
0.1708250000000089
100
AcDbArc
 50
156.3513513514
 51
173.5945945946
  0
LINE
  5
179
330
1F
100
AcDbEntity
  8
0
  6
Continuous
 62
     7
370
    25
100
AcDbLine
 10
0.5438077299
 20
-2.9214317263
 30
0.0
 11
0.5460110791
 21
-2.9018051409
 31
0.0
  0
ARC
  5
17A
330
1F
100
AcDbEntity
  8
0
  6
Continuous
 62
     7
370
    25
100
AcDbCircle
 10
0.441121254
 20
-2.9099037829
 30
0.0
 40
0.1033315334590438
100
AcDbArc
 50
322.7705247053
 51
353.5945945946
  0
ARC
  5
17B
330
1F
100
AcDbEntity
  8
0
  6
Continuous
 62
     7
370
    25
100
AcDbCircle
 10
0.0
 20
0.0
 30
0.0
 40
3.018149331363401
100
AcDbArc
 50
279.4729599233
 51
279.9864995361
  0
ARC
  5
17C
330
1F
100
AcDbEntity
  8
0
  6
Continuous
 62
     7
370
    25
100
AcDbCircle
 10
0.5534814678
 20
-2.8906376894
 30
0.0
 40
0.1033315334590444
100
AcDbArc
 50
205.8648648649
 51
236.6889347542
  0
LINE
  5
17D
330
1F
100
AcDbEntity
  8
0
  6
Continuous
 62
     7
370
    25
100
AcDbLine
 10
0.4518852375
 20
-2.9179446373
 30
0.0
 11
0.4605011225
 21
-2.9357160787
 31
0.0
  0
ARC
  5
17E
330
1F
100
AcDbEntity
  8
0
  6
Continuous
 62
     7
370
    25
100
AcDbCircle
 10
0.2981725521
 20
-2.9924670565
 30
0.0
 40
0.1708250000000071
100
AcDbArc
 50
25.8648648649
 51
43.1081081081
  0
ARC
  5
17F
330
1F
100
AcDbEntity
  8
0
  6
Continuous
 62
     7
370
    25
100
AcDbCircle
 10
0.3740993721
 20
-2.9213958387
 30
0.0
 40
0.0668250000000045
100
AcDbArc
 50
43.1081081081
 51
151.4864864865
  0
ARC
  5
180
330
1F
100
AcDbEntity
  8
0
  6
Continuous
 62
     7
370
    25
100
AcDbCircle
 10
0.4654846451
 20
-2.9710419049
 30
0.0
 40
0.1708250000000092
100
AcDbArc
 50
151.4864864865
 51
168.7297297297
  0
LINE
  5
181
330
1F
100
AcDbEntity
  8
0
  6
Continuous
 62
     7
370
    25
100
AcDbLine
 10
0.294093938
 20
-2.9570253524
 30
0.0
 11
0.2979538003
 21
-2.937656329
 31
0.0
  0
ARC
  5
182
330
1F
100
AcDbEntity
  8
0
  6
Continuous
 62
     7
370
    25
100
AcDbCircle
 10
0.1927550292
 20
-2.936830517
 30
0.0
 40
0.1033315334590437
100
AcDbArc
 50
317.9056598404
 51
348.7297297297
  0
ARC
  5
183
330
1F
100
AcDbEntity
  8
0
  6
Continuous
 62
     7
370
    25
100
AcDbCircle
 10
0.0
 20
0.0
 30
0.0
 40
3.0181493313634
100
AcDbArc
 50
274.6080950585
 51
275.1216346713
  0
ARC
  5
184
330
1F
100
AcDbEntity
  8
0
  6
Continuous
 62
     7
370
    25
100
AcDbCircle
 10
0.3063443429
 20
-2.9271626416
 30
0.0
 40
0.103331533459044
100
AcDbArc
 50
201.0
 51
231.8240698893
  0
LINE
  5
185
330
1F
100
AcDbEntity
  8
0
  6
Continuous
 62
     7
370
    25
100
AcDbLine
 10
0.2027983232
 20
-2.9457552536
 30
0.0
 11
0.2098760458
 21
-2.9641933514
 31
0.0
  0
ARC
  5
186
330
1F
100
AcDbEntity
  8
0
  6
Continuous
 62
     7
370
    25
100
AcDbCircle
 10
0.0433194469
 20
-3.0069734586
 30
0.0
 40
0.1708250000000071
100
AcDbArc
 50
21.0
 51
38.2432432432
  0
ARC
  5
187
330
1F
100
AcDbEntity
  8
0
  6
Continuous
 62
     7
370
    25
100
AcDbCircle
 10
0.125
 20
-2.9425973198
 30
0.0
 40
0.0668250000000044
100
AcDbArc
 50
38.2432432432
 51
146.6216216216
  0
ARC
  5
188
330
1F
100
AcDbEntity
  8
0
  6
Continuous
 62
     7
370
    25
100
AcDbCircle
 10
0.2118457759
 20
-2.999814548
 30
0.0
 40
0.1708250000000091
100
AcDbArc
 50
146.6216216216
 51
163.8648648649
  0
LINE
  5
189
330
1F
100
AcDbEntity
  8
0
  6
Continuous
 62
     7
370
    25
100
AcDbLine
 10
0.0422611925
 20
-2.9713135429
 30
0.0
 11
0.0477497576
 21
-2.9523416359
 31
0.0
  0
ARC
  5
18A
330
1F
100
AcDbEntity
  8
0
  6
Continuous
 62
     7
370
    25
100
AcDbCircle
 10
-0.057
 20
-2.9425973198
 30
0.0
 40
0.1033315334590438
100
AcDbArc
 50
313.0407949755
 51
343.8648648649
  0
ARC
  5
18B
330
1F
100
AcDbEntity
  8
0
  6
Continuous
 62
     7
370
    25
100
AcDbCircle
 10
0.0
 20
0.0
 30
0.0
 40
3.018149331363401
100
AcDbArc
 50
269.7432301936
 51
270.2567698064
  0
ARC
  5
18C
330
1F
100
AcDbEntity
  8
0
  6
Continuous
 62
     7
370
    25
100
AcDbCircle
 10
0.057
 20
-2.9425973198
 30
0.0
 40
0.103331533459044
100
AcDbArc
 50
196.1351351351
 51
226.9592050245
  0
LINE
  5
18D
330
1F
100
AcDbEntity
  8
0
  6
Continuous
 62
     7
370
    25
100
AcDbLine
 10
-0.0477497576
 20
-2.9523416359
 30
0.0
 11
-0.0422611925
 21
-2.9713135429
 31
0.0
  0
ARC
  5
18E
330
1F
100
AcDbEntity
  8
0
  6
Continuous
 62
     7
370
    25
100
AcDbCircle
 10
-0.2118457759
 20
-2.999814548
 30
0.0
 40
0.1708250000000069
100
AcDbArc
 50
16.1351351351
 51
33.3783783784
  0
ARC
  5
18F
330
1F
100
AcDbEntity
  8
0
  6
Continuous
 62
     7
370
    25
100
AcDbCircle
 10
-0.125
 20
-2.9425973198
 30
0.0
 40
0.066825000000004
100
AcDbArc
 50
33.3783783784
 51
141.7567567567
  0
ARC
  5
190
330
1F
100
AcDbEntity
  8
0
  6
Continuous
 62
     7
370
    25
100
AcDbCircle
 10
-0.0433194469
 20
-3.0069734586
 30
0.0
 40
0.170825000000009
100
AcDbArc
 50
141.7567567568
 51
159.0
  0
LINE
  5
191
330
1F
100
AcDbEntity
  8
0
  6
Continuous
 62
     7
370
    25
100
AcDbLine
 10
-0.2098760458
 20
-2.9641933514
 30
0.0
 11
-0.2027983232
 21
-2.9457552536
 31
0.0
  0
ARC
  5
192
330
1F
100
AcDbEntity
  8
0
  6
Continuous
 62
     7
370
    25
100
AcDbCircle
 10
-0.3063443429
 20
-2.9271626416
 30
0.0
 40
0.1033315334590435
100
AcDbArc
 50
308.1759301107
 51
339.0
  0
ARC
  5
193
330
1F
100
AcDbEntity
  8
0
  6
Continuous
 62
     7
370
    25
100
AcDbCircle
 10
0.0
 20
0.0
 30
0.0
 40
3.018149331363402
100
AcDbArc
 50
264.8783653287
 51
265.3919049415
  0
ARC
  5
194
330
1F
100
AcDbEntity
  8
0
  6
Continuous
 62
     7
370
    25
100
AcDbCircle
 10
-0.1927550292
 20
-2.936830517
 30
0.0
 40
0.1033315334590442
100
AcDbArc
 50
191.2702702703
 51
222.0943401596
  0
LINE
  5
195
330
1F
100
AcDbEntity
  8
0
  6
Continuous
 62
     7
370
    25
100
AcDbLine
 10
-0.2979538003
 20
-2.937656329
 30
0.0
 11
-0.294093938
 21
-2.9570253524
 31
0.0
  0
ARC
  5
196
330
1F
100
AcDbEntity
  8
0
  6
Continuous
 62
     7
370
    25
100
AcDbCircle
 10
-0.4654846451
 20
-2.9710419049
 30
0.0
 40
0.1708250000000071
100
AcDbArc
 50
11.2702702703
 51
28.5135135135
  0
ARC
  5
197
330
1F
100
AcDbEntity
  8
0
  6
Continuous
 62
     7
370
    25
100
AcDbCircle
 10
-0.3740993721
 20
-2.9213958387
 30
0.0
 40
0.0668250000000046
100
AcDbArc
 50
28.5135135135
 51
136.8918918919
  0
ARC
  5
198
330
1F
100
AcDbEntity
  8
0
  6
Continuous
 62
     7
370
    25
100
AcDbCircle
 10
-0.2981725521
 20
-2.9924670565
 30
0.0
 40
0.1708250000000089
100
AcDbArc
 50
136.8918918919
 51
154.1351351351
  0
LINE
  5
199
330
1F
100
AcDbEntity
  8
0
  6
Continuous
 62
     7
370
    25
100
AcDbLine
 10
-0.4605011225
 20
-2.9357160787
 30
0.0
 11
-0.4518852375
 21
-2.9179446373
 31
0.0
  0
ARC
  5
19A
330
1F
100
AcDbEntity
  8
0
  6
Continuous
 62
     7
370
    25
100
AcDbCircle
 10
-0.5534814678
 20
-2.8906376894
 30
0.0
 40
0.1033315334590436
100
AcDbArc
 50
303.3110652458
 51
334.1351351351
  0
ARC
  5
19B
330
1F
100
AcDbEntity
  8
0
  6
Continuous
 62
     7
370
    25
100
AcDbCircle
 10
0.0
 20
0.0
 30
0.0
 40
3.018149331363402
100
AcDbArc
 50
260.0135004639
 51
260.5270400767
  0
ARC
  5
19C
330
1F
100
AcDbEntity
  8
0
  6
Continuous
 62
     7
370
    25
100
AcDbCircle
 10
-0.441121254
 20
-2.9099037829
 30
0.0
 40
0.1033315334590445
100
AcDbArc
 50
186.4054054054
 51
217.2294752947
  0
LINE
  5
19D
330
1F
100
AcDbEntity
  8
0
  6
Continuous
 62
     7
370
    25
100
AcDbLine
 10
-0.5460110791
 20
-2.9018051409
 30
0.0
 11
-0.5438077299
 21
-2.9214317263
 31
0.0
  0
ARC
  5
19E
330
1F
100
AcDbEntity
  8
0
  6
Continuous
 62
     7
370
    25
100
AcDbCircle
 10
-0.7157696867
 20
-2.9208628367
 30
0.0
 40
0.1708250000000071
100
AcDbArc
 50
6.4054054054
 51
23.6486486486
  0
ARC
  5
19F
330
1F
100
AcDbEntity
  8
0
  6
Continuous
 62
     7
370
    25
100
AcDbCircle
 10
-0.6205033497
 20
-2.8791456336
 30
0.0
 40
0.0668250000000042
100
AcDbArc
 50
23.6486486486
 51
132.027027027
  0
ARC
  5
1A0
330
1F
100
AcDbEntity
  8
0
  6
Continuous
 62
     7
370
    25
100
AcDbCircle
 10
-0.5508773173
 20
-2.9563998607
 30
0.0
 40
0.1708250000000092
100
AcDbArc
 50
132.027027027
 51
149.2702702703
  0
LINE
  5
1A1
330
1F
100
AcDbEntity
  8
0
  6
Continuous
 62
     7
370
    25
100
AcDbLine
 10
-0.7078082779
 20
-2.8860869045
 30
0.0
 11
-0.6977163083
 21
-2.869110163
 31
0.0
  0
ARC
  5
1A2
330
1F
100
AcDbEntity
  8
0
  6
Continuous
 62
     7
370
    25
100
AcDbCircle
 10
-0.7966307461
 20
-2.8332856265
 30
0.0
 40
0.1033315334590436
100
AcDbArc
 50
298.446200381
 51
329.2702702703
  0
ARC
  5
1A3
330
1F
100
AcDbEntity
  8
0
  6
Continuous
 62
     7
370
    25
100
AcDbCircle
 10
0.0
 20
0.0
 30
0.0
 40
3.018149331363403
100
AcDbArc
 50
255.148635599
 51
255.6621752118
  0
ARC
  5
1A4
330
1F
100
AcDbEntity
  8
0
  6
Continuous
 62
     7
370
    25
100
AcDbCircle
 10
-0.6863091901
 20
-2.8620111255
 30
0.0
 40
0.1033315334590442
100
AcDbArc
 50
181.5405405405
 51
212.3646104299
  0
LINE
  5
1A5
330
1F
100
AcDbEntity
  8
0
  6
Continuous
 62
     7
370
    25
100
AcDbLine
 10
-0.7901343356
 20
-2.8450463803
 30
0.0
 11
-0.7896033747
 21
-2.8647891178
 31
0.0
  0
ARC
  5
1A6
330
1F
100
AcDbEntity
  8
0
  6
Continuous
 62
     7
370
    25
100
AcDbCircle
 10
-0.9608975914
 20
-2.8496388849
 30
0.0
 40
0.1708250000000071
100
AcDbArc
 50
1.5405405405
 51
18.7837837838
  0
ARC
  5
1A7
330
1F
100
AcDbEntity
  8
0
  6
Continuous
 62
     7
370
    25
100
AcDbCircle
 10
-0.8624365865
 20
-2.8161511183
 30
0.0
 40
0.066825000000004
100
AcDbArc
 50
18.7837837838
 51
127.1621621621
  0
ARC
  5
1A8
330
1F
100
AcDbEntity
  8
0
  6
Continuous
 62
     7
370
    25
100
AcDbCircle
 10
-0.7996129987
 20
-2.8990317362
 30
0.0
 40
0.1708250000000089
100
AcDbArc
 50
127.1621621622
 51
144.4054054054
  0
LINE
  5
1A9
330
1F
100
AcDbEntity
  8
0
  6
Continuous
 62
     7
370
    25
100
AcDbLine
 10
-0.9500156586
 20
-2.815663408
 30
0.0
 11
-0.9385203171
 21
-2.7996036842
 31
0.0
  0
ARC
  5
1AA
330
1F
100
AcDbEntity
  8
0
  6
Continuous
 62
     7
370
    25
100
AcDbCircle
 10
-1.0340402815
 20
-2.7555196756
 30
0.0
 40
0.1033315334590438
100
AcDbArc
 50
293.5813355161
 51
324.4054054054
  0
ARC
  5
1AB
330
1F
100
AcDbEntity
  8
0
  6
Continuous
 62
     7
370
    25
100
AcDbCircle
 10
0.0
 20
0.0
 30
0.0
 40
3.018149331363402
100
AcDbArc
 50
250.2837707341
 51
250.7973103469
  0
ARC
  5
1AC
330
1F
100
AcDbEntity
  8
0
  6
Continuous
 62
     7
370
    25
100
AcDbCircle
 10
-0.9265522527
 20
-2.7934976122
 30
0.0
 40
0.1033315334590444
100
AcDbArc
 50
176.6756756757
 51
207.499745565
  0
LINE
  5
1AD
330
1F
100
AcDbEntity
  8
0
  6
Continuous
 62
     7
370
    25
100
AcDbLine
 10
-1.028564656
 20
-2.7677889953
 30
0.0
 11
-1.029709909
 21
-2.787505638
 31
0.0
  0
ARC
  5
1AE
330
1F
100
AcDbEntity
  8
0
  6
Continuous
 62
     7
370
    25
100
AcDbCircle
 10
-1.1991022068
 20
-2.7578832196
 30
0.0
 40
0.1708250000000072
100
AcDbArc
 50
356.6756756757
 51
13.9189189189
  0
ARC
  5
1AF
330
1F
100
AcDbEntity
  8
0
  6
Continuous
 62
     7
370
    25
100
AcDbCircle
 10
-1.0981559478
 20
-2.7328661696
 30
0.0
 40
0.066825000000004
100
AcDbArc
 50
13.9189189189
 51
122.2972972973
  0
ARC
  5
1B0
330
1F
100
AcDbEntity
  8
0
  6
Continuous
 62
     7
370
    25
100
AcDbCircle
 10
-1.0425874502
 20
-2.8207760216
 30
0.0
 40
0.1708250000000092
100
AcDbArc
 50
122.2972972973
 51
139.5405405405
  0
LINE
  5
1B1
330
1F
100
AcDbEntity
  8
0
  6
Continuous
 62
     7
370
    25
100
AcDbLine
 10
-1.1853781546
 20
-2.7249529921
 30
0.0
 11
-1.1725622655
 21
-2.7099259967
 31
0.0
  0
ARC
  5
1B2
330
1F
100
AcDbEntity
  8
0
  6
Continuous
 62
     7
370
    25
100
AcDbCircle
 10
-1.2639995331
 20
-2.6579001424
 30
0.0
 40
0.103331533459045
100
AcDbArc
 50
288.7164706512
 51
319.5405405405
  0
ARC
  5
1B3
330
1F
100
AcDbEntity
  8
0
  6
Continuous
 62
     7
370
    25
100
AcDbCircle
 10
0.0
 20
0.0
 30
0.0
 40
3.018149331363403
100
AcDbArc
 50
245.4189058693
 51
245.9324454821
  0
ARC
  5
1B4
330
1F
100
AcDbEntity
  8
0
  6
Continuous
 62
     7
370
    25
100
AcDbCircle
 10
-1.1601194852
 20
-2.7048568847
 30
0.0
 40
0.1033315334590441
100
AcDbArc
 50
171.8108108108
 51
202.6348807001
  0
LINE
  5
1B5
330
1F
100
AcDbEntity
  8
0
  6
Continuous
 62
     7
370
    25
100
AcDbLine
 10
-1.2595841446
 20
-2.6705896272
 30
0.0
 11
-1.2623973599
 21
-2.6901381162
 31
0.0
  0
ARC
  5
1B6
330
1F
100
AcDbEntity
  8
0
  6
Continuous
 62
     7
370
    25
100
AcDbCircle
 10
-1.4286672634
 20
-2.6462569425
 30
0.0
 40
0.1708250000000069
100
AcDbArc
 50
351.8108108108
 51
9.0540540541
  0
ARC
  5
1B7
330
1F
100
AcDbEntity
  8
0
  6
Continuous
 62
     7
370
    25
100
AcDbCircle
 10
-1.3259630704
 20
-2.6298908575
 30
0.0
 40
0.0668250000000044
100
AcDbArc
 50
9.0540540541
 51
117.4324324324
  0
ARC
  5
1B8
330
1F
100
AcDbEntity
  8
0
  6
Continuous
 62
     7
370
    25
100
AcDbCircle
 10
-1.2780500352
 20
-2.7221965511
 30
0.0
 40
0.1708250000000094
100
AcDbArc
 50
117.4324324324
 51
134.6756756757
  0
LINE
  5
1B9
330
1F
100
AcDbEntity
  8
0
  6
Continuous
 62
     7
370
    25
100
AcDbLine
 10
-1.4121999739
 20
-2.6146092275
 30
0.0
 11
-1.3981558759
 21
-2.6007232303
 31
0.0
  0
ARC
  5
1BA
330
1F
100
AcDbEntity
  8
0
  6
Continuous
 62
     7
370
    25
100
AcDbCircle
 10
-1.484851639
 20
-2.5411303778
 30
0.0
 40
0.1033315334590442
100
AcDbArc
 50
283.8516057864
 51
314.6756756757
  0
ARC
  5
1BB
330
1F
100
AcDbEntity
  8
0
  6
Continuous
 62
     7
370
    25
100
AcDbCircle
 10
0.0
 20
0.0
 30
0.0
 40
3.018149331363403
100
AcDbArc
 50
240.5540410044
 51
241.0675806172
  0
ARC
  5
1BC
330
1F
100
AcDbEntity
  8
0
  6
Continuous
 62
     7
370
    25
100
AcDbCircle
 10
-1.3853280301
 20
-2.5967276014
 30
0.0
 40
0.1033315334590443
100
AcDbArc
 50
166.9459459459
 51
197.7700158353
  0
LINE
  5
1BD
330
1F
100
AcDbEntity
  8
0
  6
Continuous
 62
     7
370
    25
100
AcDbLine
 10
-1.4815283005
 20
-2.5541485996
 30
0.0
 11
-1.4859892089
 21
-2.5733880877
 31
0.0
  0
ARC
  5
1BE
330
1F
100
AcDbEntity
  8
0
  6
Continuous
 62
     7
370
    25
100
AcDbCircle
 10
-1.6479387397
 20
-2.5155643235
 30
0.0
 40
0.1708250000000069
100
AcDbArc
 50
346.9459459459
 51
4.1891891892
  0
ARC
  5
1BF
330
1F
100
AcDbEntity
  8
0
  6
Continuous
 62
     7
370
    25
100
AcDbCircle
 10
-1.5442165987
 20
-2.5079671216
 30
0.0
 40
0.0668250000000044
100
AcDbArc
 50
4.1891891892
 51
112.5675675676
  0
ARC
  5
1C0
330
1F
100
AcDbEntity
  8
0
  6
Continuous
 62
     7
370
    25
100
AcDbCircle
 10
-1.5043042405
 20
-2.6040035921
 30
0.0
 40
0.1708250000000092
100
AcDbArc
 50
112.5675675676
 51
129.8108108108
  0
LINE
  5
1C1
330
1F
100
AcDbEntity
  8
0
  6
Continuous
 62
     7
370
    25
100
AcDbLine
 10
-1.62884686
 20
-2.4854271435
 30
0.0
 11
-1.6136757412
 21
-2.4727821935
 31
0.0
  0
ARC
  5
1C2
330
1F
100
AcDbEntity
  8
0
  6
Continuous
 62
     7
370
    25
100
AcDbCircle
 10
-1.6950053549
 20
-2.4060517105
 30
0.0
 40
0.1033315334590435
100
AcDbArc
 50
278.9867409215
 51
309.8108108108
  0
ARC
  5
1C3
330
1F
100
AcDbEntity
  8
0
  6
Continuous
 62
     7
370
    25
100
AcDbCircle
 10
0.0
 20
0.0
 30
0.0
 40
3.018149331363403
100
AcDbArc
 50
235.6891761395
 51
236.2027157523
  0
ARC
  5
1C4
330
1F
100
AcDbEntity
  8
0
  6
Continuous
 62
     7
370
    25
100
AcDbCircle
 10
-1.6005552549
 20
-2.4698888361
 30
0.0
 40
0.1033315334590441
100
AcDbArc
 50
162.0810810811
 51
192.9051509704
  0
LINE
  5
1C5
330
1F
100
AcDbEntity
  8
0
  6
Continuous
 62
     7
370
    25
100
AcDbLine
 10
-1.6927980111
 20
-2.4193048729
 30
0.0
 11
-1.6988744715
 21
-2.438096739
 31
0.0
  0
ARC
  5
1C6
330
1F
100
AcDbEntity
  8
0
  6
Continuous
 62
     7
370
    25
100
AcDbCircle
 10
-1.8553367795
 20
-2.3667470059
 30
0.0
 40
0.1708250000000074
100
AcDbArc
 50
342.0810810811
 51
359.3243243243
  0
ARC
  5
1C7
330
1F
100
AcDbEntity
  8
0
  6
Continuous
 62
     7
370
    25
100
AcDbCircle
 10
-1.751344011
 20
-2.3679734251
 30
0.0
 40
0.0668250000000042
100
AcDbArc
 50
359.3243243243
 51
107.7027027027
  0
ARC
  5
1C8
330
1F
100
AcDbEntity
  8
0
  6
Continuous
 62
     7
370
    25
100
AcDbCircle
 10
-1.7197198992
 20
-2.4670487275
 30
0.0
 40
0.170825000000009
100
AcDbArc
 50
107.7027027027
 51
124.9459459459
  0
LINE
  5
1C9
330
1F
100
AcDbEntity
  8
0
  6
Continuous
 62
     7
370
    25
100
AcDbLine
 10
-1.8337578671
 20
-2.3383374999
 30
0.0
 11
-1.8175690358
 21
-2.3270247043
 31
0.0
  0
ARC
  5
1CA
330
1F
100
AcDbEntity
  8
0
  6
Continuous
 62
     7
370
    25
100
AcDbCircle
 10
-1.8929465183
 20
-2.2536373855
 30
0.0
 40
0.1033315334590448
100
AcDbArc
 50
274.1218760566
 51
304.9459459459
  0
ARC
  5
1CB
330
1F
100
AcDbEntity
  8
0
  6
Continuous
 62
     7
370
    25
100
AcDbCircle
 10
0.0
 20
0.0
 30
0.0
 40
3.018149331363402
100
AcDbArc
 50
230.8243112747
 51
231.3378508875
  0
ARC
  5
1CC
330
1F
100
AcDbEntity
  8
0
  6
Continuous
 62
     7
370
    25
100
AcDbCircle
 10
-1.8042504423
 20
-2.3252544652
 30
0.0
 40
0.1033315334590441
100
AcDbArc
 50
157.2162162162
 51
188.0402861055
  0
LINE
  5
1CD
330
1F
100
AcDbEntity
  8
0
  6
Continuous
 62
     7
370
    25
100
AcDbLine
 10
-1.8918710732
 20
-2.2670299991
 30
0.0
 11
-1.8995193047
 21
-2.2852388474
 31
0.0
  0
ARC
  5
1CE
330
1F
100
AcDbEntity
  8
0
  6
Continuous
 62
     7
370
    25
100
AcDbCircle
 10
-2.0493670753
 20
-2.2008772219
 30
0.0
 40
0.1708250000000071
100
AcDbArc
 50
337.2162162162
 51
354.4594594595
  0
ARC
  5
1CF
330
1F
100
AcDbEntity
  8
0
  6
Continuous
 62
     7
370
    25
100
AcDbCircle
 10
-1.9458529496
 20
-2.2109184257
 30
0.0
 40
0.0668250000000043
100
AcDbArc
 50
354.4594594595
 51
102.8378378378
  0
ARC
  5
1D0
330
1F
100
AcDbEntity
  8
0
  6
Continuous
 62
     7
370
    25
100
AcDbCircle
 10
-1.9227449366
 20
-2.3123187203
 30
0.0
 40
0.170825000000009
100
AcDbArc
 50
102.8378378378
 51
120.0810810811
  0
LINE
  5
1D1
330
1F
100
AcDbEntity
  8
0
  6
Continuous
 62
     7
370
    25
100
AcDbLine
 10
-2.0254566068
 20
-2.1744000811
 30
0.0
 11
-2.0083667039
 21
-2.1645009487
 31
0.0
  0
ARC
  5
1D2
330
1F
100
AcDbEntity
  8
0
  6
Continuous
 62
     7
370
    25
100
AcDbCircle
 10
-2.0772489587
 20
-2.0849855516
 30
0.0
 40
0.1033315334590435
100
AcDbArc
 50
269.2570111918
 51
300.0810810811
  0
ARC
  5
1D3
330
1F
100
AcDbEntity
  8
0
  6
Continuous
 62
     7
370
    25
100
AcDbCircle
 10
0.0
 20
0.0
 30
0.0
 40
3.018149331363403
100
AcDbArc
 50
225.9594464098
 51
226.4729860226
  0
ARC
  5
1D4
330
1F
100
AcDbEntity
  8
0
  6
Continuous
 62
     7
370
    25
100
AcDbCircle
 10
-1.994945964
 20
-2.1638665826
 30
0.0
 40
0.1033315334590444
100
AcDbArc
 50
152.3513513514
 51
183.1754212407
  0
LINE
  5
1D5
330
1F
100
AcDbEntity
  8
0
  6
Continuous
 62
     7
370
    25
100
AcDbLine
 10
-2.0773131608
 20
-2.0984211222
 30
0.0
 11
-2.0864780577
 21
-2.1159157576
 31
0.0
  0
ARC
  5
1D6
330
1F
100
AcDbEntity
  8
0
  6
Continuous
 62
     7
370
    25
100
AcDbCircle
 10
-2.2286316344
 20
-2.0191500671
 30
0.0
 40
0.170825000000007
100
AcDbArc
 50
332.3513513514
 51
349.5945945946
  0
ARC
  5
1D7
330
1F
100
AcDbEntity
  8
0
  6
Continuous
 62
     7
370
    25
100
AcDbCircle
 10
-2.1263419731
 20
-2.0379337085
 30
0.0
 40
0.0668250000000037
100
AcDbArc
 50
349.5945945946
 51
97.972972973
  0
ARC
  5
1D8
330
1F
100
AcDbEntity
  8
0
  6
Continuous
 62
     7
370
    25
100
AcDbCircle
 10
-2.1119165527
 20
-2.1409284037
 30
0.0
 40
0.1708250000000092
100
AcDbArc
 50
97.972972973
 51
115.2162162162
  0
LINE
  5
1D9
330
1F
100
AcDbEntity
  8
0
  6
Continuous
 62
     7
370
    25
100
AcDbLine
 10
-2.2025618852
 20
-1.9947960599
 30
0.0
 11
-2.1846940438
 21
-1.9863819142
 31
0.0
  0
ARC
  5
1DA
330
1F
100
AcDbEntity
  8
0
  6
Continuous
 62
     7
370
    25
100
AcDbCircle
 10
-2.2465847727
 20
-1.9013113489
 30
0.0
 40
0.1033315334590438
100
AcDbArc
 50
264.3921463269
 51
295.2162162162
  0
ARC
  5
1DB
330
1F
100
AcDbEntity
  8
0
  6
Continuous
 62
     7
370
    25
100
AcDbCircle
 10
0.0
 20
0.0
 30
0.0
 40
3.018149331363403
100
AcDbArc
 50
221.094581545
 51
221.6081211577
  0
ARC
  5
1DC
330
1F
100
AcDbEntity
  8
0
  6
Continuous
 62
     7
370
    25
100
AcDbCircle
 10
-2.1712678543
 20
-1.9868879917
 30
0.0
 40
0.1033315334590441
100
AcDbArc
 50
147.4864864865
 51
178.3105563758
  0
LINE
  5
1DD
330
1F
100
AcDbEntity
  8
0
  6
Continuous
 62
     7
370
    25
100
AcDbLine
 10
-2.2477881596
 20
-1.914693073
 30
0.0
 11
-2.2584036886
 21
-1.9313474463
 31
0.0
  0
ARC
  5
1DE
330
1F
100
AcDbEntity
  8
0
  6
Continuous
 62
     7
370
    25
100
AcDbCircle
 10
-2.3918388515
 20
-1.8228748898
 30
0.0
 40
0.1708250000000074
100
AcDbArc
 50
327.4864864865
 51
344.7297297297
  0
ARC
  5
1DF
330
1F
100
AcDbEntity
  8
0
  6
Continuous
 62
     7
370
    25
100
AcDbCircle
 10
-2.2915106539
 20
-1.8502656322
 30
0.0
 40
0.0668250000000045
100
AcDbArc
 50
344.7297297297
 51
93.1081081081
  0
ARC
  5
1E0
330
1F
100
AcDbEntity
  8
0
  6
Continuous
 62
     7
370
    25
100
AcDbCircle
 10
-2.2858717616
 20
-1.954112649
 30
0.0
 40
0.1708250000000091
100
AcDbArc
 50
93.1081081081
 51
110.3513513513
  0
LINE
  5
1E1
330
1F
100
AcDbEntity
  8
0
  6
Continuous
 62
     7
370
    25
100
AcDbLine
 10
-2.3637976548
 20
-1.8008194873
 30
0.0
 11
-2.3452806131
 21
-1.7939509526
 31
0.0
  0
ARC
  5
1E2
330
1F
100
AcDbEntity
  8
0
  6
Continuous
 62
     7
370
    25
100
AcDbCircle
 10
-2.399733892
 20
-1.7039381544
 30
0.0
 40
0.1033315334590439
100
AcDbArc
 50
259.527281462
 51
290.3513513514
  0
ARC
  5
1E3
330
1F
100
AcDbEntity
  8
0
  6
Continuous
 62
     7
370
    25
100
AcDbCircle
 10
0.0
 20
0.0
 30
0.0
 40
3.018149331363402
100
AcDbArc
 50
216.2297166801
 51
216.7432562929
  0
ARC
  5
1E4
330
1F
100
AcDbEntity
  8
0
  6
Continuous
 62
     7
370
    25
100
AcDbCircle
 10
-2.3319457099
 20
-1.7955938273
 30
0.0
 40
0.103331533459044
100
AcDbArc
 50
142.6216216216
 51
173.4456915109
  0
LINE
  5
1E5
330
1F
100
AcDbEntity
  8
0
  6
Continuous
 62
     7
370
    25
100
AcDbLine
 10
-2.4020677931
 20
-1.7171696164
 30
0.0
 11
-2.4140574691
 21
-1.7328637323
 31
0.0
  0
ARC
  5
1E6
330
1F
100
AcDbEntity
  8
0
  6
Continuous
 62
     7
370
    25
100
AcDbCircle
 10
-2.5378128149
 20
-1.6134658571
 30
0.0
 40
0.170825000000007
100
AcDbArc
 50
322.6216216216
 51
339.8648648649
  0
ARC
  5
1E7
330
1F
100
AcDbEntity
  8
0
  6
Continuous
 62
     7
370
    25
100
AcDbCircle
 10
-2.440168948
 20
-1.6492663496
 30
0.0
 40
0.0668250000000044
100
AcDbArc
 50
339.8648648649
 51
88.2432432432
  0
ARC
  5
1E8
330
1F
100
AcDbEntity
  8
0
  6
Continuous
 62
     7
370
    25
100
AcDbCircle
 10
-2.4433572121
 20
-1.7532174678
 30
0.0
 40
0.170825000000009
100
AcDbArc
 50
88.2432432432
 51
105.4864864865
  0
LINE
  5
1E9
330
1F
100
AcDbEntity
  8
0
  6
Continuous
 62
     7
370
    25
100
AcDbLine
 10
-2.5080022081
 20
-1.5938679691
 30
0.0
 11
-2.4889693818
 21
-1.5885945331
 31
0.0
  0
ARC
  5
1EA
330
1F
100
AcDbEntity
  8
0
  6
Continuous
 62
     7
370
    25
100
AcDbCircle
 10
-2.5355928736
 20
-1.4942880465
 30
0.0
 40
0.103331533459044
100
AcDbArc
 50
254.6624165972
 51
285.4864864865
  0
ARC
  5
1EB
330
1F
100
AcDbEntity
  8
0
  6
Continuous
 62
     7
370
    25
100
AcDbCircle
 10
0.0
 20
0.0
 30
0.0
 40
3.018149331363402
100
AcDbArc
 50
211.3648518152
 51
211.878391428
  0
ARC
  5
1EC
330
1F
100
AcDbEntity
  8
0
  6
Continuous
 62
     7
370
    25
100
AcDbCircle
 10
-2.4758218433
 20
-1.5913623682
 30
0.0
 40
0.1033315334590441
100
AcDbArc
 50
137.7567567568
 51
168.5808266461
  0
LINE
  5
1ED
330
1F
100
AcDbEntity
  8
0
  6
Continuous
 62
     7
370
    25
100
AcDbLine
 10
-2.5390404732
 20
-1.5072739133
 30
0.0
 11
-2.5523179102
 21
-1.5218946955
 31
0.0
  0
ARC
  5
1EE
330
1F
100
AcDbEntity
  8
0
  6
Continuous
 62
     7
370
    25
100
AcDbCircle
 10
-2.6655017788
 20
-1.3924317659
 30
0.0
 40
0.1708250000000071
100
AcDbArc
 50
317.7567567568
 51
335.0
  0
ARC
  5
1EF
330
1F
100
AcDbEntity
  8
0
  6
Continuous
 62
     7
370
    25
100
AcDbCircle
 10
-2.5712457689
 20
-1.4363840651
 30
0.0
 40
0.0668250000000038
100
AcDbArc
 50
335.0
 51
83.3783783784
  0
ARC
  5
1F0
330
1F
100
AcDbEntity
  8
0
  6
Continuous
 62
     7
370
    25
100
AcDbCircle
 10
-2.5832382179
 20
-1.5396903146
 30
0.0
 40
0.1708250000000094
100
AcDbArc
 50
83.3783783784
 51
100.6216216216
  0
LINE
  5
1F1
330
1F
100
AcDbEntity
  8
0
  6
Continuous
 62
     7
370
    25
100
AcDbLine
 10
-2.634136548
 20
-1.3754325956
 30
0.0
 11
-2.6147250691
 21
-1.3717922537
 31
0.0
  0
ARC
  5
1F2
330
1F
100
AcDbEntity
  8
0
  6
Continuous
 62
     7
370
    25
100
AcDbCircle
 10
-2.6531828505
 20
-1.273871559
 30
0.0
 40
0.103331533459044
100
AcDbArc
 50
249.7975517323
 51
280.6216216216
  0
ARC
  5
1F3
330
1F
100
AcDbEntity
  8
0
  6
Continuous
 62
     7
370
    25
100
AcDbCircle
 10
0.0
 20
0.0
 30
0.0
 40
3.018149331363403
100
AcDbArc
 50
206.4999869504
 51
207.0135265632
  0
ARC
  5
1F4
330
1F
100
AcDbEntity
  8
0
  6
Continuous
 62
     7
370
    25
100
AcDbCircle
 10
-2.6018596235
 20
-1.3756651068
 30
0.0
 40
0.1033315334590444
100
AcDbArc
 50
132.8918918919
 51
163.7159617812
  0
LINE
  5
1F5
330
1F
100
AcDbEntity
  8
0
  6
Continuous
 62
     7
370
    25
100
AcDbLine
 10
-2.6577193084
 20
-1.2865182672
 30
0.0
 11
-2.6721888423
 21
-1.2999603725
 31
0.0
  0
ARC
  5
1F6
330
1F
100
AcDbEntity
  8
0
  6
Continuous
 62
     7
370
    25
100
AcDbCircle
 10
-2.7739857412
 20
-1.161365172
 30
0.0
 40
0.1708250000000075
100
AcDbArc
 50
312.8918918919
 51
330.1351351351
  0
ARC
  5
1F7
330
1F
100
AcDbEntity
  8
0
  6
Continuous
 62
     7
370
    25
100
AcDbCircle
 10
-2.6837967051
 20
-1.2131526006
 30
0.0
 40
0.0668250000000047
100
AcDbArc
 50
330.1351351351
 51
78.5135135135
  0
ARC
  5
1F8
330
1F
100
AcDbEntity
  8
0
  6
Continuous
 62
     7
370
    25
100
AcDbCircle
 10
-2.7045069332
 20
-1.3150696573
 30
0.0
 40
0.1708250000000092
100
AcDbArc
 50
78.5135135135
 51
95.7567567568
  0
LINE
  5
1F9
330
1F
100
AcDbEntity
  8
0
  6
Continuous
 62
     7
370
    25
100
AcDbLine
 10
-2.7412918738
 20
-1.1470871988
 30
0.0
 11
-2.7216416023
 21
-1.1451061797
 31
0.0
  0
ARC
  5
1FA
330
1F
100
AcDbEntity
  8
0
  6
Continuous
 62
     7
370
    25
100
AcDbCircle
 10
-2.7516565841
 20
-1.0442767976
 30
0.0
 40
0.1033315334590439
100
AcDbArc
 50
244.9326868674
 51
275.7567567568
  0
ARC
  5
1FB
330
1F
100
AcDbEntity
  8
0
  6
Continuous
 62
     7
370
    25
100
AcDbCircle
 10
0.0
 20
0.0
 30
0.0
 40
3.018149331363402
100
AcDbArc
 50
201.6351220855
 51
202.1486616983
  0
ARC
  5
1FC
330
1F
100
AcDbEntity
  8
0
  6
Continuous
 62
     7
370
    25
100
AcDbCircle
 10
-2.7091509456
 20
-1.1500561468
 30
0.0
 40
0.1033315334590438
100
AcDbArc
 50
128.027027027
 51
158.8510969163
  0
LINE
  5
1FD
330
1F
100
AcDbEntity
  8
0
  6
Continuous
 62
     7
370
    25
100
AcDbLine
 10
-2.7572492152
 20
-1.0564932274
 30
0.0
 11
-2.7728065925
 21
-1.0686598052
 31
0.0
  0
ARC
  5
1FE
330
1F
100
AcDbEntity
  8
0
  6
Continuous
 62
     7
370
    25
100
AcDbCircle
 10
-2.8624830729
 20
-0.9219309154
 30
0.0
 40
0.1708250000000073
100
AcDbArc
 50
308.027027027
 51
325.2702702703
  0
ARC
  5
1FF
330
1F
100
AcDbEntity
  8
0
  6
Continuous
 62
     7
370
    25
100
AcDbCircle
 10
-2.7770108246
 20
-0.9811803438
 30
0.0
 40
0.0668250000000045
100
AcDbArc
 50
325.2702702703
 51
73.6486486486
  0
ARC
  5
200
330
1F
100
AcDbEntity
  8
0
  6
Continuous
 62
     7
370
    25
100
AcDbCircle
 10
-2.806289614
 20
-1.0809738931
 30
0.0
 40
0.170825000000009
100
AcDbArc
 50
73.6486486486
 51
90.8918918919
  0
LINE
  5
201
330
1F
100
AcDbEntity
  8
0
  6
Continuous
 62
     7
370
    25
100
AcDbLine
 10
-2.8286961287
 20
-0.9104770124
 30
0.0
 11
-2.8089486455
 21
-0.9101695894
 31
0.0
  0
ARC
  5
202
330
1F
100
AcDbEntity
  8
0
  6
Continuous
 62
     7
370
    25
100
AcDbCircle
 10
-2.8303045689
 20
-0.8071579981
 30
0.0
 40
0.1033315334590437
100
AcDbArc
 50
240.0678220026
 51
270.8918918919
  0
ARC
  5
203
330
1F
100
AcDbEntity
  8
0
  6
Continuous
 62
     7
370
    25
100
AcDbCircle
 10
0.0
 20
0.0
 30
0.0
 40
3.018149331363402
100
AcDbArc
 50
196.7702572206
 51
197.2837968334
  0
ARC
  5
204
330
1F
100
AcDbEntity
  8
0
  6
Continuous
 62
     7
370
    25
100
AcDbCircle
 10
-2.796922773
 20
-0.9161610058
 30
0.0
 40
0.1033315334590439
100
AcDbArc
 50
123.1621621622
 51
153.9862320515
  0
LINE
  5
205
330
1F
100
AcDbEntity
  8
0
  6
Continuous
 62
     7
370
    25
100
AcDbLine
 10
-2.8369130781
 20
-0.8188561298
 30
0.0
 11
-2.8534462077
 21
-0.8296595195
 31
0.0
  0
ARC
  5
206
330
1F
100
AcDbEntity
  8
0
  6
Continuous
 62
     7
370
    25
100
AcDbCircle
 10
-2.9303561484
 20
-0.6758541254
 30
0.0
 40
0.1708250000000071
100
AcDbArc
 50
303.1621621622
 51
320.4054054054
  0
ARC
  5
207
330
1F
100
AcDbEntity
  8
0
  6
Continuous
 62
     7
370
    25
100
AcDbCircle
 10
-2.8502165174
 20
-0.7421386601
 30
0.0
 40
0.0668250000000043
100
AcDbArc
 50
320.4054054054
 51
68.7837837838
  0
ARC
  5
208
330
1F
100
AcDbEntity
  8
0
  6
Continuous
 62
     7
370
    25
100
AcDbCircle
 10
-2.8878529139
 20
-0.8390896872
 30
0.0
 40
0.1708250000000091
100
AcDbArc
 50
68.7837837838
 51
86.027027027
  0
LINE
  5
209
330
1F
100
AcDbEntity
  8
0
  6
Continuous
 62
     7
370
    25
100
AcDbLine
 10
-2.8957195633
 20
-0.6673068183
 30
0.0
 11
-2.8760171492
 21
-0.6686752063
 31
0.0
  0
ARC
  5
20A
330
1F
100
AcDbEntity
  8
0
  6
Continuous
 62
     7
370
    25
100
AcDbCircle
 10
-2.8885601445
 20
-0.5642236066
 30
0.0
 40
0.103331533459044
100
AcDbArc
 50
235.2029571377
 51
266.027027027
  0
ARC
  5
20B
330
1F
100
AcDbEntity
  8
0
  6
Continuous
 62
     7
370
    25
100
AcDbCircle
 10
0.0
 20
0.0
 30
0.0
 40
3.018149331363404
100
AcDbArc
 50
191.9053923558
 51
192.4189319686
  0
ARC
  5
20C
330
1F
100
AcDbEntity
  8
0
  6
Continuous
 62
     7
370
    25
100
AcDbCircle
 10
-2.8645427077
 20
-0.6756649039
 30
0.0
 40
0.1033315334590442
100
AcDbArc
 50
118.2972972973
 51
149.1213671866
  0
LINE
  5
20D
330
1F
100
AcDbEntity
  8
0
  6
Continuous
 62
     7
370
    25
100
AcDbLine
 10
-2.8961369174
 20
-0.5753191549
 30
0.0
 11
-2.9135266776
 21
-0.584681518
 31
0.0
  0
ARC
  5
20E
330
1F
100
AcDbEntity
  8
0
  6
Continuous
 62
     7
370
    25
100
AcDbCircle
 10
-2.9771159407
 20
-0.424907791
 30
0.0
 40
0.1708250000000071
100
AcDbArc
 50
298.2972972973
 51
315.5405405405
  0
ARC
  5
20F
330
1F
100
AcDbEntity
  8
0
  6
Continuous
 62
     7
370
    25
100
AcDbCircle
 10
-2.9028863349
 20
-0.4977498504
 30
0.0
 40
0.0668250000000042
100
AcDbArc
 50
315.5405405405
 51
63.9189189189
  0
ARC
  5
210
330
1F
100
AcDbEntity
  8
0
  6
Continuous
 62
     7
370
    25
100
AcDbCircle
 10
-2.9486091673
 20
-0.5911598209
 30
0.0
 40
0.1708250000000091
100
AcDbArc
 50
63.9189189189
 51
81.1621621622
  0
LINE
  5
211
330
1F
100
AcDbEntity
  8
0
  6
Continuous
 62
     7
370
    25
100
AcDbLine
 10
-2.941879272
 20
-0.4193286633
 30
0.0
 11
-2.9223638835
 21
-0.4223630031
 31
0.0
  0
ARC
  5
212
330
1F
100
AcDbEntity
  8
0
  6
Continuous
 62
     7
370
    25
100
AcDbCircle
 10
-2.9260035781
 20
-0.3172239711
 30
0.0
 40
0.1033315334590439
100
AcDbArc
 50
230.3380922728
 51
261.1621621622
  0
ARC
  5
213
330
1F
100
AcDbEntity
  8
0
  6
Continuous
 62
     7
370
    25
100
AcDbCircle
 10
0.0
 20
0.0
 30
0.0
 40
3.018149331363402
100
AcDbArc
 50
187.0405274909
 51
187.5540671037
  0
ARC
  5
214
330
1F
100
AcDbEntity
  8
0
  6
Continuous
 62
     7
370
    25
100
AcDbCircle
 10
-2.9115235466
 20
-0.4303006208
 30
0.0
 40
0.103331533459044
100
AcDbArc
 50
113.4324324324
 51
144.2565023218
  0
LINE
  5
215
330
1F
100
AcDbEntity
  8
0
  6
Continuous
 62
     7
370
    25
100
AcDbLine
 10
-2.9344940238
 20
-0.3276369924
 30
0.0
 11
-2.9526151211
 21
-0.3354908728
 31
0.0
  0
ARC
  5
216
330
1F
100
AcDbEntity
  8
0
  6
Continuous
 62
     7
370
    25
100
AcDbCircle
 10
-3.0024255445
 20
-0.1708999862
 30
0.0
 40
0.1708250000000067
100
AcDbArc
 50
293.4324324324
 51
310.6756756757
  0
ARC
  5
217
330
1F
100
AcDbEntity
  8
0
  6
Continuous
 62
     7
370
    25
100
AcDbCircle
 10
-2.9346407898
 20
-0.2497747416
 30
0.0
 40
0.0668250000000044
100
AcDbArc
 50
310.6756756757
 51
59.054054054
  0
ARC
  5
218
330
1F
100
AcDbEntity
  8
0
  6
Continuous
 62
     7
370
    25
100
AcDbCircle
 10
-2.9881206241
 20
-0.3389706345
 30
0.0
 40
0.1708250000000091
100
AcDbArc
 50
59.0540540541
 51
76.2972972973
  0
LINE
  5
219
330
1F
100
AcDbEntity
  8
0
  6
Continuous
 62
     7
370
    25
100
AcDbLine
 10
-2.9668426732
 20
-0.1683292356
 30
0.0
 11
-2.9476549191
 21
-0.1730076647
 31
0.0
  0
ARC
  5
21A
330
1F
100
AcDbEntity
  8
0
  6
Continuous
 62
     7
370
    25
100
AcDbCircle
 10
-2.9423650888
 20
-0.0679387297
 30
0.0
 40
0.1033315334590438
100
AcDbArc
 50
225.473227408
 51
256.2972972973
  0
ARC
  5
21B
330
1F
100
AcDbEntity
  8
0
  6
Continuous
 62
     7
370
    25
100
AcDbCircle
 10
0.0
 20
0.0
 30
0.0
 40
3.018149331363402
100
AcDbArc
 50
182.175662626
 51
182.6892022388
  0
ARC
  5
21C
330
1F
100
AcDbEntity
  8
0
  6
Continuous
 62
     7
370
    25
100
AcDbCircle
 10
-2.9375267916
 20
-0.1818360118
 30
0.0
 40
0.103331533459044
100
AcDbArc
 50
108.5675675676
 51
139.3916374569
  0
LINE
  5
21D
330
1F
100
AcDbEntity
  8
0
  6
Continuous
 62
     7
370
    25
100
AcDbLine
 10
-2.9517080334
 20
-0.0775941978
 30
0.0
 11
-2.9704299049
 21
-0.0838830081
 31
0.0
  0
ARC
  5
21E
330
1F
100
AcDbEntity
  8
0
  6
Continuous
 62
     7
370
    25
100
AcDbCircle
 10
-3.0061026034
 20
0.084339157
 30
0.0
 40
0.1708250000000071
100
AcDbArc
 50
288.5675675676
 51
305.8108108108
  0
ARC
  5
21F
330
1F
100
AcDbEntity
  8
0
  6
Continuous
 62
     7
370
    25
100
AcDbCircle
 10
-2.9452510906
 20
0.0
 30
0.0
 40
0.0668250000000043
100
AcDbArc
 50
305.8108108108
 51
54.1891891892
  0
ARC
  5
220
330
1F
100
AcDbEntity
  8
0
  6
Continuous
 62
     7
370
    25
100
AcDbCircle
 10
-3.0061026034
 20
-0.084339157
 30
0.0
 40
0.1708250000000091
100
AcDbArc
 50
54.1891891892
 51
71.4324324324
  0
LINE
  5
221
330
1F
100
AcDbEntity
  8
0
  6
Continuous
 62
     7
370
    25
100
AcDbLine
 10
-2.9704299049
 20
0.0838830081
 30
0.0
 11
-2.9517080334
 21
0.0775941978
 31
0.0
  0
ARC
  5
222
330
1F
100
AcDbEntity
  8
0
  6
Continuous
 62
     7
370
    25
100
AcDbCircle
 10
-2.9375267916
 20
0.1818360118
 30
0.0
 40
0.1033315334590438
100
AcDbArc
 50
220.6083625431
 51
251.4324324324
  0
ARC
  5
223
330
1F
100
AcDbEntity
  8
0
  6
Continuous
 62
     7
370
    25
100
AcDbCircle
 10
0.0
 20
0.0
 30
0.0
 40
3.018149331363402
100
AcDbArc
 50
177.3107977612
 51
177.824337374
  0
ARC
  5
224
330
1F
100
AcDbEntity
  8
0
  6
Continuous
 62
     7
370
    25
100
AcDbCircle
 10
-2.9423650888
 20
0.0679387297
 30
0.0
 40
0.1033315334590438
100
AcDbArc
 50
103.7027027027
 51
134.526772592
  0
LINE
  5
225
330
1F
100
AcDbEntity
  8
0
  6
Continuous
 62
     7
370
    25
100
AcDbLine
 10
-2.9476549191
 20
0.1730076647
 30
0.0
 11
-2.9668426732
 21
0.1683292356
 31
0.0
  0
ARC
  5
226
330
1F
100
AcDbEntity
  8
0
  6
Continuous
 62
     7
370
    25
100
AcDbCircle
 10
-2.9881206241
 20
0.3389706345
 30
0.0
 40
0.1708250000000073
100
AcDbArc
 50
283.7027027027
 51
300.9459459459
  0
ARC
  5
227
330
1F
100
AcDbEntity
  8
0
  6
Continuous
 62
     7
370
    25
100
AcDbCircle
 10
-2.9346407898
 20
0.2497747416
 30
0.0
 40
0.0668250000000044
100
AcDbArc
 50
300.9459459459
 51
49.3243243243
  0
ARC
  5
228
330
1F
100
AcDbEntity
  8
0
  6
Continuous
 62
     7
370
    25
100
AcDbCircle
 10
-3.0024255445
 20
0.1708999862
 30
0.0
 40
0.1708250000000094
100
AcDbArc
 50
49.3243243243
 51
66.5675675676
  0
LINE
  5
229
330
1F
100
AcDbEntity
  8
0
  6
Continuous
 62
     7
370
    25
100
AcDbLine
 10
-2.9526151211
 20
0.3354908728
 30
0.0
 11
-2.9344940238
 21
0.3276369924
 31
0.0
  0
ARC
  5
22A
330
1F
100
AcDbEntity
  8
0
  6
Continuous
 62
     7
370
    25
100
AcDbCircle
 10
-2.9115235466
 20
0.4303006208
 30
0.0
 40
0.1033315334590438
100
AcDbArc
 50
215.7434976782
 51
246.5675675676
  0
ARC
  5
22B
330
1F
100
AcDbEntity
  8
0
  6
Continuous
 62
     7
370
    25
100
AcDbCircle
 10
0.0
 20
0.0
 30
0.0
 40
3.018149331363402
100
AcDbArc
 50
172.4459328963
 51
172.9594725091
  0
ARC
  5
22C
330
1F
100
AcDbEntity
  8
0
  6
Continuous
 62
     7
370
    25
100
AcDbCircle
 10
-2.9260035781
 20
0.3172239711
 30
0.0
 40
0.1033315334590442
100
AcDbArc
 50
98.8378378378
 51
129.6619077272
  0
LINE
  5
22D
330
1F
100
AcDbEntity
  8
0
  6
Continuous
 62
     7
370
    25
100
AcDbLine
 10
-2.9223638835
 20
0.4223630031
 30
0.0
 11
-2.941879272
 21
0.4193286633
 31
0.0
  0
ARC
  5
22E
330
1F
100
AcDbEntity
  8
0
  6
Continuous
 62
     7
370
    25
100
AcDbCircle
 10
-2.9486091673
 20
0.5911598209
 30
0.0
 40
0.1708250000000074
100
AcDbArc
 50
278.8378378378
 51
296.0810810811
  0
ARC
  5
22F
330
1F
100
AcDbEntity
  8
0
  6
Continuous
 62
     7
370
    25
100
AcDbCircle
 10
-2.9028863349
 20
0.4977498504
 30
0.0
 40
0.0668250000000041
100
AcDbArc
 50
296.0810810811
 51
44.4594594594
  0
ARC
  5
230
330
1F
100
AcDbEntity
  8
0
  6
Continuous
 62
     7
370
    25
100
AcDbCircle
 10
-2.9771159407
 20
0.424907791
 30
0.0
 40
0.1708250000000091
100
AcDbArc
 50
44.4594594595
 51
61.7027027027
  0
LINE
  5
231
330
1F
100
AcDbEntity
  8
0
  6
Continuous
 62
     7
370
    25
100
AcDbLine
 10
-2.9135266776
 20
0.584681518
 30
0.0
 11
-2.8961369174
 21
0.5753191549
 31
0.0
  0
ARC
  5
232
330
1F
100
AcDbEntity
  8
0
  6
Continuous
 62
     7
370
    25
100
AcDbCircle
 10
-2.8645427077
 20
0.6756649039
 30
0.0
 40
0.1033315334590442
100
AcDbArc
 50
210.8786328134
 51
241.7027027027
  0
ARC
  5
233
330
1F
100
AcDbEntity
  8
0
  6
Continuous
 62
     7
370
    25
100
AcDbCircle
 10
0.0
 20
0.0
 30
0.0
 40
3.018149331363402
100
AcDbArc
 50
167.5810680314
 51
168.0946076442
  0
ARC
  5
234
330
1F
100
AcDbEntity
  8
0
  6
Continuous
 62
     7
370
    25
100
AcDbCircle
 10
-2.8885601445
 20
0.5642236066
 30
0.0
 40
0.1033315334590443
100
AcDbArc
 50
93.972972973
 51
124.7970428623
  0
LINE
  5
235
330
1F
100
AcDbEntity
  8
0
  6
Continuous
 62
     7
370
    25
100
AcDbLine
 10
-2.8760171492
 20
0.6686752063
 30
0.0
 11
-2.8957195633
 21
0.6673068183
 31
0.0
  0
ARC
  5
236
330
1F
100
AcDbEntity
  8
0
  6
Continuous
 62
     7
370
    25
100
AcDbCircle
 10
-2.8878529139
 20
0.8390896872
 30
0.0
 40
0.1708250000000069
100
AcDbArc
 50
273.972972973
 51
291.2162162162
  0
ARC
  5
237
330
1F
100
AcDbEntity
  8
0
  6
Continuous
 62
     7
370
    25
100
AcDbCircle
 10
-2.8502165174
 20
0.7421386601
 30
0.0
 40
0.0668250000000041
100
AcDbArc
 50
291.2162162162
 51
39.5945945946
  0
ARC
  5
238
330
1F
100
AcDbEntity
  8
0
  6
Continuous
 62
     7
370
    25
100
AcDbCircle
 10
-2.9303561484
 20
0.6758541254
 30
0.0
 40
0.1708250000000093
100
AcDbArc
 50
39.5945945946
 51
56.8378378378
  0
LINE
  5
239
330
1F
100
AcDbEntity
  8
0
  6
Continuous
 62
     7
370
    25
100
AcDbLine
 10
-2.8534462077
 20
0.8296595195
 30
0.0
 11
-2.8369130781
 21
0.8188561298
 31
0.0
  0
ARC
  5
23A
330
1F
100
AcDbEntity
  8
0
  6
Continuous
 62
     7
370
    25
100
AcDbCircle
 10
-2.796922773
 20
0.9161610058
 30
0.0
 40
0.1033315334590438
100
AcDbArc
 50
206.0137679485
 51
236.8378378378
  0
ARC
  5
23B
330
1F
100
AcDbEntity
  8
0
  6
Continuous
 62
     7
370
    25
100
AcDbCircle
 10
0.0
 20
0.0
 30
0.0
 40
3.018149331363401
100
AcDbArc
 50
162.7162031666
 51
163.2297427794
  0
ARC
  5
23C
330
1F
100
AcDbEntity
  8
0
  6
Continuous
 62
     7
370
    25
100
AcDbCircle
 10
-2.8303045689
 20
0.8071579981
 30
0.0
 40
0.103331533459044
100
AcDbArc
 50
89.1081081081
 51
119.9321779974
  0
LINE
  5
23D
330
1F
100
AcDbEntity
  8
0
  6
Continuous
 62
     7
370
    25
100
AcDbLine
 10
-2.8089486455
 20
0.9101695894
 30
0.0
 11
-2.8286961287
 21
0.9104770124
 31
0.0
  0
ARC
  5
23E
330
1F
100
AcDbEntity
  8
0
  6
Continuous
 62
     7
370
    25
100
AcDbCircle
 10
-2.806289614
 20
1.0809738931
 30
0.0
 40
0.1708250000000071
100
AcDbArc
 50
269.1081081081
 51
286.3513513514
  0
ARC
  5
23F
330
1F
100
AcDbEntity
  8
0
  6
Continuous
 62
     7
370
    25
100
AcDbCircle
 10
-2.7770108246
 20
0.9811803438
 30
0.0
 40
0.0668250000000043
100
AcDbArc
 50
286.3513513513
 51
34.7297297297
  0
ARC
  5
240
330
1F
100
AcDbEntity
  8
0
  6
Continuous
 62
     7
370
    25
100
AcDbCircle
 10
-2.8624830729
 20
0.9219309154
 30
0.0
 40
0.1708250000000089
100
AcDbArc
 50
34.7297297297
 51
51.972972973
  0
LINE
  5
241
330
1F
100
AcDbEntity
  8
0
  6
Continuous
 62
     7
370
    25
100
AcDbLine
 10
-2.7728065925
 20
1.0686598052
 30
0.0
 11
-2.7572492152
 21
1.0564932274
 31
0.0
  0
ARC
  5
242
330
1F
100
AcDbEntity
  8
0
  6
Continuous
 62
     7
370
    25
100
AcDbCircle
 10
-2.7091509456
 20
1.1500561468
 30
0.0
 40
0.1033315334590446
100
AcDbArc
 50
201.1489030837
 51
231.972972973
  0
ARC
  5
243
330
1F
100
AcDbEntity
  8
0
  6
Continuous
 62
     7
370
    25
100
AcDbCircle
 10
0.0
 20
0.0
 30
0.0
 40
3.018149331363402
100
AcDbArc
 50
157.8513383017
 51
158.3648779145
  0
ARC
  5
244
330
1F
100
AcDbEntity
  8
0
  6
Continuous
 62
     7
370
    25
100
AcDbCircle
 10
-2.7516565841
 20
1.0442767976
 30
0.0
 40
0.103331533459044
100
AcDbArc
 50
84.2432432432
 51
115.0673131326
  0
LINE
  5
245
330
1F
100
AcDbEntity
  8
0
  6
Continuous
 62
     7
370
    25
100
AcDbLine
 10
-2.7216416023
 20
1.1451061797
 30
0.0
 11
-2.7412918738
 21
1.1470871988
 31
0.0
  0
ARC
  5
246
330
1F
100
AcDbEntity
  8
0
  6
Continuous
 62
     7
370
    25
100
AcDbCircle
 10
-2.7045069332
 20
1.3150696573
 30
0.0
 40
0.170825000000007
100
AcDbArc
 50
264.2432432432
 51
281.4864864865
  0
ARC
  5
247
330
1F
100
AcDbEntity
  8
0
  6
Continuous
 62
     7
370
    25
100
AcDbCircle
 10
-2.6837967051
 20
1.2131526006
 30
0.0
 40
0.0668250000000043
100
AcDbArc
 50
281.4864864865
 51
29.8648648648
  0
ARC
  5
248
330
1F
100
AcDbEntity
  8
0
  6
Continuous
 62
     7
370
    25
100
AcDbCircle
 10
-2.7739857412
 20
1.161365172
 30
0.0
 40
0.1708250000000094
100
AcDbArc
 50
29.8648648649
 51
47.1081081081
  0
LINE
  5
249
330
1F
100
AcDbEntity
  8
0
  6
Continuous
 62
     7
370
    25
100
AcDbLine
 10
-2.6721888423
 20
1.2999603725
 30
0.0
 11
-2.6577193084
 21
1.2865182672
 31
0.0
  0
ARC
  5
24A
330
1F
100
AcDbEntity
  8
0
  6
Continuous
 62
     7
370
    25
100
AcDbCircle
 10
-2.6018596235
 20
1.3756651068
 30
0.0
 40
0.1033315334590435
100
AcDbArc
 50
196.2840382188
 51
227.1081081081
  0
ARC
  5
24B
330
1F
100
AcDbEntity
  8
0
  6
Continuous
 62
     7
370
    25
100
AcDbCircle
 10
0.0
 20
0.0
 30
0.0
 40
3.018149331363401
100
AcDbArc
 50
152.9864734368
 51
153.5000130496
  0
ARC
  5
24C
330
1F
100
AcDbEntity
  8
0
  6
Continuous
 62
     7
370
    25
100
AcDbCircle
 10
-2.6531828505
 20
1.273871559
 30
0.0
 40
0.1033315334590437
100
AcDbArc
 50
79.3783783784
 51
110.2024482677
  0
LINE
  5
24D
330
1F
100
AcDbEntity
  8
0
  6
Continuous
 62
     7
370
    25
100
AcDbLine
 10
-2.6147250691
 20
1.3717922537
 30
0.0
 11
-2.634136548
 21
1.3754325956
 31
0.0
  0
ARC
  5
24E
330
1F
100
AcDbEntity
  8
0
  6
Continuous
 62
     7
370
    25
100
AcDbCircle
 10
-2.5832382179
 20
1.5396903146
 30
0.0
 40
0.1708250000000068
100
AcDbArc
 50
259.3783783784
 51
276.6216216216
  0
ARC
  5
24F
330
1F
100
AcDbEntity
  8
0
  6
Continuous
 62
     7
370
    25
100
AcDbCircle
 10
-2.5712457689
 20
1.4363840651
 30
0.0
 40
0.0668250000000045
100
AcDbArc
 50
276.6216216216
 51
25.0
  0
ARC
  5
250
330
1F
100
AcDbEntity
  8
0
  6
Continuous
 62
     7
370
    25
100
AcDbCircle
 10
-2.6655017788
 20
1.3924317659
 30
0.0
 40
0.1708250000000087
100
AcDbArc
 50
25.0
 51
42.2432432432
  0
LINE
  5
251
330
1F
100
AcDbEntity
  8
0
  6
Continuous
 62
     7
370
    25
100
AcDbLine
 10
-2.5523179102
 20
1.5218946955
 30
0.0
 11
-2.5390404732
 21
1.5072739133
 31
0.0
  0
ARC
  5
252
330
1F
100
AcDbEntity
  8
0
  6
Continuous
 62
     7
370
    25
100
AcDbCircle
 10
-2.4758218433
 20
1.5913623682
 30
0.0
 40
0.103331533459044
100
AcDbArc
 50
191.4191733539
 51
222.2432432432
  0
ARC
  5
253
330
1F
100
AcDbEntity
  8
0
  6
Continuous
 62
     7
370
    25
100
AcDbCircle
 10
0.0
 20
0.0
 30
0.0
 40
3.018149331363402
100
AcDbArc
 50
148.121608572
 51
148.6351481848
  0
ARC
  5
254
330
1F
100
AcDbEntity
  8
0
  6
Continuous
 62
     7
370
    25
100
AcDbCircle
 10
-2.5355928736
 20
1.4942880465
 30
0.0
 40
0.1033315334590443
100
AcDbArc
 50
74.5135135135
 51
105.3375834028
  0
LINE
  5
255
330
1F
100
AcDbEntity
  8
0
  6
Continuous
 62
     7
370
    25
100
AcDbLine
 10
-2.4889693818
 20
1.5885945331
 30
0.0
 11
-2.5080022081
 21
1.5938679691
 31
0.0
  0
ARC
  5
256
330
1F
100
AcDbEntity
  8
0
  6
Continuous
 62
     7
370
    25
100
AcDbCircle
 10
-2.4433572121
 20
1.7532174678
 30
0.0
 40
0.1708250000000074
100
AcDbArc
 50
254.5135135135
 51
271.7567567568
  0
ARC
  5
257
330
1F
100
AcDbEntity
  8
0
  6
Continuous
 62
     7
370
    25
100
AcDbCircle
 10
-2.440168948
 20
1.6492663496
 30
0.0
 40
0.0668250000000043
100
AcDbArc
 50
271.7567567568
 51
20.1351351351
  0
ARC
  5
258
330
1F
100
AcDbEntity
  8
0
  6
Continuous
 62
     7
370
    25
100
AcDbCircle
 10
-2.5378128149
 20
1.6134658571
 30
0.0
 40
0.1708250000000091
100
AcDbArc
 50
20.1351351351
 51
37.3783783784
  0
LINE
  5
259
330
1F
100
AcDbEntity
  8
0
  6
Continuous
 62
     7
370
    25
100
AcDbLine
 10
-2.4140574691
 20
1.7328637323
 30
0.0
 11
-2.4020677931
 21
1.7171696164
 31
0.0
  0
ARC
  5
25A
330
1F
100
AcDbEntity
  8
0
  6
Continuous
 62
     7
370
    25
100
AcDbCircle
 10
-2.3319457099
 20
1.7955938273
 30
0.0
 40
0.1033315334590445
100
AcDbArc
 50
186.5543084891
 51
217.3783783784
  0
ARC
  5
25B
330
1F
100
AcDbEntity
  8
0
  6
Continuous
 62
     7
370
    25
100
AcDbCircle
 10
0.0
 20
0.0
 30
0.0
 40
3.018149331363403
100
AcDbArc
 50
143.2567437071
 51
143.7702833199
  0
ARC
  5
25C
330
1F
100
AcDbEntity
  8
0
  6
Continuous
 62
     7
370
    25
100
AcDbCircle
 10
-2.399733892
 20
1.7039381544
 30
0.0
 40
0.1033315334590444
100
AcDbArc
 50
69.6486486486
 51
100.472718538
  0
LINE
  5
25D
330
1F
100
AcDbEntity
  8
0
  6
Continuous
 62
     7
370
    25
100
AcDbLine
 10
-2.3452806131
 20
1.7939509526
 30
0.0
 11
-2.3637976548
 21
1.8008194873
 31
0.0
  0
ARC
  5
25E
330
1F
100
AcDbEntity
  8
0
  6
Continuous
 62
     7
370
    25
100
AcDbCircle
 10
-2.2858717616
 20
1.954112649
 30
0.0
 40
0.1708250000000071
100
AcDbArc
 50
249.6486486486
 51
266.8918918919
  0
ARC
  5
25F
330
1F
100
AcDbEntity
  8
0
  6
Continuous
 62
     7
370
    25
100
AcDbCircle
 10
-2.2915106539
 20
1.8502656322
 30
0.0
 40
0.0668250000000044
100
AcDbArc
 50
266.8918918919
 51
15.2702702703
  0
ARC
  5
260
330
1F
100
AcDbEntity
  8
0
  6
Continuous
 62
     7
370
    25
100
AcDbCircle
 10
-2.3918388515
 20
1.8228748898
 30
0.0
 40
0.1708250000000088
100
AcDbArc
 50
15.2702702703
 51
32.5135135135
  0
LINE
  5
261
330
1F
100
AcDbEntity
  8
0
  6
Continuous
 62
     7
370
    25
100
AcDbLine
 10
-2.2584036886
 20
1.9313474463
 30
0.0
 11
-2.2477881596
 21
1.914693073
 31
0.0
  0
ARC
  5
262
330
1F
100
AcDbEntity
  8
0
  6
Continuous
 62
     7
370
    25
100
AcDbCircle
 10
-2.1712678543
 20
1.9868879917
 30
0.0
 40
0.1033315334590445
100
AcDbArc
 50
181.6894436242
 51
212.5135135135
  0
ARC
  5
263
330
1F
100
AcDbEntity
  8
0
  6
Continuous
 62
     7
370
    25
100
AcDbCircle
 10
0.0
 20
0.0
 30
0.0
 40
3.018149331363403
100
AcDbArc
 50
138.3918788423
 51
138.905418455
  0
ARC
  5
264
330
1F
100
AcDbEntity
  8
0
  6
Continuous
 62
     7
370
    25
100
AcDbCircle
 10
-2.2465847727
 20
1.9013113489
 30
0.0
 40
0.1033315334590444
100
AcDbArc
 50
64.7837837838
 51
95.6078536731
  0
LINE
  5
265
330
1F
100
AcDbEntity
  8
0
  6
Continuous
 62
     7
370
    25
100
AcDbLine
 10
-2.1846940438
 20
1.9863819142
 30
0.0
 11
-2.2025618852
 21
1.9947960599
 31
0.0
  0
ARC
  5
266
330
1F
100
AcDbEntity
  8
0
  6
Continuous
 62
     7
370
    25
100
AcDbCircle
 10
-2.1119165527
 20
2.1409284037
 30
0.0
 40
0.1708250000000072
100
AcDbArc
 50
244.7837837838
 51
262.027027027
  0
ARC
  5
267
330
1F
100
AcDbEntity
  8
0
  6
Continuous
 62
     7
370
    25
100
AcDbCircle
 10
-2.1263419731
 20
2.0379337085
 30
0.0
 40
0.0668250000000044
100
AcDbArc
 50
262.027027027
 51
10.4054054054
  0
ARC
  5
268
330
1F
100
AcDbEntity
  8
0
  6
Continuous
 62
     7
370
    25
100
AcDbCircle
 10
-2.2286316344
 20
2.0191500671
 30
0.0
 40
0.1708250000000089
100
AcDbArc
 50
10.4054054054
 51
27.6486486486
  0
LINE
  5
269
330
1F
100
AcDbEntity
  8
0
  6
Continuous
 62
     7
370
    25
100
AcDbLine
 10
-2.0864780577
 20
2.1159157576
 30
0.0
 11
-2.0773131608
 21
2.0984211222
 31
0.0
  0
ARC
  5
26A
330
1F
100
AcDbEntity
  8
0
  6
Continuous
 62
     7
370
    25
100
AcDbCircle
 10
-1.994945964
 20
2.1638665826
 30
0.0
 40
0.1033315334590437
100
AcDbArc
 50
176.8245787593
 51
207.6486486486
  0
ARC
  5
26B
330
1F
100
AcDbEntity
  8
0
  6
Continuous
 62
     7
370
    25
100
AcDbCircle
 10
0.0
 20
0.0
 30
0.0
 40
3.018149331363402
100
AcDbArc
 50
133.5270139774
 51
134.0405535902
  0
ARC
  5
26C
330
1F
100
AcDbEntity
  8
0
  6
Continuous
 62
     7
370
    25
100
AcDbCircle
 10
-2.0772489587
 20
2.0849855516
 30
0.0
 40
0.1033315334590443
100
AcDbArc
 50
59.9189189189
 51
90.7429888082
  0
LINE
  5
26D
330
1F
100
AcDbEntity
  8
0
  6
Continuous
 62
     7
370
    25
100
AcDbLine
 10
-2.0083667039
 20
2.1645009487
 30
0.0
 11
-2.0254566068
 21
2.1744000811
 31
0.0
  0
ARC
  5
26E
330
1F
100
AcDbEntity
  8
0
  6
Continuous
 62
     7
370
    25
100
AcDbCircle
 10
-1.9227449366
 20
2.3123187203
 30
0.0
 40
0.170825000000007
100
AcDbArc
 50
239.9189189189
 51
257.1621621622
  0
ARC
  5
26F
330
1F
100
AcDbEntity
  8
0
  6
Continuous
 62
     7
370
    25
100
AcDbCircle
 10
-1.9458529496
 20
2.2109184257
 30
0.0
 40
0.0668250000000043
100
AcDbArc
 50
257.1621621622
 51
5.5405405405
  0
ARC
  5
270
330
1F
100
AcDbEntity
  8
0
  6
Continuous
 62
     7
370
    25
100
AcDbCircle
 10
-2.0493670753
 20
2.2008772219
 30
0.0
 40
0.1708250000000093
100
AcDbArc
 50
5.5405405405
 51
22.7837837838
  0
LINE
  5
271
330
1F
100
AcDbEntity
  8
0
  6
Continuous
 62
     7
370
    25
100
AcDbLine
 10
-1.8995193047
 20
2.2852388474
 30
0.0
 11
-1.8918710732
 21
2.2670299991
 31
0.0
  0
ARC
  5
272
330
1F
100
AcDbEntity
  8
0
  6
Continuous
 62
     7
370
    25
100
AcDbCircle
 10
-1.8042504423
 20
2.3252544652
 30
0.0
 40
0.103331533459044
100
AcDbArc
 50
171.9597138945
 51
202.7837837838
  0
ARC
  5
273
330
1F
100
AcDbEntity
  8
0
  6
Continuous
 62
     7
370
    25
100
AcDbCircle
 10
0.0
 20
0.0
 30
0.0
 40
3.018149331363402
100
AcDbArc
 50
128.6621491125
 51
129.1756887253
  0
ARC
  5
274
330
1F
100
AcDbEntity
  8
0
  6
Continuous
 62
     7
370
    25
100
AcDbCircle
 10
-1.8929465183
 20
2.2536373855
 30
0.0
 40
0.1033315334590441
100
AcDbArc
 50
55.0540540541
 51
85.8781239434
  0
LINE
  5
275
330
1F
100
AcDbEntity
  8
0
  6
Continuous
 62
     7
370
    25
100
AcDbLine
 10
-1.8175690358
 20
2.3270247043
 30
0.0
 11
-1.8337578671
 21
2.3383374999
 31
0.0
  0
ARC
  5
276
330
1F
100
AcDbEntity
  8
0
  6
Continuous
 62
     7
370
    25
100
AcDbCircle
 10
-1.7197198992
 20
2.4670487275
 30
0.0
 40
0.1708250000000074
100
AcDbArc
 50
235.0540540541
 51
252.2972972973
  0
ARC
  5
277
330
1F
100
AcDbEntity
  8
0
  6
Continuous
 62
     7
370
    25
100
AcDbCircle
 10
-1.751344011
 20
2.3679734251
 30
0.0
 40
0.0668250000000042
100
AcDbArc
 50
252.2972972973
 51
0.6756756757
  0
ARC
  5
278
330
1F
100
AcDbEntity
  8
0
  6
Continuous
 62
     7
370
    25
100
AcDbCircle
 10
-1.8553367795
 20
2.3667470059
 30
0.0
 40
0.1708250000000091
100
AcDbArc
 50
0.6756756757
 51
17.9189189189
  0
LINE
  5
279
330
1F
100
AcDbEntity
  8
0
  6
Continuous
 62
     7
370
    25
100
AcDbLine
 10
-1.6988744715
 20
2.438096739
 30
0.0
 11
-1.6927980111
 21
2.4193048729
 31
0.0
  0
ARC
  5
27A
330
1F
100
AcDbEntity
  8
0
  6
Continuous
 62
     7
370
    25
100
AcDbCircle
 10
-1.6005552549
 20
2.4698888361
 30
0.0
 40
0.1033315334590436
100
AcDbArc
 50
167.0948490296
 51
197.9189189189
  0
ARC
  5
27B
330
1F
100
AcDbEntity
  8
0
  6
Continuous
 62
     7
370
    25
100
AcDbCircle
 10
0.0
 20
0.0
 30
0.0
 40
3.018149331363402
100
AcDbArc
 50
123.7972842477
 51
124.3108238605
  0
ARC
  5
27C
330
1F
100
AcDbEntity
  8
0
  6
Continuous
 62
     7
370
    25
100
AcDbCircle
 10
-1.6950053549
 20
2.4060517105
 30
0.0
 40
0.1033315334590443
100
AcDbArc
 50
50.1891891892
 51
81.0132590785
  0
LINE
  5
27D
330
1F
100
AcDbEntity
  8
0
  6
Continuous
 62
     7
370
    25
100
AcDbLine
 10
-1.6136757412
 20
2.4727821935
 30
0.0
 11
-1.62884686
 21
2.4854271435
 31
0.0
  0
ARC
  5
27E
330
1F
100
AcDbEntity
  8
0
  6
Continuous
 62
     7
370
    25
100
AcDbCircle
 10
-1.5043042405
 20
2.6040035921
 30
0.0
 40
0.1708250000000068
100
AcDbArc
 50
230.1891891892
 51
247.4324324324
  0
ARC
  5
27F
330
1F
100
AcDbEntity
  8
0
  6
Continuous
 62
     7
370
    25
100
AcDbCircle
 10
-1.5442165987
 20
2.5079671216
 30
0.0
 40
0.0668250000000041
100
AcDbArc
 50
247.4324324324
 51
355.8108108108
  0
ARC
  5
280
330
1F
100
AcDbEntity
  8
0
  6
Continuous
 62
     7
370
    25
100
AcDbCircle
 10
-1.6479387397
 20
2.5155643235
 30
0.0
 40
0.1708250000000096
100
AcDbArc
 50
355.8108108108
 51
13.0540540541
  0
LINE
  5
281
330
1F
100
AcDbEntity
  8
0
  6
Continuous
 62
     7
370
    25
100
AcDbLine
 10
-1.4859892089
 20
2.5733880877
 30
0.0
 11
-1.4815283005
 21
2.5541485996
 31
0.0
  0
ARC
  5
282
330
1F
100
AcDbEntity
  8
0
  6
Continuous
 62
     7
370
    25
100
AcDbCircle
 10
-1.3853280301
 20
2.5967276014
 30
0.0
 40
0.1033315334590438
100
AcDbArc
 50
162.2299841647
 51
193.0540540541
  0
ARC
  5
283
330
1F
100
AcDbEntity
  8
0
  6
Continuous
 62
     7
370
    25
100
AcDbCircle
 10
0.0
 20
0.0
 30
0.0
 40
3.018149331363402
100
AcDbArc
 50
118.9324193828
 51
119.4459589956
  0
ARC
  5
284
330
1F
100
AcDbEntity
  8
0
  6
Continuous
 62
     7
370
    25
100
AcDbCircle
 10
-1.484851639
 20
2.5411303778
 30
0.0
 40
0.1033315334590442
100
AcDbArc
 50
45.3243243243
 51
76.1483942136
  0
LINE
  5
285
330
1F
100
AcDbEntity
  8
0
  6
Continuous
 62
     7
370
    25
100
AcDbLine
 10
-1.3981558759
 20
2.6007232303
 30
0.0
 11
-1.4121999739
 21
2.6146092275
 31
0.0
  0
ARC
  5
286
330
1F
100
AcDbEntity
  8
0
  6
Continuous
 62
     7
370
    25
100
AcDbCircle
 10
-1.2780500352
 20
2.7221965511
 30
0.0
 40
0.1708250000000071
100
AcDbArc
 50
225.3243243243
 51
242.5675675676
  0
ARC
  5
287
330
1F
100
AcDbEntity
  8
0
  6
Continuous
 62
     7
370
    25
100
AcDbCircle
 10
-1.3259630704
 20
2.6298908575
 30
0.0
 40
0.0668250000000045
100
AcDbArc
 50
242.5675675676
 51
350.9459459459
  0
ARC
  5
288
330
1F
100
AcDbEntity
  8
0
  6
Continuous
 62
     7
370
    25
100
AcDbCircle
 10
-1.4286672634
 20
2.6462569425
 30
0.0
 40
0.1708250000000088
100
AcDbArc
 50
350.9459459459
 51
8.1891891892
  0
LINE
  5
289
330
1F
100
AcDbEntity
  8
0
  6
Continuous
 62
     7
370
    25
100
AcDbLine
 10
-1.2623973599
 20
2.6901381162
 30
0.0
 11
-1.2595841446
 21
2.6705896272
 31
0.0
  0
ARC
  5
28A
330
1F
100
AcDbEntity
  8
0
  6
Continuous
 62
     7
370
    25
100
AcDbCircle
 10
-1.1601194852
 20
2.7048568847
 30
0.0
 40
0.1033315334590438
100
AcDbArc
 50
157.3651192999
 51
188.1891891892
  0
ARC
  5
28B
330
1F
100
AcDbEntity
  8
0
  6
Continuous
 62
     7
370
    25
100
AcDbCircle
 10
0.0
 20
0.0
 30
0.0
 40
3.018149331363401
100
AcDbArc
 50
114.0675545179
 51
114.5810941307
  0
ARC
  5
28C
330
1F
100
AcDbEntity
  8
0
  6
Continuous
 62
     7
370
    25
100
AcDbCircle
 10
-1.2639995331
 20
2.6579001424
 30
0.0
 40
0.1033315334590444
100
AcDbArc
 50
40.4594594595
 51
71.2835293488
  0
LINE
  5
28D
330
1F
100
AcDbEntity
  8
0
  6
Continuous
 62
     7
370
    25
100
AcDbLine
 10
-1.1725622655
 20
2.7099259967
 30
0.0
 11
-1.1853781546
 21
2.7249529921
 31
0.0
  0
ARC
  5
28E
330
1F
100
AcDbEntity
  8
0
  6
Continuous
 62
     7
370
    25
100
AcDbCircle
 10
-1.0425874502
 20
2.8207760216
 30
0.0
 40
0.1708250000000062
100
AcDbArc
 50
220.4594594595
 51
237.7027027027
  0
ARC
  5
28F
330
1F
100
AcDbEntity
  8
0
  6
Continuous
 62
     7
370
    25
100
AcDbCircle
 10
-1.0981559478
 20
2.7328661696
 30
0.0
 40
0.0668250000000038
100
AcDbArc
 50
237.7027027027
 51
346.0810810811
  0
ARC
  5
290
330
1F
100
AcDbEntity
  8
0
  6
Continuous
 62
     7
370
    25
100
AcDbCircle
 10
-1.1991022068
 20
2.7578832196
 30
0.0
 40
0.1708250000000089
100
AcDbArc
 50
346.0810810811
 51
3.3243243243
  0
LINE
  5
291
330
1F
100
AcDbEntity
  8
0
  6
Continuous
 62
     7
370
    25
100
AcDbLine
 10
-1.029709909
 20
2.787505638
 30
0.0
 11
-1.028564656
 21
2.7677889953
 31
0.0
  0
ARC
  5
292
330
1F
100
AcDbEntity
  8
0
  6
Continuous
 62
     7
370
    25
100
AcDbCircle
 10
-0.9265522527
 20
2.7934976122
 30
0.0
 40
0.1033315334590442
100
AcDbArc
 50
152.500254435
 51
183.3243243243
  0
ARC
  5
293
330
1F
100
AcDbEntity
  8
0
  6
Continuous
 62
     7
370
    25
100
AcDbCircle
 10
0.0
 20
0.0
 30
0.0
 40
3.018149331363402
100
AcDbArc
 50
109.2026896531
 51
109.7162292659
  0
ARC
  5
294
330
1F
100
AcDbEntity
  8
0
  6
Continuous
 62
     7
370
    25
100
AcDbCircle
 10
-1.0340402815
 20
2.7555196756
 30
0.0
 40
0.1033315334590441
100
AcDbArc
 50
35.5945945946
 51
66.4186644839
  0
LINE
  5
295
330
1F
100
AcDbEntity
  8
0
  6
Continuous
 62
     7
370
    25
100
AcDbLine
 10
-0.9385203171
 20
2.7996036842
 30
0.0
 11
-0.9500156586
 21
2.815663408
 31
0.0
  0
ARC
  5
296
330
1F
100
AcDbEntity
  8
0
  6
Continuous
 62
     7
370
    25
100
AcDbCircle
 10
-0.7996129987
 20
2.8990317362
 30
0.0
 40
0.1708250000000067
100
AcDbArc
 50
215.5945945946
 51
232.8378378378
  0
ARC
  5
297
330
1F
100
AcDbEntity
  8
0
  6
Continuous
 62
     7
370
    25
100
AcDbCircle
 10
-0.8624365865
 20
2.8161511183
 30
0.0
 40
0.0668250000000041
100
AcDbArc
 50
232.8378378378
 51
341.2162162162
  0
ARC
  5
298
330
1F
100
AcDbEntity
  8
0
  6
Continuous
 62
     7
370
    25
100
AcDbCircle
 10
-0.9608975914
 20
2.8496388849
 30
0.0
 40
0.1708250000000093
100
AcDbArc
 50
341.2162162162
 51
358.4594594595
  0
LINE
  5
299
330
1F
100
AcDbEntity
  8
0
  6
Continuous
 62
     7
370
    25
100
AcDbLine
 10
-0.7896033747
 20
2.8647891178
 30
0.0
 11
-0.7901343356
 21
2.8450463803
 31
0.0
  0
ARC
  5
29A
330
1F
100
AcDbEntity
  8
0
  6
Continuous
 62
     7
370
    25
100
AcDbCircle
 10
-0.6863091901
 20
2.8620111255
 30
0.0
 40
0.1033315334590437
100
AcDbArc
 50
147.6353895701
 51
178.4594594595
  0
ARC
  5
29B
330
1F
100
AcDbEntity
  8
0
  6
Continuous
 62
     7
370
    25
100
AcDbCircle
 10
0.0
 20
0.0
 30
0.0
 40
3.018149331363401
100
AcDbArc
 50
104.3378247882
 51
104.851364401
  0
ARC
  5
29C
330
1F
100
AcDbEntity
  8
0
  6
Continuous
 62
     7
370
    25
100
AcDbCircle
 10
-0.7966307461
 20
2.8332856265
 30
0.0
 40
0.1033315334590441
100
AcDbArc
 50
30.7297297297
 51
61.553799619
  0
LINE
  5
29D
330
1F
100
AcDbEntity
  8
0
  6
Continuous
 62
     7
370
    25
100
AcDbLine
 10
-0.6977163083
 20
2.869110163
 30
0.0
 11
-0.7078082779
 21
2.8860869045
 31
0.0
  0
ARC
  5
29E
330
1F
100
AcDbEntity
  8
0
  6
Continuous
 62
     7
370
    25
100
AcDbCircle
 10
-0.5508773173
 20
2.9563998607
 30
0.0
 40
0.1708250000000072
100
AcDbArc
 50
210.7297297297
 51
227.972972973
  0
ARC
  5
29F
330
1F
100
AcDbEntity
  8
0
  6
Continuous
 62
     7
370
    25
100
AcDbCircle
 10
-0.6205033497
 20
2.8791456336
 30
0.0
 40
0.0668250000000039
100
AcDbArc
 50
227.972972973
 51
336.3513513513
  0
ARC
  5
2A0
330
1F
100
AcDbEntity
  8
0
  6
Continuous
 62
     7
370
    25
100
AcDbCircle
 10
-0.7157696867
 20
2.9208628367
 30
0.0
 40
0.1708250000000091
100
AcDbArc
 50
336.3513513514
 51
353.5945945946
  0
LINE
  5
2A1
330
1F
100
AcDbEntity
  8
0
  6
Continuous
 62
     7
370
    25
100
AcDbLine
 10
-0.5438077299
 20
2.9214317263
 30
0.0
 11
-0.5460110791
 21
2.9018051409
 31
0.0
  0
ARC
  5
2A2
330
1F
100
AcDbEntity
  8
0
  6
Continuous
 62
     7
370
    25
100
AcDbCircle
 10
-0.441121254
 20
2.9099037829
 30
0.0
 40
0.1033315334590439
100
AcDbArc
 50
142.7705247053
 51
173.5945945946
  0
ARC
  5
2A3
330
1F
100
AcDbEntity
  8
0
  6
Continuous
 62
     7
370
    25
100
AcDbCircle
 10
0.0
 20
0.0
 30
0.0
 40
3.018149331363402
100
AcDbArc
 50
99.4729599233
 51
99.9864995361
  0
ARC
  5
2A4
330
1F
100
AcDbEntity
  8
0
  6
Continuous
 62
     7
370
    25
100
AcDbCircle
 10
-0.5534814678
 20
2.8906376894
 30
0.0
 40
0.103331533459044
100
AcDbArc
 50
25.8648648649
 51
56.6889347542
  0
LINE
  5
2A5
330
1F
100
AcDbEntity
  8
0
  6
Continuous
 62
     7
370
    25
100
AcDbLine
 10
-0.4518852375
 20
2.9179446373
 30
0.0
 11
-0.4605011225
 21
2.9357160787
 31
0.0
  0
ARC
  5
2A6
330
1F
100
AcDbEntity
  8
0
  6
Continuous
 62
     7
370
    25
100
AcDbCircle
 10
-0.2981725521
 20
2.9924670565
 30
0.0
 40
0.1708250000000071
100
AcDbArc
 50
205.8648648649
 51
223.1081081081
  0
ARC
  5
2A7
330
1F
100
AcDbEntity
  8
0
  6
Continuous
 62
     7
370
    25
100
AcDbCircle
 10
-0.3740993721
 20
2.9213958387
 30
0.0
 40
0.0668250000000039
100
AcDbArc
 50
223.1081081081
 51
331.4864864865
  0
ARC
  5
2A8
330
1F
100
AcDbEntity
  8
0
  6
Continuous
 62
     7
370
    25
100
AcDbCircle
 10
-0.4654846451
 20
2.9710419049
 30
0.0
 40
0.1708250000000092
100
AcDbArc
 50
331.4864864865
 51
348.7297297297
  0
LINE
  5
2A9
330
1F
100
AcDbEntity
  8
0
  6
Continuous
 62
     7
370
    25
100
AcDbLine
 10
-0.294093938
 20
2.9570253524
 30
0.0
 11
-0.2979538003
 21
2.937656329
 31
0.0
  0
ARC
  5
2AA
330
1F
100
AcDbEntity
  8
0
  6
Continuous
 62
     7
370
    25
100
AcDbCircle
 10
-0.1927550292
 20
2.936830517
 30
0.0
 40
0.1033315334590439
100
AcDbArc
 50
137.9056598404
 51
168.7297297297
  0
ARC
  5
2AB
330
1F
100
AcDbEntity
  8
0
  6
Continuous
 62
     7
370
    25
100
AcDbCircle
 10
0.0
 20
0.0
 30
0.0
 40
3.018149331363402
100
AcDbArc
 50
94.6080950585
 51
95.1216346713
  0
ARC
  5
2AC
330
1F
100
AcDbEntity
  8
0
  6
Continuous
 62
     7
370
    25
100
AcDbCircle
 10
-0.3063443429
 20
2.9271626416
 30
0.0
 40
0.1033315334590445
100
AcDbArc
 50
21.0
 51
51.8240698893
  0
LINE
  5
2AD
330
1F
100
AcDbEntity
  8
0
  6
Continuous
 62
     7
370
    25
100
AcDbLine
 10
-0.2027983232
 20
2.9457552536
 30
0.0
 11
-0.2098760458
 21
2.9641933514
 31
0.0
  0
ARC
  5
2AE
330
1F
100
AcDbEntity
  8
0
  6
Continuous
 62
     7
370
    25
100
AcDbCircle
 10
-0.0433194469
 20
3.0069734586
 30
0.0
 40
0.1708250000000071
100
AcDbArc
 50
201.0
 51
218.2432432432
  0
ARC
  5
2AF
330
1F
100
AcDbEntity
  8
0
  6
Continuous
 62
     7
370
    25
100
AcDbCircle
 10
-0.125
 20
2.9425973198
 30
0.0
 40
0.0668250000000043
100
AcDbArc
 50
218.2432432432
 51
326.6216216216
  0
ARC
  5
2B0
330
1F
100
AcDbEntity
  8
0
  6
Continuous
 62
     7
370
    25
100
AcDbCircle
 10
-0.2118457759
 20
2.999814548
 30
0.0
 40
0.1708250000000091
100
AcDbArc
 50
326.6216216216
 51
343.8648648649
  0
LINE
  5
2B1
330
1F
100
AcDbEntity
  8
0
  6
Continuous
 62
     7
370
    25
100
AcDbLine
 10
-0.0422611925
 20
2.9713135429
 30
0.0
 11
-0.0477497576
 21
2.9523416359
 31
0.0
  0
ARC
  5
2B2
330
1F
100
AcDbEntity
  8
0
  6
Continuous
 62
     7
370
    25
100
AcDbCircle
 10
0.057
 20
2.9425973198
 30
0.0
 40
0.1033315334590438
100
AcDbArc
 50
133.0407949755
 51
163.8648648649
  0
CIRCLE
  5
2B3
330
1F
100
AcDbEntity
  8
0
  6
Continuous
 62
     7
370
    25
100
AcDbCircle
 10
-2.0
 20
-0.5
 30
0.0
 40
0.1005000000000003
  0
CIRCLE
  5
2B4
330
1F
100
AcDbEntity
  8
0
  6
Continuous
 62
     7
370
    25
100
AcDbCircle
 10
0.0
 20
0.0
 30
0.0
 40
0.5625
  0
CIRCLE
  5
2B5
330
1F
100
AcDbEntity
  8
0
  6
Continuous
 62
     7
370
    25
100
AcDbCircle
 10
-2.0
 20
0.0
 30
0.0
 40
0.1005000000000003
  0
CIRCLE
  5
2B6
330
1F
100
AcDbEntity
  8
0
  6
Continuous
 62
     7
370
    25
100
AcDbCircle
 10
-2.0
 20
0.5
 30
0.0
 40
0.1005000000000003
  0
CIRCLE
  5
2B7
330
1F
100
AcDbEntity
  8
0
  6
Continuous
 62
     7
370
    25
100
AcDbCircle
 10
0.5
 20
-0.8660254038
 30
0.0
 40
0.1005
  0
CIRCLE
  5
2B8
330
1F
100
AcDbEntity
  8
0
  6
Continuous
 62
     7
370
    25
100
AcDbCircle
 10
0.0
 20
-0.9375
 30
0.0
 40
0.1005
  0
CIRCLE
  5
2B9
330
1F
100
AcDbEntity
  8
0
  6
Continuous
 62
     7
370
    25
100
AcDbCircle
 10
-0.5
 20
-0.8660254038
 30
0.0
 40
0.1005
  0
CIRCLE
  5
2BA
330
1F
100
AcDbEntity
  8
0
  6
Continuous
 62
     7
370
    25
100
AcDbCircle
 10
-0.811898816
 20
-0.46875
 30
0.0
 40
0.1004999999999999
  0
CIRCLE
  5
2BB
330
1F
100
AcDbEntity
  8
0
  6
Continuous
 62
     7
370
    25
100
AcDbCircle
 10
-1.0
 20
0.0
 30
0.0
 40
0.1004999999999999
  0
CIRCLE
  5
2BC
330
1F
100
AcDbEntity
  8
0
  6
Continuous
 62
     7
370
    25
100
AcDbCircle
 10
-0.811898816
 20
0.46875
 30
0.0
 40
0.1004999999999999
  0
CIRCLE
  5
2BD
330
1F
100
AcDbEntity
  8
0
  6
Continuous
 62
     7
370
    25
100
AcDbCircle
 10
-0.5
 20
0.8660254038
 30
0.0
 40
0.1005
  0
CIRCLE
  5
2BE
330
1F
100
AcDbEntity
  8
0
  6
Continuous
 62
     7
370
    25
100
AcDbCircle
 10
0.0
 20
0.9375
 30
0.0
 40
0.1005
  0
CIRCLE
  5
2BF
330
1F
100
AcDbEntity
  8
0
  6
Continuous
 62
     7
370
    25
100
AcDbCircle
 10
0.5
 20
0.8660254038
 30
0.0
 40
0.1005
  0
CIRCLE
  5
2C0
330
1F
100
AcDbEntity
  8
0
  6
Continuous
 62
     7
370
    25
100
AcDbCircle
 10
0.811898816
 20
0.46875
 30
0.0
 40
0.1004999999999999
  0
CIRCLE
  5
2C1
330
1F
100
AcDbEntity
  8
0
  6
Continuous
 62
     7
370
    25
100
AcDbCircle
 10
1.0
 20
0.0
 30
0.0
 40
0.1004999999999998
  0
CIRCLE
  5
2C2
330
1F
100
AcDbEntity
  8
0
  6
Continuous
 62
     7
370
    25
100
AcDbCircle
 10
0.811898816
 20
-0.46875
 30
0.0
 40
0.1004999999999999
  0
CIRCLE
  5
2C3
330
1F
100
AcDbEntity
  8
0
  6
Continuous
 62
     7
370
    25
100
AcDbCircle
 10
2.0
 20
-0.5
 30
0.0
 40
0.1005000000000003
  0
CIRCLE
  5
2C4
330
1F
100
AcDbEntity
  8
0
  6
Continuous
 62
     7
370
    25
100
AcDbCircle
 10
2.0
 20
0.0
 30
0.0
 40
0.1005000000000003
  0
CIRCLE
  5
2C5
330
1F
100
AcDbEntity
  8
0
  6
Continuous
 62
     7
370
    25
100
AcDbCircle
 10
2.0
 20
0.5
 30
0.0
 40
0.1005000000000003
  0
MTEXT
  5
2C7
330
1F
100
AcDbEntity
  8
0
  6
Continuous
 62
     7
100
AcDbMText
 10
-3.0159736445
 20
-3.0582897405
 30
0.0
 40
0.1903
 41
0.0
 71
     1
 72
     1
  1
Producto SOLIDWORKS Educational.
  7
SLDTEXTSTYLE0
 73
     1
 44
1.0
  0
MTEXT
  5
2C8
330
1F
100
AcDbEntity
  8
0
  6
Continuous
 62
     7
100
AcDbMText
 10
-3.0159736445
 20
-3.3437397405
 30
0.0
 40
0.1903
 41
0.0
 71
     1
 72
     1
  1
Solo para uso en la enseanza.
  7
SLDTEXTSTYLE0
 73
     1
 44
1.0
  0
ENDSEC
  0
SECTION
  2
OBJECTS
  0
DICTIONARY
  5
C
330
0
100
AcDbDictionary
281
     1
  3
ACAD_GROUP
350
D
  3
ACAD_LAYOUT
350
1A
  3
ACAD_MLINESTYLE
350
17
  3
ACAD_PLOTSETTINGS
350
19
  3
ACAD_PLOTSTYLENAME
350
E
  3
ACAD_SCALELIST
350
47
  3
DWGPROPS
350
2C9
  0
DICTIONARY
  5
D
102
{ACAD_REACTORS
330
C
102
}
330
C
100
AcDbDictionary
281
     1
  0
DICTIONARY
  5
1A
102
{ACAD_REACTORS
330
C
102
}
330
C
100
AcDbDictionary
281
     1
  3
Layout1
350
1E
  3
Layout2
350
26
  3
Model
350
22
  0
DICTIONARY
  5
17
102
{ACAD_REACTORS
330
C
102
}
330
C
100
AcDbDictionary
281
     1
  3
Standard
350
18
  0
DICTIONARY
  5
19
102
{ACAD_REACTORS
330
C
102
}
330
C
100
AcDbDictionary
281
     1
  0
ACDBDICTIONARYWDFLT
  5
E
102
{ACAD_REACTORS
330
C
102
}
330
C
100
AcDbDictionary
281
     1
  3
Normal
350
F
100
AcDbDictionaryWithDefault
340
F
  0
DICTIONARY
  5
47
102
{ACAD_REACTORS
330
C
102
}
330
C
100
AcDbDictionary
281
     1
  3
A0
350
48
  3
A1
350
49
  3
A2
350
4A
  3
A3
350
4B
  3
A4
350
4C
  3
A5
350
4D
  3
A6
350
4E
  3
A7
350
4F
  3
A8
350
50
  3
A9
350
51
  3
B1
350
52
  3
B2
350
53
  3
B3
350
54
  3
B4
350
55
  3
B5
350
56
  3
B6
350
57
  3
B7
350
58
  0
XRECORD
  5
2C9
102
{ACAD_REACTORS
330
C
102
}
330
C
100
AcDbXrecord
280
     1
  1
DWGPROPS COOKIE
  2

  3

  4

  6

  7

  8
Cerbotics 4400
  9

300
=
301
=
302
=
303
=
304
=
305
=
306
=
307
=
308
=
309
=
 40
0.0
 41
2460005.756429479
 42
2460005.756445047
  1

 90
        0
  0
LAYOUT
  5
1E
102
{ACAD_REACTORS
330
1A
102
}
330
1A
100
AcDbPlotSettings
  1

  2
none_device
  4

  6

 40
0.0
 41
0.0
 42
0.0
 43
0.0
 44
0.0
 45
0.0
 46
0.0
 47
0.0
 48
0.0
 49
0.0
140
0.0
141
0.0
142
1.0
143
1.0
 70
   688
 72
     0
 73
     0
 74
     5
  7

 75
    16
147
1.0
148
0.0
149
0.0
100
AcDbLayout
  1
Layout1
 70
     1
 71
     1
 10
0.0
 20
0.0
 11
12.0
 21
9.0
 12
0.0
 22
0.0
 32
0.0
 14
1.0000000000E+20
 24
1.0000000000E+20
 34
1.0000000000E+20
 15
-1.0000000000E+20
 25
-1.0000000000E+20
 35
-1.0000000000E+20
146
0.0
 13
0.0
 23
0.0
 33
0.0
 16
1.0
 26
0.0
 36
0.0
 17
0.0
 27
1.0
 37
0.0
 76
     0
330
1B
  0
LAYOUT
  5
26
102
{ACAD_REACTORS
330
1A
102
}
330
1A
100
AcDbPlotSettings
  1

  2
none_device
  4

  6

 40
0.0
 41
0.0
 42
0.0
 43
0.0
 44
0.0
 45
0.0
 46
0.0
 47
0.0
 48
0.0
 49
0.0
140
0.0
141
0.0
142
1.0
143
1.0
 70
   688
 72
     0
 73
     0
 74
     5
  7

 75
    16
147
1.0
148
0.0
149
0.0
100
AcDbLayout
  1
Layout2
 70
     1
 71
     2
 10
0.0
 20
0.0
 11
0.0
 21
0.0
 12
0.0
 22
0.0
 32
0.0
 14
0.0
 24
0.0
 34
0.0
 15
0.0
 25
0.0
 35
0.0
146
0.0
 13
0.0
 23
0.0
 33
0.0
 16
1.0
 26
0.0
 36
0.0
 17
0.0
 27
1.0
 37
0.0
 76
     0
330
23
  0
LAYOUT
  5
22
102
{ACAD_REACTORS
330
1A
102
}
330
1A
100
AcDbPlotSettings
  1

  2
none_device
  4
ANSI_A_(11.00_x_8.50_Inches)
  6

 40
6.35
 41
19.05
 42
6.35000508
 43
19.05000254
 44
279.4
 45
215.9
 46
133.34999746
 47
88.89999873
 48
0.0
 49
0.0
140
0.0
141
0.0
142
1.3940662101
143
1.0
 70
  1696
 72
     0
 73
     0
 74
     0
  7

 75
     0
147
0.5913241897
148
-39.4088153714
149
0.0
100
AcDbLayout
  1
Model
 70
     1
 71
     0
 10
0.0
 20
0.0
 11
12.0
 21
9.0
 12
0.0
 22
0.0
 32
0.0
 14
-3.0159736445
 24
-3.0181493314
 34
0.0
 15
3.0159736445
 25
3.0181493314
 35
0.0
146
0.0
 13
0.0
 23
0.0
 33
0.0
 16
1.0
 26
0.0
 36
0.0
 17
0.0
 27
1.0
 37
0.0
 76
     0
330
1F
331
29
  0
MLINESTYLE
  5
18
102
{ACAD_REACTORS
330
17
102
}
330
17
100
AcDbMlineStyle
  2
Standard
 70
     0
  3

 62
   256
 51
90.0
 52
90.0
 71
     2
 49
0.5
 62
   256
  6
BYLAYER
 49
-0.5
 62
   256
  6
BYLAYER
  0
ACDBPLACEHOLDER
  5
F
102
{ACAD_REACTORS
330
E
102
}
330
E
  0
SCALE
  5
48
102
{ACAD_REACTORS
330
47
102
}
330
47
100
AcDbScale
 70
     0
300
1:1
140
1.0
141
1.0
290
     1
  0
SCALE
  5
49
102
{ACAD_REACTORS
330
47
102
}
330
47
100
AcDbScale
 70
     0
300
1/128" = 1'-0"
140
0.0078125
141
12.0
290
     0
  0
SCALE
  5
4A
102
{ACAD_REACTORS
330
47
102
}
330
47
100
AcDbScale
 70
     0
300
1/64" = 1'-0"
140
0.015625
141
12.0
290
     0
  0
SCALE
  5
4B
102
{ACAD_REACTORS
330
47
102
}
330
47
100
AcDbScale
 70
     0
300
1/32" = 1'-0"
140
0.03125
141
12.0
290
     0
  0
SCALE
  5
4C
102
{ACAD_REACTORS
330
47
102
}
330
47
100
AcDbScale
 70
     0
300
1/16" = 1'-0"
140
0.0625
141
12.0
290
     0
  0
SCALE
  5
4D
102
{ACAD_REACTORS
330
47
102
}
330
47
100
AcDbScale
 70
     0
300
3/32" = 1'-0"
140
0.09375
141
12.0
290
     0
  0
SCALE
  5
4E
102
{ACAD_REACTORS
330
47
102
}
330
47
100
AcDbScale
 70
     0
300
1/8" = 1'-0"
140
0.125
141
12.0
290
     0
  0
SCALE
  5
4F
102
{ACAD_REACTORS
330
47
102
}
330
47
100
AcDbScale
 70
     0
300
3/16" = 1'-0"
140
0.1875
141
12.0
290
     0
  0
SCALE
  5
50
102
{ACAD_REACTORS
330
47
102
}
330
47
100
AcDbScale
 70
     0
300
1/4" = 1'-0"
140
0.25
141
12.0
290
     0
  0
SCALE
  5
51
102
{ACAD_REACTORS
330
47
102
}
330
47
100
AcDbScale
 70
     0
300
3/8" = 1'-0"
140
0.375
141
12.0
290
     0
  0
SCALE
  5
52
102
{ACAD_REACTORS
330
47
102
}
330
47
100
AcDbScale
 70
     0
300
1/2" = 1'-0"
140
0.5
141
12.0
290
     0
  0
SCALE
  5
53
102
{ACAD_REACTORS
330
47
102
}
330
47
100
AcDbScale
 70
     0
300
3/4" = 1'-0"
140
0.75
141
12.0
290
     0
  0
SCALE
  5
54
102
{ACAD_REACTORS
330
47
102
}
330
47
100
AcDbScale
 70
     0
300
1" = 1'-0"
140
1.0
141
12.0
290
     0
  0
SCALE
  5
55
102
{ACAD_REACTORS
330
47
102
}
330
47
100
AcDbScale
 70
     0
300
1-1/2" = 1'-0"
140
1.5
141
12.0
290
     0
  0
SCALE
  5
56
102
{ACAD_REACTORS
330
47
102
}
330
47
100
AcDbScale
 70
     0
300
3" = 1'-0"
140
3.0
141
12.0
290
     0
  0
SCALE
  5
57
102
{ACAD_REACTORS
330
47
102
}
330
47
100
AcDbScale
 70
     0
300
6" = 1'-0"
140
6.0
141
12.0
290
     0
  0
SCALE
  5
58
102
{ACAD_REACTORS
330
47
102
}
330
47
100
AcDbScale
 70
     0
300
1'-0" = 1'-0"
140
12.0
141
12.0
290
     0
  0
ENDSEC
  0
EOF
